<svg xmlns="http://www.w3.org/2000/svg" viewBox="0 0 60 56" shape-rendering="crispEdges">
<path fill="#000000" d="M23,0h1v1h-1zM24,0h1v1h-1zM25,0h1v1h-1zM26,0h1v1h-1z"/><path fill="#000000" d="M34,0h1v1h-1zM35,0h1v1h-1zM36,0h1v1h-1zM37,0h1v1h-1z"/><path fill="#000000" d="M22,1h1v1h-1z"/><path fill="#eef283" d="M23,1h1v1h-1zM24,1h1v1h-1zM25,1h1v1h-1z"/><path fill="#96e04a" d="M26,1h1v1h-1z"/><path fill="#000000" d="M27,1h1v1h-1z"/><path fill="#000000" d="M33,1h1v1h-1z"/><path fill="#eef283" d="M34,1h1v1h-1zM35,1h1v1h-1zM36,1h1v1h-1z"/><path fill="#96e04a" d="M37,1h1v1h-1z"/><path fill="#000000" d="M38,1h1v1h-1z"/><path fill="#000000" d="M21,2h1v1h-1z"/><path fill="#eef283" d="M22,2h1v1h-1z"/><path fill="#96e04a" d="M23,2h1v1h-1zM24,2h1v1h-1zM25,2h1v1h-1z"/><path fill="#7bc241" d="M26,2h1v1h-1zM26,3h1v1h-1zM26,4h1v1h-1zM26,5h1v1h-1zM26,6h1v1h-1zM26,7h1v1h-1zM25,7h1v1h-1zM25,6h1v1h-1zM25,5h1v1h-1zM25,4h1v1h-1zM25,3h1v1h-1zM24,3h1v1h-1zM24,4h1v1h-1zM24,5h1v1h-1zM24,6h1v1h-1zM24,7h1v1h-1zM24,8h1v1h-1zM25,8h1v1h-1zM25,9h1v1h-1zM23,6h1v1h-1zM23,5h1v1h-1zM23,4h1v1h-1zM23,3h1v1h-1zM22,4h1v1h-1zM22,5h1v1h-1zM27,2h1v1h-1z"/><path fill="#000000" d="M28,2h1v1h-1z"/><path fill="#000000" d="M32,2h1v1h-1z"/><path fill="#eef283" d="M33,2h1v1h-1z"/><path fill="#96e04a" d="M34,2h1v1h-1zM35,2h1v1h-1zM36,2h1v1h-1z"/><path fill="#7bc241" d="M37,2h1v1h-1zM37,3h1v1h-1zM36,3h1v1h-1zM36,4h1v1h-1zM35,4h1v1h-1zM35,3h1v1h-1zM34,3h1v1h-1zM34,4h1v1h-1zM34,5h1v1h-1zM34,6h1v1h-1zM34,7h1v1h-1zM33,7h1v1h-1zM33,6h1v1h-1zM33,5h1v1h-1zM32,6h1v1h-1zM32,7h1v1h-1zM32,8h1v1h-1zM32,9h1v1h-1zM31,9h1v1h-1zM31,8h1v1h-1zM31,7h1v1h-1zM31,10h1v1h-1zM33,8h1v1h-1zM35,5h1v1h-1zM38,2h1v1h-1z"/><path fill="#000000" d="M39,2h1v1h-1z"/><path fill="#000000" d="M20,3h1v1h-1zM20,4h1v1h-1zM20,5h1v1h-1zM19,5h1v1h-1zM18,5h1v1h-1z"/><path fill="#eef283" d="M21,3h1v1h-1z"/><path fill="#96e04a" d="M22,3h1v1h-1z"/><path fill="#72b036" d="M27,3h1v1h-1zM27,4h1v1h-1zM27,5h1v1h-1zM27,6h1v1h-1zM27,7h1v1h-1z"/><path fill="#629d29" d="M28,3h1v1h-1zM28,4h1v1h-1zM28,5h1v1h-1zM28,6h1v1h-1zM28,7h1v1h-1zM28,8h1v1h-1zM28,9h1v1h-1zM28,10h1v1h-1zM28,11h1v1h-1zM27,11h1v1h-1zM27,10h1v1h-1zM27,9h1v1h-1zM27,8h1v1h-1zM26,10h1v1h-1zM29,6h1v1h-1zM29,5h1v1h-1z"/><path fill="#000000" d="M29,3h1v1h-1zM29,4h1v1h-1z"/><path fill="#000000" d="M31,3h1v1h-1zM31,4h1v1h-1z"/><path fill="#eef283" d="M32,3h1v1h-1zM32,4h1v1h-1z"/><path fill="#96e04a" d="M33,3h1v1h-1zM33,4h1v1h-1z"/><path fill="#72b036" d="M38,3h1v1h-1z"/><path fill="#629d29" d="M39,3h1v1h-1zM39,4h1v1h-1zM39,5h1v1h-1zM38,5h1v1h-1zM38,4h1v1h-1zM38,6h1v1h-1zM37,6h1v1h-1zM37,5h1v1h-1zM37,7h1v1h-1zM36,7h1v1h-1zM36,6h1v1h-1zM36,8h1v1h-1zM35,8h1v1h-1zM35,9h1v1h-1zM34,9h1v1h-1zM34,10h1v1h-1zM33,10h1v1h-1zM33,11h1v1h-1zM32,11h1v1h-1z"/><path fill="#000000" d="M40,3h1v1h-1zM40,4h1v1h-1zM40,5h1v1h-1zM41,5h1v1h-1zM42,5h1v1h-1z"/><path fill="#96e04a" d="M21,4h1v1h-1zM21,5h1v1h-1z"/><path fill="#72b036" d="M37,4h1v1h-1z"/><path fill="#000000" d="M30,5h1v1h-1zM30,6h1v1h-1zM30,7h1v1h-1zM30,8h1v1h-1zM30,9h1v1h-1zM30,10h1v1h-1zM30,11h1v1h-1zM30,12h1v1h-1zM30,13h1v1h-1zM30,14h1v1h-1zM30,15h1v1h-1zM30,16h1v1h-1zM30,17h1v1h-1zM30,18h1v1h-1zM30,19h1v1h-1zM30,20h1v1h-1zM30,21h1v1h-1zM30,22h1v1h-1zM30,23h1v1h-1zM30,24h1v1h-1zM30,25h1v1h-1zM29,16h1v1h-1zM29,15h1v1h-1zM29,14h1v1h-1zM28,15h1v1h-1zM27,15h1v1h-1zM26,15h1v1h-1zM25,15h1v1h-1zM24,15h1v1h-1zM23,15h1v1h-1zM23,14h1v1h-1zM22,15h1v1h-1zM21,15h1v1h-1zM20,15h1v1h-1zM31,16h1v1h-1zM31,15h1v1h-1zM31,14h1v1h-1zM32,15h1v1h-1zM33,15h1v1h-1zM34,15h1v1h-1zM35,15h1v1h-1zM36,15h1v1h-1zM37,15h1v1h-1zM37,14h1v1h-1zM38,15h1v1h-1zM39,15h1v1h-1zM40,15h1v1h-1z"/><path fill="#eef283" d="M31,5h1v1h-1z"/><path fill="#96e04a" d="M32,5h1v1h-1z"/><path fill="#72b036" d="M36,5h1v1h-1z"/><path fill="#000000" d="M17,6h1v1h-1z"/><path fill="#eef283" d="M18,6h1v1h-1zM19,6h1v1h-1zM20,6h1v1h-1z"/><path fill="#000000" d="M21,6h1v1h-1z"/><path fill="#96e04a" d="M22,6h1v1h-1z"/><path fill="#96e04a" d="M31,6h1v1h-1z"/><path fill="#72b036" d="M35,6h1v1h-1zM35,7h1v1h-1z"/><path fill="#000000" d="M39,6h1v1h-1z"/><path fill="#eef283" d="M40,6h1v1h-1zM41,6h1v1h-1z"/><path fill="#96e04a" d="M42,6h1v1h-1z"/><path fill="#000000" d="M43,6h1v1h-1z"/><path fill="#000000" d="M16,7h1v1h-1z"/><path fill="#eef283" d="M17,7h1v1h-1z"/><path fill="#96e04a" d="M18,7h1v1h-1zM19,7h1v1h-1zM20,7h1v1h-1z"/><path fill="#eef283" d="M21,7h1v1h-1z"/><path fill="#000000" d="M22,7h1v1h-1z"/><path fill="#96e04a" d="M23,7h1v1h-1z"/><path fill="#298141" d="M29,7h1v1h-1zM29,8h1v1h-1zM29,9h1v1h-1zM29,10h1v1h-1zM29,11h1v1h-1zM29,12h1v1h-1zM29,13h1v1h-1zM28,12h1v1h-1z"/><path fill="#000000" d="M38,7h1v1h-1z"/><path fill="#eef283" d="M39,7h1v1h-1z"/><path fill="#96e04a" d="M40,7h1v1h-1zM41,7h1v1h-1z"/><path fill="#7bc241" d="M42,7h1v1h-1zM42,8h1v1h-1zM42,9h1v1h-1zM41,9h1v1h-1zM41,8h1v1h-1zM40,8h1v1h-1zM40,9h1v1h-1zM40,10h1v1h-1zM39,10h1v1h-1zM39,9h1v1h-1zM38,10h1v1h-1zM38,11h1v1h-1zM37,11h1v1h-1zM36,11h1v1h-1zM36,12h1v1h-1zM35,12h1v1h-1zM34,12h1v1h-1zM43,8h1v1h-1zM44,8h1v1h-1z"/><path fill="#96e04a" d="M43,7h1v1h-1z"/><path fill="#000000" d="M44,7h1v1h-1z"/><path fill="#000000" d="M15,8h1v1h-1zM15,9h1v1h-1zM15,10h1v1h-1zM15,11h1v1h-1z"/><path fill="#eef283" d="M16,8h1v1h-1zM16,9h1v1h-1zM16,10h1v1h-1z"/><path fill="#96e04a" d="M17,8h1v1h-1zM17,9h1v1h-1zM17,10h1v1h-1z"/><path fill="#7bc241" d="M18,8h1v1h-1zM18,9h1v1h-1zM18,10h1v1h-1zM18,11h1v1h-1zM18,12h1v1h-1zM18,13h1v1h-1zM19,13h1v1h-1zM19,12h1v1h-1zM19,11h1v1h-1zM19,10h1v1h-1zM19,9h1v1h-1zM19,8h1v1h-1zM20,8h1v1h-1zM20,9h1v1h-1zM20,10h1v1h-1zM20,11h1v1h-1zM20,12h1v1h-1zM21,11h1v1h-1zM21,10h1v1h-1zM21,9h1v1h-1zM22,9h1v1h-1zM22,10h1v1h-1zM22,11h1v1h-1zM23,11h1v1h-1zM23,10h1v1h-1zM24,10h1v1h-1zM17,11h1v1h-1z"/><path fill="#96e04a" d="M21,8h1v1h-1zM22,8h1v1h-1z"/><path fill="#000000" d="M23,8h1v1h-1z"/><path fill="#72b036" d="M26,8h1v1h-1zM26,9h1v1h-1z"/><path fill="#72b036" d="M34,8h1v1h-1z"/><path fill="#000000" d="M37,8h1v1h-1z"/><path fill="#eef283" d="M38,8h1v1h-1z"/><path fill="#96e04a" d="M39,8h1v1h-1z"/><path fill="#000000" d="M45,8h1v1h-1zM45,9h1v1h-1zM45,10h1v1h-1zM45,11h1v1h-1z"/><path fill="#96e04a" d="M23,9h1v1h-1z"/><path fill="#000000" d="M24,9h1v1h-1z"/><path fill="#72b036" d="M33,9h1v1h-1z"/><path fill="#000000" d="M36,9h1v1h-1z"/><path fill="#eef283" d="M37,9h1v1h-1z"/><path fill="#96e04a" d="M38,9h1v1h-1z"/><path fill="#72b036" d="M43,9h1v1h-1zM44,9h1v1h-1z"/><path fill="#000000" d="M25,10h1v1h-1z"/><path fill="#72b036" d="M32,10h1v1h-1z"/><path fill="#000000" d="M35,10h1v1h-1z"/><path fill="#96e04a" d="M36,10h1v1h-1zM37,10h1v1h-1z"/><path fill="#72b036" d="M41,10h1v1h-1zM42,10h1v1h-1z"/><path fill="#629d29" d="M43,10h1v1h-1zM43,11h1v1h-1zM42,11h1v1h-1zM42,12h1v1h-1zM41,12h1v1h-1zM41,11h1v1h-1zM40,12h1v1h-1zM40,13h1v1h-1zM39,13h1v1h-1zM39,12h1v1h-1zM38,13h1v1h-1zM38,14h1v1h-1zM37,13h1v1h-1zM44,10h1v1h-1z"/><path fill="#96e04a" d="M16,11h1v1h-1z"/><path fill="#72b036" d="M24,11h1v1h-1z"/><path fill="#629d29" d="M25,11h1v1h-1zM25,12h1v1h-1zM25,13h1v1h-1zM24,13h1v1h-1zM24,12h1v1h-1zM23,13h1v1h-1zM22,13h1v1h-1zM21,13h1v1h-1zM21,14h1v1h-1zM20,14h1v1h-1zM26,12h1v1h-1z"/><path fill="#000000" d="M26,11h1v1h-1z"/><path fill="#298141" d="M31,11h1v1h-1zM31,12h1v1h-1zM31,13h1v1h-1zM32,12h1v1h-1z"/><path fill="#000000" d="M34,11h1v1h-1z"/><path fill="#96e04a" d="M35,11h1v1h-1z"/><path fill="#72b036" d="M39,11h1v1h-1zM40,11h1v1h-1z"/><path fill="#298141" d="M44,11h1v1h-1z"/><path fill="#000000" d="M16,12h1v1h-1z"/><path fill="#96e04a" d="M17,12h1v1h-1z"/><path fill="#72b036" d="M21,12h1v1h-1zM22,12h1v1h-1zM23,12h1v1h-1z"/><path fill="#000000" d="M27,12h1v1h-1z"/><path fill="#000000" d="M33,12h1v1h-1z"/><path fill="#72b036" d="M37,12h1v1h-1zM38,12h1v1h-1z"/><path fill="#298141" d="M43,12h1v1h-1z"/><path fill="#000000" d="M44,12h1v1h-1z"/><path fill="#000000" d="M17,13h1v1h-1z"/><path fill="#72b036" d="M20,13h1v1h-1z"/><path fill="#298141" d="M26,13h1v1h-1zM26,14h1v1h-1zM25,14h1v1h-1zM24,14h1v1h-1zM27,14h1v1h-1zM27,13h1v1h-1zM28,14h1v1h-1z"/><path fill="#000000" d="M28,13h1v1h-1z"/><path fill="#000000" d="M32,13h1v1h-1z"/><path fill="#298141" d="M33,13h1v1h-1zM33,14h1v1h-1zM32,14h1v1h-1zM34,14h1v1h-1z"/><path fill="#72b036" d="M34,13h1v1h-1zM35,13h1v1h-1zM36,13h1v1h-1z"/><path fill="#298141" d="M41,13h1v1h-1zM42,13h1v1h-1z"/><path fill="#000000" d="M43,13h1v1h-1z"/><path fill="#000000" d="M18,14h1v1h-1zM19,14h1v1h-1z"/><path fill="#298141" d="M22,14h1v1h-1z"/><path fill="#629d29" d="M35,14h1v1h-1zM36,14h1v1h-1z"/><path fill="#298141" d="M39,14h1v1h-1zM40,14h1v1h-1z"/><path fill="#000000" d="M41,14h1v1h-1zM42,14h1v1h-1z"/><path fill="#000000" d="M18,16h1v1h-1zM19,16h1v1h-1z"/><path fill="#eef283" d="M20,16h1v1h-1zM21,16h1v1h-1z"/><path fill="#96e04a" d="M22,16h1v1h-1z"/><path fill="#7bc241" d="M23,16h1v1h-1zM23,17h1v1h-1zM22,17h1v1h-1zM22,18h1v1h-1zM21,18h1v1h-1zM21,19h1v1h-1zM20,19h1v1h-1zM20,18h1v1h-1zM20,20h1v1h-1zM19,20h1v1h-1zM19,19h1v1h-1zM18,19h1v1h-1zM18,20h1v1h-1zM18,21h1v1h-1zM18,22h1v1h-1zM17,22h1v1h-1zM17,23h1v1h-1zM19,21h1v1h-1zM24,16h1v1h-1z"/><path fill="#72b036" d="M25,16h1v1h-1z"/><path fill="#629d29" d="M26,16h1v1h-1zM26,17h1v1h-1zM25,17h1v1h-1zM25,18h1v1h-1zM25,19h1v1h-1zM24,19h1v1h-1zM24,18h1v1h-1zM24,20h1v1h-1zM23,20h1v1h-1zM23,19h1v1h-1zM23,21h1v1h-1zM22,21h1v1h-1zM22,22h1v1h-1zM21,22h1v1h-1zM21,23h1v1h-1zM20,23h1v1h-1zM20,24h1v1h-1zM19,24h1v1h-1zM18,24h1v1h-1z"/><path fill="#298141" d="M27,16h1v1h-1zM27,17h1v1h-1zM28,16h1v1h-1z"/><path fill="#298141" d="M32,16h1v1h-1z"/><path fill="#7bc241" d="M33,16h1v1h-1zM33,17h1v1h-1zM34,17h1v1h-1zM34,16h1v1h-1zM34,18h1v1h-1zM35,18h1v1h-1zM35,17h1v1h-1zM36,17h1v1h-1zM36,18h1v1h-1zM36,19h1v1h-1zM36,20h1v1h-1zM37,20h1v1h-1zM37,19h1v1h-1zM37,18h1v1h-1zM38,18h1v1h-1zM38,19h1v1h-1zM38,20h1v1h-1zM39,20h1v1h-1zM39,19h1v1h-1zM39,18h1v1h-1zM40,18h1v1h-1zM40,19h1v1h-1zM41,19h1v1h-1zM35,19h1v1h-1z"/><path fill="#96e04a" d="M35,16h1v1h-1zM36,16h1v1h-1z"/><path fill="#eef283" d="M37,16h1v1h-1zM38,16h1v1h-1zM39,16h1v1h-1zM40,16h1v1h-1z"/><path fill="#000000" d="M41,16h1v1h-1zM42,16h1v1h-1z"/><path fill="#000000" d="M17,17h1v1h-1z"/><path fill="#eef283" d="M18,17h1v1h-1zM19,17h1v1h-1z"/><path fill="#96e04a" d="M20,17h1v1h-1zM21,17h1v1h-1z"/><path fill="#72b036" d="M24,17h1v1h-1z"/><path fill="#000000" d="M28,17h1v1h-1z"/><path fill="#298141" d="M29,17h1v1h-1zM29,18h1v1h-1zM29,19h1v1h-1zM29,20h1v1h-1zM29,21h1v1h-1zM29,22h1v1h-1zM29,23h1v1h-1zM29,24h1v1h-1zM29,25h1v1h-1zM28,25h1v1h-1zM28,26h1v1h-1zM28,27h1v1h-1zM27,27h1v1h-1zM27,28h1v1h-1zM26,28h1v1h-1zM26,29h1v1h-1zM25,29h1v1h-1z"/><path fill="#298141" d="M31,17h1v1h-1zM31,18h1v1h-1z"/><path fill="#000000" d="M32,17h1v1h-1z"/><path fill="#96e04a" d="M37,17h1v1h-1zM38,17h1v1h-1zM39,17h1v1h-1zM40,17h1v1h-1z"/><path fill="#eef283" d="M41,17h1v1h-1zM42,17h1v1h-1z"/><path fill="#000000" d="M43,17h1v1h-1z"/><path fill="#000000" d="M16,18h1v1h-1z"/><path fill="#eef283" d="M17,18h1v1h-1z"/><path fill="#96e04a" d="M18,18h1v1h-1zM19,18h1v1h-1z"/><path fill="#72b036" d="M23,18h1v1h-1z"/><path fill="#298141" d="M26,18h1v1h-1z"/><path fill="#000000" d="M27,18h1v1h-1z"/><path fill="#7bc241" d="M28,18h1v1h-1zM28,19h1v1h-1zM28,20h1v1h-1zM28,21h1v1h-1zM27,21h1v1h-1zM27,22h1v1h-1zM27,23h1v1h-1zM27,24h1v1h-1zM26,24h1v1h-1zM26,23h1v1h-1zM26,22h1v1h-1zM25,23h1v1h-1zM25,24h1v1h-1zM25,25h1v1h-1zM25,26h1v1h-1zM24,26h1v1h-1zM24,25h1v1h-1zM24,24h1v1h-1zM23,25h1v1h-1zM23,26h1v1h-1zM26,25h1v1h-1z"/><path fill="#7bc241" d="M32,18h1v1h-1zM32,19h1v1h-1zM32,20h1v1h-1zM33,20h1v1h-1zM33,19h1v1h-1zM33,21h1v1h-1zM33,22h1v1h-1zM33,23h1v1h-1zM33,24h1v1h-1zM33,25h1v1h-1zM34,25h1v1h-1zM34,24h1v1h-1zM34,23h1v1h-1zM34,22h1v1h-1zM34,21h1v1h-1zM34,20h1v1h-1zM35,21h1v1h-1zM35,22h1v1h-1zM35,23h1v1h-1zM35,24h1v1h-1zM35,25h1v1h-1zM35,26h1v1h-1zM34,26h1v1h-1zM36,26h1v1h-1zM36,25h1v1h-1zM36,24h1v1h-1zM36,23h1v1h-1zM36,22h1v1h-1zM37,23h1v1h-1zM37,24h1v1h-1zM37,25h1v1h-1zM31,19h1v1h-1z"/><path fill="#000000" d="M33,18h1v1h-1z"/><path fill="#96e04a" d="M41,18h1v1h-1zM42,18h1v1h-1z"/><path fill="#72b036" d="M43,18h1v1h-1z"/><path fill="#000000" d="M44,18h1v1h-1z"/><path fill="#000000" d="M15,19h1v1h-1zM15,20h1v1h-1zM15,21h1v1h-1zM15,22h1v1h-1z"/><path fill="#eef283" d="M16,19h1v1h-1zM16,20h1v1h-1zM16,21h1v1h-1z"/><path fill="#96e04a" d="M17,19h1v1h-1zM17,20h1v1h-1zM17,21h1v1h-1z"/><path fill="#72b036" d="M22,19h1v1h-1zM22,20h1v1h-1zM21,20h1v1h-1zM21,21h1v1h-1zM20,21h1v1h-1zM20,22h1v1h-1zM19,22h1v1h-1zM19,23h1v1h-1zM18,23h1v1h-1z"/><path fill="#000000" d="M26,19h1v1h-1z"/><path fill="#96e04a" d="M27,19h1v1h-1zM27,20h1v1h-1z"/><path fill="#000000" d="M34,19h1v1h-1z"/><path fill="#72b036" d="M42,19h1v1h-1z"/><path fill="#629d29" d="M43,19h1v1h-1zM43,20h1v1h-1zM43,21h1v1h-1zM43,22h1v1h-1zM42,22h1v1h-1zM42,21h1v1h-1zM42,20h1v1h-1zM41,21h1v1h-1zM41,22h1v1h-1zM41,23h1v1h-1zM40,23h1v1h-1zM40,22h1v1h-1zM40,24h1v1h-1zM39,23h1v1h-1zM42,23h1v1h-1zM44,19h1v1h-1z"/><path fill="#000000" d="M45,19h1v1h-1zM45,20h1v1h-1zM45,21h1v1h-1zM45,22h1v1h-1z"/><path fill="#000000" d="M25,20h1v1h-1z"/><path fill="#eef283" d="M26,20h1v1h-1z"/><path fill="#96e04a" d="M31,20h1v1h-1z"/><path fill="#000000" d="M35,20h1v1h-1z"/><path fill="#72b036" d="M40,20h1v1h-1zM40,21h1v1h-1zM39,21h1v1h-1zM39,22h1v1h-1zM38,22h1v1h-1zM38,21h1v1h-1zM37,21h1v1h-1zM41,20h1v1h-1z"/><path fill="#298141" d="M44,20h1v1h-1zM44,21h1v1h-1zM44,22h1v1h-1z"/><path fill="#000000" d="M24,21h1v1h-1z"/><path fill="#eef283" d="M25,21h1v1h-1z"/><path fill="#96e04a" d="M26,21h1v1h-1z"/><path fill="#eef283" d="M31,21h1v1h-1zM31,22h1v1h-1zM31,23h1v1h-1zM31,24h1v1h-1z"/><path fill="#96e04a" d="M32,21h1v1h-1zM32,22h1v1h-1zM32,23h1v1h-1zM32,24h1v1h-1z"/><path fill="#000000" d="M36,21h1v1h-1z"/><path fill="#96e04a" d="M16,22h1v1h-1z"/><path fill="#000000" d="M23,22h1v1h-1z"/><path fill="#eef283" d="M24,22h1v1h-1z"/><path fill="#96e04a" d="M25,22h1v1h-1z"/><path fill="#72b036" d="M28,22h1v1h-1zM28,23h1v1h-1zM28,24h1v1h-1z"/><path fill="#000000" d="M37,22h1v1h-1z"/><path fill="#000000" d="M16,23h1v1h-1z"/><path fill="#000000" d="M22,23h1v1h-1z"/><path fill="#eef283" d="M23,23h1v1h-1z"/><path fill="#96e04a" d="M24,23h1v1h-1z"/><path fill="#000000" d="M38,23h1v1h-1z"/><path fill="#298141" d="M43,23h1v1h-1z"/><path fill="#000000" d="M44,23h1v1h-1z"/><path fill="#000000" d="M17,24h1v1h-1z"/><path fill="#000000" d="M21,24h1v1h-1z"/><path fill="#eef283" d="M22,24h1v1h-1z"/><path fill="#96e04a" d="M23,24h1v1h-1z"/><path fill="#72b036" d="M38,24h1v1h-1zM38,25h1v1h-1z"/><path fill="#000000" d="M39,24h1v1h-1z"/><path fill="#298141" d="M41,24h1v1h-1zM42,24h1v1h-1z"/><path fill="#000000" d="M43,24h1v1h-1z"/><path fill="#000000" d="M18,25h1v1h-1zM19,25h1v1h-1zM20,25h1v1h-1zM20,26h1v1h-1zM20,27h1v1h-1z"/><path fill="#eef283" d="M21,25h1v1h-1z"/><path fill="#96e04a" d="M22,25h1v1h-1zM22,26h1v1h-1z"/><path fill="#72b036" d="M27,25h1v1h-1z"/><path fill="#629d29" d="M31,25h1v1h-1z"/><path fill="#72b036" d="M32,25h1v1h-1z"/><path fill="#629d29" d="M39,25h1v1h-1z"/><path fill="#000000" d="M40,25h1v1h-1zM40,26h1v1h-1zM40,27h1v1h-1zM41,25h1v1h-1zM42,25h1v1h-1z"/><path fill="#629d29" d="M21,26h1v1h-1zM21,27h1v1h-1z"/><path fill="#72b036" d="M26,26h1v1h-1z"/><path fill="#629d29" d="M27,26h1v1h-1z"/><path fill="#000000" d="M29,26h1v1h-1zM29,27h1v1h-1zM29,28h1v1h-1zM29,29h1v1h-1zM29,30h1v1h-1zM28,28h1v1h-1z"/><path fill="#629d29" d="M30,26h1v1h-1zM30,27h1v1h-1zM30,28h1v1h-1zM30,29h1v1h-1zM30,30h1v1h-1z"/><path fill="#000000" d="M31,26h1v1h-1zM31,27h1v1h-1zM31,28h1v1h-1zM31,29h1v1h-1zM31,30h1v1h-1zM31,31h1v1h-1zM31,32h1v1h-1zM32,28h1v1h-1z"/><path fill="#629d29" d="M32,26h1v1h-1zM32,27h1v1h-1zM33,27h1v1h-1zM33,28h1v1h-1zM34,28h1v1h-1zM34,29h1v1h-1zM35,28h1v1h-1zM36,28h1v1h-1zM37,28h1v1h-1zM37,27h1v1h-1zM38,27h1v1h-1zM38,26h1v1h-1z"/><path fill="#72b036" d="M33,26h1v1h-1z"/><path fill="#72b036" d="M37,26h1v1h-1z"/><path fill="#298141" d="M39,26h1v1h-1zM39,27h1v1h-1z"/><path fill="#72b036" d="M22,27h1v1h-1zM23,27h1v1h-1zM24,27h1v1h-1zM25,27h1v1h-1z"/><path fill="#629d29" d="M26,27h1v1h-1z"/><path fill="#72b036" d="M34,27h1v1h-1zM35,27h1v1h-1zM36,27h1v1h-1z"/><path fill="#000000" d="M21,28h1v1h-1z"/><path fill="#629d29" d="M22,28h1v1h-1zM23,28h1v1h-1zM23,29h1v1h-1zM24,29h1v1h-1zM24,28h1v1h-1zM25,28h1v1h-1z"/><path fill="#298141" d="M38,28h1v1h-1z"/><path fill="#000000" d="M39,28h1v1h-1z"/><path fill="#000000" d="M22,29h1v1h-1z"/><path fill="#000000" d="M27,29h1v1h-1z"/><path fill="#000000" d="M33,29h1v1h-1z"/><path fill="#298141" d="M35,29h1v1h-1zM36,29h1v1h-1zM37,29h1v1h-1z"/><path fill="#000000" d="M38,29h1v1h-1z"/><path fill="#000000" d="M23,30h1v1h-1zM24,30h1v1h-1zM25,30h1v1h-1zM26,30h1v1h-1z"/><path fill="#000000" d="M34,30h1v1h-1zM35,30h1v1h-1zM36,30h1v1h-1zM37,30h1v1h-1z"/><path fill="#000000" d="M28,31h1v1h-1z"/><path fill="#7bc241" d="M29,31h1v1h-1z"/><path fill="#298141" d="M30,31h1v1h-1zM30,32h1v1h-1z"/><path fill="#000000" d="M27,32h1v1h-1zM27,33h1v1h-1z"/><path fill="#7bc241" d="M28,32h1v1h-1zM28,33h1v1h-1z"/><path fill="#72b036" d="M29,32h1v1h-1z"/><path fill="#629d29" d="M29,33h1v1h-1zM29,34h1v1h-1z"/><path fill="#000000" d="M30,33h1v1h-1zM30,34h1v1h-1zM30,35h1v1h-1z"/><path fill="#000000" d="M26,34h1v1h-1z"/><path fill="#7bc241" d="M27,34h1v1h-1zM27,35h1v1h-1z"/><path fill="#72b036" d="M28,34h1v1h-1z"/><path fill="#000000" d="M25,35h1v1h-1z"/><path fill="#eef283" d="M26,35h1v1h-1z"/><path fill="#629d29" d="M28,35h1v1h-1zM28,36h1v1h-1z"/><path fill="#298141" d="M29,35h1v1h-1z"/><path fill="#000000" d="M24,36h1v1h-1zM24,37h1v1h-1z"/><path fill="#eef283" d="M25,36h1v1h-1z"/><path fill="#7bc241" d="M26,36h1v1h-1z"/><path fill="#72b036" d="M27,36h1v1h-1z"/><path fill="#000000" d="M29,36h1v1h-1zM29,37h1v1h-1z"/><path fill="#7bc241" d="M25,37h1v1h-1z"/><path fill="#72b036" d="M26,37h1v1h-1z"/><path fill="#629d29" d="M27,37h1v1h-1z"/><path fill="#298141" d="M28,37h1v1h-1z"/><path fill="#000000" d="M11,38h1v1h-1zM12,38h1v1h-1zM13,38h1v1h-1zM14,38h1v1h-1z"/><path fill="#000000" d="M25,38h1v1h-1z"/><path fill="#629d29" d="M26,38h1v1h-1z"/><path fill="#298141" d="M27,38h1v1h-1z"/><path fill="#000000" d="M28,38h1v1h-1z"/><path fill="#000000" d="M10,39h1v1h-1zM10,40h1v1h-1zM10,41h1v1h-1zM10,42h1v1h-1zM10,43h1v1h-1zM10,44h1v1h-1zM10,45h1v1h-1zM10,46h1v1h-1zM10,47h1v1h-1zM10,48h1v1h-1zM10,49h1v1h-1zM10,50h1v1h-1zM10,51h1v1h-1zM10,52h1v1h-1zM10,53h1v1h-1zM10,54h1v1h-1zM9,51h1v1h-1zM9,47h1v1h-1zM8,47h1v1h-1zM7,47h1v1h-1zM6,47h1v1h-1zM5,47h1v1h-1zM5,48h1v1h-1zM5,49h1v1h-1zM5,50h1v1h-1zM6,50h1v1h-1zM7,50h1v1h-1zM8,50h1v1h-1zM9,43h1v1h-1z"/><path fill="#eef283" d="M11,39h1v1h-1z"/><path fill="#96e04a" d="M12,39h1v1h-1z"/><path fill="#7bc241" d="M13,39h1v1h-1z"/><path fill="#298141" d="M14,39h1v1h-1zM14,40h1v1h-1zM14,41h1v1h-1zM14,42h1v1h-1zM14,43h1v1h-1zM14,44h1v1h-1zM14,45h1v1h-1zM14,46h1v1h-1zM14,47h1v1h-1zM14,48h1v1h-1zM14,49h1v1h-1zM14,50h1v1h-1zM14,51h1v1h-1zM14,52h1v1h-1zM14,53h1v1h-1zM14,54h1v1h-1zM13,54h1v1h-1zM12,54h1v1h-1zM11,54h1v1h-1z"/><path fill="#000000" d="M15,39h1v1h-1zM15,40h1v1h-1zM15,41h1v1h-1zM15,42h1v1h-1zM15,43h1v1h-1zM15,44h1v1h-1zM15,45h1v1h-1zM15,46h1v1h-1zM15,47h1v1h-1zM15,48h1v1h-1zM15,49h1v1h-1zM15,50h1v1h-1zM15,51h1v1h-1zM15,52h1v1h-1zM15,53h1v1h-1zM15,54h1v1h-1zM16,53h1v1h-1zM16,52h1v1h-1zM16,44h1v1h-1z"/><path fill="#000000" d="M26,39h1v1h-1zM27,39h1v1h-1z"/><path fill="#96e04a" d="M11,40h1v1h-1zM11,41h1v1h-1z"/><path fill="#7bc241" d="M12,40h1v1h-1zM12,41h1v1h-1z"/><path fill="#629d29" d="M13,40h1v1h-1zM13,41h1v1h-1zM13,42h1v1h-1zM13,43h1v1h-1zM13,44h1v1h-1zM13,45h1v1h-1zM13,46h1v1h-1zM13,47h1v1h-1zM13,48h1v1h-1zM13,49h1v1h-1zM13,50h1v1h-1zM13,51h1v1h-1zM13,52h1v1h-1zM13,53h1v1h-1zM12,53h1v1h-1zM11,53h1v1h-1z"/><path fill="#000000" d="M3,42h1v1h-1zM4,42h1v1h-1zM5,42h1v1h-1zM6,42h1v1h-1zM7,42h1v1h-1zM8,42h1v1h-1z"/><path fill="#7bc241" d="M11,42h1v1h-1zM11,43h1v1h-1zM11,44h1v1h-1zM11,45h1v1h-1zM11,46h1v1h-1zM11,47h1v1h-1zM11,48h1v1h-1zM11,49h1v1h-1zM11,50h1v1h-1zM11,51h1v1h-1z"/><path fill="#72b036" d="M12,42h1v1h-1zM12,43h1v1h-1zM12,44h1v1h-1zM12,45h1v1h-1zM12,46h1v1h-1zM12,47h1v1h-1zM12,48h1v1h-1zM12,49h1v1h-1zM12,50h1v1h-1zM12,51h1v1h-1zM12,52h1v1h-1zM11,52h1v1h-1z"/><path fill="#000000" d="M18,42h1v1h-1zM19,42h1v1h-1zM20,42h1v1h-1zM21,42h1v1h-1zM22,42h1v1h-1zM23,42h1v1h-1z"/><path fill="#000000" d="M28,42h1v1h-1zM29,42h1v1h-1zM30,42h1v1h-1zM31,42h1v1h-1z"/><path fill="#000000" d="M34,42h1v1h-1zM35,42h1v1h-1zM36,42h1v1h-1zM37,42h1v1h-1z"/><path fill="#000000" d="M41,42h1v1h-1zM42,42h1v1h-1zM43,42h1v1h-1zM44,42h1v1h-1zM45,42h1v1h-1zM46,42h1v1h-1z"/><path fill="#000000" d="M50,42h1v1h-1zM51,42h1v1h-1zM52,42h1v1h-1z"/><path fill="#000000" d="M54,42h1v1h-1zM55,42h1v1h-1zM56,42h1v1h-1zM57,42h1v1h-1z"/><path fill="#000000" d="M2,43h1v1h-1z"/><path fill="#eef283" d="M3,43h1v1h-1z"/><path fill="#96e04a" d="M4,43h1v1h-1zM5,43h1v1h-1z"/><path fill="#7bc241" d="M6,43h1v1h-1zM7,43h1v1h-1z"/><path fill="#72b036" d="M8,43h1v1h-1z"/><path fill="#000000" d="M17,43h1v1h-1z"/><path fill="#eef283" d="M18,43h1v1h-1z"/><path fill="#96e04a" d="M19,43h1v1h-1zM20,43h1v1h-1z"/><path fill="#7bc241" d="M21,43h1v1h-1zM21,44h1v1h-1zM22,44h1v1h-1zM22,43h1v1h-1zM22,45h1v1h-1zM23,45h1v1h-1zM23,44h1v1h-1zM23,46h1v1h-1zM23,47h1v1h-1zM23,48h1v1h-1zM24,45h1v1h-1z"/><path fill="#72b036" d="M23,43h1v1h-1z"/><path fill="#000000" d="M24,43h1v1h-1z"/><path fill="#000000" d="M27,43h1v1h-1zM27,44h1v1h-1zM27,45h1v1h-1zM27,46h1v1h-1zM27,47h1v1h-1zM27,48h1v1h-1zM27,49h1v1h-1zM27,50h1v1h-1zM27,51h1v1h-1zM27,52h1v1h-1zM28,50h1v1h-1zM28,49h1v1h-1zM26,46h1v1h-1zM26,45h1v1h-1z"/><path fill="#eef283" d="M28,43h1v1h-1z"/><path fill="#96e04a" d="M29,43h1v1h-1z"/><path fill="#7bc241" d="M30,43h1v1h-1zM30,44h1v1h-1zM30,45h1v1h-1zM30,46h1v1h-1zM30,47h1v1h-1zM30,48h1v1h-1zM30,49h1v1h-1zM30,50h1v1h-1zM30,51h1v1h-1zM31,51h1v1h-1zM31,50h1v1h-1zM31,49h1v1h-1zM31,48h1v1h-1zM32,50h1v1h-1zM32,51h1v1h-1zM33,51h1v1h-1zM29,49h1v1h-1zM29,48h1v1h-1zM29,47h1v1h-1zM29,46h1v1h-1zM29,45h1v1h-1zM29,44h1v1h-1zM28,46h1v1h-1zM28,47h1v1h-1z"/><path fill="#298141" d="M31,43h1v1h-1zM31,44h1v1h-1zM31,45h1v1h-1zM31,46h1v1h-1zM31,47h1v1h-1z"/><path fill="#000000" d="M32,43h1v1h-1zM32,44h1v1h-1zM32,45h1v1h-1zM32,46h1v1h-1zM32,47h1v1h-1zM33,47h1v1h-1zM33,46h1v1h-1zM33,45h1v1h-1zM33,44h1v1h-1zM33,43h1v1h-1zM33,48h1v1h-1z"/><path fill="#eef283" d="M34,43h1v1h-1z"/><path fill="#96e04a" d="M35,43h1v1h-1z"/><path fill="#7bc241" d="M36,43h1v1h-1z"/><path fill="#298141" d="M37,43h1v1h-1zM37,44h1v1h-1zM37,45h1v1h-1zM37,46h1v1h-1zM37,47h1v1h-1zM37,48h1v1h-1zM37,49h1v1h-1zM36,49h1v1h-1zM36,50h1v1h-1zM36,51h1v1h-1zM36,52h1v1h-1zM35,52h1v1h-1zM35,53h1v1h-1zM34,53h1v1h-1zM34,54h1v1h-1zM33,54h1v1h-1zM32,54h1v1h-1zM31,54h1v1h-1z"/><path fill="#000000" d="M38,43h1v1h-1zM38,44h1v1h-1zM38,45h1v1h-1zM38,46h1v1h-1zM38,47h1v1h-1zM38,48h1v1h-1zM38,49h1v1h-1zM38,50h1v1h-1zM38,51h1v1h-1zM37,51h1v1h-1zM37,50h1v1h-1zM37,52h1v1h-1zM39,44h1v1h-1z"/><path fill="#000000" d="M40,43h1v1h-1z"/><path fill="#eef283" d="M41,43h1v1h-1z"/><path fill="#96e04a" d="M42,43h1v1h-1zM43,43h1v1h-1z"/><path fill="#7bc241" d="M44,43h1v1h-1zM44,44h1v1h-1zM44,45h1v1h-1zM45,45h1v1h-1zM45,44h1v1h-1zM46,45h1v1h-1zM46,46h1v1h-1zM43,44h1v1h-1zM42,44h1v1h-1z"/><path fill="#72b036" d="M45,43h1v1h-1z"/><path fill="#629d29" d="M46,43h1v1h-1z"/><path fill="#000000" d="M47,43h1v1h-1z"/><path fill="#000000" d="M49,43h1v1h-1zM49,44h1v1h-1zM49,45h1v1h-1zM49,46h1v1h-1zM49,47h1v1h-1zM49,48h1v1h-1zM49,49h1v1h-1zM49,50h1v1h-1zM49,51h1v1h-1zM49,52h1v1h-1zM49,53h1v1h-1zM49,54h1v1h-1zM48,54h1v1h-1zM48,50h1v1h-1zM48,49h1v1h-1zM47,50h1v1h-1zM46,50h1v1h-1zM45,50h1v1h-1zM44,50h1v1h-1zM43,50h1v1h-1zM48,44h1v1h-1z"/><path fill="#eef283" d="M50,43h1v1h-1z"/><path fill="#96e04a" d="M51,43h1v1h-1z"/><path fill="#72b036" d="M52,43h1v1h-1z"/><path fill="#000000" d="M53,43h1v1h-1z"/><path fill="#eef283" d="M54,43h1v1h-1z"/><path fill="#96e04a" d="M55,43h1v1h-1z"/><path fill="#7bc241" d="M56,43h1v1h-1z"/><path fill="#629d29" d="M57,43h1v1h-1zM57,44h1v1h-1zM57,45h1v1h-1zM56,45h1v1h-1z"/><path fill="#000000" d="M58,43h1v1h-1z"/><path fill="#000000" d="M1,44h1v1h-1z"/><path fill="#eef283" d="M2,44h1v1h-1z"/><path fill="#96e04a" d="M3,44h1v1h-1z"/><path fill="#7bc241" d="M4,44h1v1h-1zM5,44h1v1h-1z"/><path fill="#72b036" d="M6,44h1v1h-1zM7,44h1v1h-1z"/><path fill="#629d29" d="M8,44h1v1h-1zM8,45h1v1h-1zM7,45h1v1h-1zM6,45h1v1h-1zM5,45h1v1h-1z"/><path fill="#298141" d="M9,44h1v1h-1zM9,45h1v1h-1zM9,46h1v1h-1zM8,46h1v1h-1zM7,46h1v1h-1zM6,46h1v1h-1zM5,46h1v1h-1z"/><path fill="#eef283" d="M17,44h1v1h-1z"/><path fill="#96e04a" d="M18,44h1v1h-1z"/><path fill="#7bc241" d="M19,44h1v1h-1z"/><path fill="#72b036" d="M20,44h1v1h-1z"/><path fill="#72b036" d="M24,44h1v1h-1z"/><path fill="#000000" d="M25,44h1v1h-1z"/><path fill="#96e04a" d="M28,44h1v1h-1zM28,45h1v1h-1z"/><path fill="#96e04a" d="M34,44h1v1h-1zM34,45h1v1h-1z"/><path fill="#7bc241" d="M35,44h1v1h-1zM35,45h1v1h-1z"/><path fill="#629d29" d="M36,44h1v1h-1zM36,45h1v1h-1zM36,46h1v1h-1zM36,47h1v1h-1zM36,48h1v1h-1z"/><path fill="#eef283" d="M40,44h1v1h-1z"/><path fill="#96e04a" d="M41,44h1v1h-1z"/><path fill="#72b036" d="M46,44h1v1h-1z"/><path fill="#298141" d="M47,44h1v1h-1z"/><path fill="#96e04a" d="M50,44h1v1h-1zM50,45h1v1h-1z"/><path fill="#7bc241" d="M51,44h1v1h-1zM51,45h1v1h-1zM51,46h1v1h-1zM50,46h1v1h-1zM50,47h1v1h-1zM50,48h1v1h-1zM50,49h1v1h-1zM50,50h1v1h-1zM50,51h1v1h-1zM52,45h1v1h-1zM52,44h1v1h-1z"/><path fill="#96e04a" d="M53,44h1v1h-1zM54,44h1v1h-1z"/><path fill="#7bc241" d="M55,44h1v1h-1z"/><path fill="#72b036" d="M56,44h1v1h-1z"/><path fill="#298141" d="M58,44h1v1h-1zM58,45h1v1h-1zM58,46h1v1h-1zM57,46h1v1h-1zM56,46h1v1h-1zM55,46h1v1h-1zM55,45h1v1h-1zM54,46h1v1h-1zM54,47h1v1h-1zM53,47h1v1h-1zM53,48h1v1h-1zM53,49h1v1h-1zM53,50h1v1h-1zM53,51h1v1h-1zM53,52h1v1h-1zM53,53h1v1h-1zM53,54h1v1h-1zM52,54h1v1h-1zM51,54h1v1h-1zM50,54h1v1h-1z"/><path fill="#000000" d="M59,44h1v1h-1zM59,45h1v1h-1zM59,46h1v1h-1z"/><path fill="#000000" d="M0,45h1v1h-1zM0,46h1v1h-1zM0,47h1v1h-1zM0,48h1v1h-1zM0,49h1v1h-1zM0,50h1v1h-1zM0,51h1v1h-1z"/><path fill="#eef283" d="M1,45h1v1h-1z"/><path fill="#96e04a" d="M2,45h1v1h-1z"/><path fill="#7bc241" d="M3,45h1v1h-1z"/><path fill="#72b036" d="M4,45h1v1h-1z"/><path fill="#eef283" d="M16,45h1v1h-1z"/><path fill="#96e04a" d="M17,45h1v1h-1z"/><path fill="#7bc241" d="M18,45h1v1h-1z"/><path fill="#72b036" d="M19,45h1v1h-1z"/><path fill="#629d29" d="M20,45h1v1h-1zM21,45h1v1h-1z"/><path fill="#72b036" d="M25,45h1v1h-1z"/><path fill="#eef283" d="M39,45h1v1h-1z"/><path fill="#96e04a" d="M40,45h1v1h-1z"/><path fill="#7bc241" d="M41,45h1v1h-1z"/><path fill="#629d29" d="M42,45h1v1h-1zM43,45h1v1h-1z"/><path fill="#72b036" d="M47,45h1v1h-1z"/><path fill="#298141" d="M48,45h1v1h-1zM48,46h1v1h-1zM48,47h1v1h-1zM48,48h1v1h-1zM47,48h1v1h-1zM47,49h1v1h-1zM46,49h1v1h-1zM45,49h1v1h-1zM44,49h1v1h-1zM43,49h1v1h-1z"/><path fill="#72b036" d="M53,45h1v1h-1z"/><path fill="#629d29" d="M54,45h1v1h-1z"/><path fill="#96e04a" d="M1,46h1v1h-1zM1,47h1v1h-1z"/><path fill="#7bc241" d="M2,46h1v1h-1zM2,47h1v1h-1z"/><path fill="#72b036" d="M3,46h1v1h-1z"/><path fill="#629d29" d="M4,46h1v1h-1z"/><path fill="#96e04a" d="M16,46h1v1h-1zM16,47h1v1h-1z"/><path fill="#7bc241" d="M17,46h1v1h-1zM17,47h1v1h-1z"/><path fill="#72b036" d="M18,46h1v1h-1z"/><path fill="#629d29" d="M19,46h1v1h-1z"/><path fill="#298141" d="M20,46h1v1h-1zM21,46h1v1h-1zM22,46h1v1h-1z"/><path fill="#72b036" d="M24,46h1v1h-1zM24,47h1v1h-1zM24,48h1v1h-1zM24,49h1v1h-1zM24,50h1v1h-1zM24,51h1v1h-1z"/><path fill="#629d29" d="M25,46h1v1h-1zM25,47h1v1h-1zM25,48h1v1h-1zM25,49h1v1h-1zM25,50h1v1h-1zM25,51h1v1h-1z"/><path fill="#7bc241" d="M34,46h1v1h-1zM34,47h1v1h-1z"/><path fill="#72b036" d="M35,46h1v1h-1zM35,47h1v1h-1zM35,48h1v1h-1z"/><path fill="#96e04a" d="M39,46h1v1h-1zM39,47h1v1h-1z"/><path fill="#7bc241" d="M40,46h1v1h-1zM40,47h1v1h-1zM40,48h1v1h-1zM40,49h1v1h-1zM40,50h1v1h-1zM40,51h1v1h-1zM41,51h1v1h-1zM41,50h1v1h-1zM41,49h1v1h-1zM41,48h1v1h-1zM41,47h1v1h-1zM42,47h1v1h-1zM43,47h1v1h-1zM42,50h1v1h-1zM42,51h1v1h-1zM43,51h1v1h-1zM44,51h1v1h-1zM39,49h1v1h-1zM39,48h1v1h-1z"/><path fill="#629d29" d="M41,46h1v1h-1z"/><path fill="#000000" d="M42,46h1v1h-1zM43,46h1v1h-1zM44,46h1v1h-1z"/><path fill="#96e04a" d="M45,46h1v1h-1z"/><path fill="#629d29" d="M47,46h1v1h-1zM47,47h1v1h-1z"/><path fill="#72b036" d="M52,46h1v1h-1z"/><path fill="#629d29" d="M53,46h1v1h-1z"/><path fill="#629d29" d="M3,47h1v1h-1zM3,48h1v1h-1zM3,49h1v1h-1z"/><path fill="#298141" d="M4,47h1v1h-1zM4,48h1v1h-1zM4,49h1v1h-1z"/><path fill="#629d29" d="M18,47h1v1h-1zM18,48h1v1h-1zM18,49h1v1h-1z"/><path fill="#298141" d="M19,47h1v1h-1zM19,48h1v1h-1zM19,49h1v1h-1z"/><path fill="#000000" d="M20,47h1v1h-1zM20,48h1v1h-1zM20,49h1v1h-1zM20,50h1v1h-1zM21,50h1v1h-1zM21,47h1v1h-1zM22,47h1v1h-1zM22,48h1v1h-1zM22,49h1v1h-1z"/><path fill="#298141" d="M26,47h1v1h-1zM26,48h1v1h-1zM26,49h1v1h-1zM26,50h1v1h-1zM26,51h1v1h-1zM26,52h1v1h-1zM25,52h1v1h-1zM25,53h1v1h-1zM24,53h1v1h-1zM24,54h1v1h-1zM23,54h1v1h-1zM22,54h1v1h-1zM21,54h1v1h-1zM20,54h1v1h-1zM19,54h1v1h-1zM18,54h1v1h-1z"/><path fill="#96e04a" d="M44,47h1v1h-1z"/><path fill="#eef283" d="M45,47h1v1h-1z"/><path fill="#72b036" d="M46,47h1v1h-1z"/><path fill="#72b036" d="M51,47h1v1h-1zM51,48h1v1h-1zM51,49h1v1h-1zM51,50h1v1h-1zM51,51h1v1h-1zM51,52h1v1h-1zM50,52h1v1h-1z"/><path fill="#629d29" d="M52,47h1v1h-1zM52,48h1v1h-1zM52,49h1v1h-1zM52,50h1v1h-1zM52,51h1v1h-1zM52,52h1v1h-1zM52,53h1v1h-1zM51,53h1v1h-1zM50,53h1v1h-1z"/><path fill="#000000" d="M55,47h1v1h-1zM56,47h1v1h-1zM57,47h1v1h-1zM58,47h1v1h-1z"/><path fill="#7bc241" d="M1,48h1v1h-1zM1,49h1v1h-1zM1,50h1v1h-1zM2,50h1v1h-1zM2,51h1v1h-1zM3,51h1v1h-1zM3,52h1v1h-1zM4,52h1v1h-1zM4,51h1v1h-1zM5,51h1v1h-1zM5,52h1v1h-1zM6,52h1v1h-1z"/><path fill="#72b036" d="M2,48h1v1h-1zM2,49h1v1h-1z"/><path fill="#7bc241" d="M16,48h1v1h-1zM16,49h1v1h-1zM16,50h1v1h-1zM17,50h1v1h-1zM17,49h1v1h-1zM17,51h1v1h-1zM18,51h1v1h-1zM18,50h1v1h-1zM19,51h1v1h-1zM20,51h1v1h-1z"/><path fill="#72b036" d="M17,48h1v1h-1z"/><path fill="#72b036" d="M28,48h1v1h-1z"/><path fill="#298141" d="M32,48h1v1h-1z"/><path fill="#96e04a" d="M34,48h1v1h-1zM34,49h1v1h-1z"/><path fill="#629d29" d="M42,48h1v1h-1zM43,48h1v1h-1zM44,48h1v1h-1zM45,48h1v1h-1zM46,48h1v1h-1z"/><path fill="#000000" d="M54,48h1v1h-1zM54,49h1v1h-1zM54,50h1v1h-1zM54,51h1v1h-1zM54,52h1v1h-1zM54,53h1v1h-1zM54,54h1v1h-1z"/><path fill="#96e04a" d="M23,49h1v1h-1zM23,50h1v1h-1z"/><path fill="#96e04a" d="M32,49h1v1h-1z"/><path fill="#eef283" d="M33,49h1v1h-1z"/><path fill="#629d29" d="M35,49h1v1h-1zM35,50h1v1h-1zM35,51h1v1h-1z"/><path fill="#000000" d="M42,49h1v1h-1z"/><path fill="#72b036" d="M3,50h1v1h-1z"/><path fill="#629d29" d="M4,50h1v1h-1z"/><path fill="#629d29" d="M19,50h1v1h-1z"/><path fill="#eef283" d="M22,50h1v1h-1z"/><path fill="#72b036" d="M29,50h1v1h-1z"/><path fill="#96e04a" d="M33,50h1v1h-1z"/><path fill="#7bc241" d="M34,50h1v1h-1z"/><path fill="#72b036" d="M39,50h1v1h-1zM39,51h1v1h-1z"/><path fill="#72b036" d="M1,51h1v1h-1z"/><path fill="#96e04a" d="M6,51h1v1h-1zM7,51h1v1h-1zM8,51h1v1h-1z"/><path fill="#72b036" d="M16,51h1v1h-1z"/><path fill="#96e04a" d="M21,51h1v1h-1zM22,51h1v1h-1z"/><path fill="#7bc241" d="M23,51h1v1h-1z"/><path fill="#000000" d="M29,51h1v1h-1zM29,52h1v1h-1z"/><path fill="#72b036" d="M34,51h1v1h-1z"/><path fill="#96e04a" d="M45,51h1v1h-1zM46,51h1v1h-1zM47,51h1v1h-1z"/><path fill="#298141" d="M48,51h1v1h-1zM48,52h1v1h-1zM48,53h1v1h-1zM47,53h1v1h-1zM47,54h1v1h-1zM46,54h1v1h-1zM45,54h1v1h-1zM44,54h1v1h-1zM43,54h1v1h-1zM42,54h1v1h-1zM41,54h1v1h-1z"/><path fill="#000000" d="M1,52h1v1h-1zM1,53h1v1h-1z"/><path fill="#72b036" d="M2,52h1v1h-1z"/><path fill="#72b036" d="M7,52h1v1h-1z"/><path fill="#629d29" d="M8,52h1v1h-1zM8,53h1v1h-1zM7,53h1v1h-1zM6,53h1v1h-1zM5,53h1v1h-1zM4,53h1v1h-1zM3,53h1v1h-1zM2,53h1v1h-1z"/><path fill="#298141" d="M9,52h1v1h-1zM9,53h1v1h-1zM9,54h1v1h-1zM8,54h1v1h-1zM7,54h1v1h-1zM6,54h1v1h-1zM5,54h1v1h-1zM4,54h1v1h-1zM3,54h1v1h-1z"/><path fill="#72b036" d="M17,52h1v1h-1zM18,52h1v1h-1zM19,52h1v1h-1zM20,52h1v1h-1zM21,52h1v1h-1zM22,52h1v1h-1zM23,52h1v1h-1z"/><path fill="#629d29" d="M24,52h1v1h-1z"/><path fill="#72b036" d="M30,52h1v1h-1zM31,52h1v1h-1zM32,52h1v1h-1zM33,52h1v1h-1z"/><path fill="#629d29" d="M34,52h1v1h-1z"/><path fill="#000000" d="M39,52h1v1h-1z"/><path fill="#72b036" d="M40,52h1v1h-1zM41,52h1v1h-1zM42,52h1v1h-1zM43,52h1v1h-1zM44,52h1v1h-1zM45,52h1v1h-1zM46,52h1v1h-1z"/><path fill="#629d29" d="M47,52h1v1h-1z"/><path fill="#298141" d="M17,53h1v1h-1z"/><path fill="#629d29" d="M18,53h1v1h-1zM19,53h1v1h-1zM20,53h1v1h-1zM21,53h1v1h-1zM22,53h1v1h-1zM23,53h1v1h-1z"/><path fill="#000000" d="M26,53h1v1h-1z"/><path fill="#000000" d="M30,53h1v1h-1zM30,54h1v1h-1z"/><path fill="#629d29" d="M31,53h1v1h-1zM32,53h1v1h-1zM33,53h1v1h-1z"/><path fill="#000000" d="M36,53h1v1h-1z"/><path fill="#000000" d="M40,53h1v1h-1zM40,54h1v1h-1z"/><path fill="#629d29" d="M41,53h1v1h-1zM42,53h1v1h-1zM43,53h1v1h-1zM44,53h1v1h-1zM45,53h1v1h-1zM46,53h1v1h-1z"/><path fill="#000000" d="M2,54h1v1h-1z"/><path fill="#000000" d="M17,54h1v1h-1z"/><path fill="#000000" d="M25,54h1v1h-1z"/><path fill="#000000" d="M35,54h1v1h-1z"/><path fill="#000000" d="M3,55h1v1h-1zM4,55h1v1h-1zM5,55h1v1h-1zM6,55h1v1h-1zM7,55h1v1h-1zM8,55h1v1h-1zM9,55h1v1h-1z"/><path fill="#000000" d="M11,55h1v1h-1zM12,55h1v1h-1zM13,55h1v1h-1zM14,55h1v1h-1z"/><path fill="#000000" d="M18,55h1v1h-1zM19,55h1v1h-1zM20,55h1v1h-1zM21,55h1v1h-1zM22,55h1v1h-1zM23,55h1v1h-1zM24,55h1v1h-1z"/><path fill="#000000" d="M31,55h1v1h-1zM32,55h1v1h-1zM33,55h1v1h-1zM34,55h1v1h-1z"/><path fill="#000000" d="M41,55h1v1h-1zM42,55h1v1h-1zM43,55h1v1h-1zM44,55h1v1h-1zM45,55h1v1h-1zM46,55h1v1h-1zM47,55h1v1h-1z"/><path fill="#000000" d="M50,55h1v1h-1zM51,55h1v1h-1zM52,55h1v1h-1zM53,55h1v1h-1z"/>
</svg>