<svg xmlns="http://www.w3.org/2000/svg" viewBox="0 0 64 60" shape-rendering="crispEdges">
<path fill="#363534" d="M25,0h1v1h-1zM26,0h1v1h-1zM27,0h1v1h-1zM28,0h1v1h-1z"/><path fill="#363534" d="M36,0h1v1h-1zM37,0h1v1h-1zM38,0h1v1h-1zM39,0h1v1h-1z"/><path fill="#363534" d="M24,1h1v1h-1z"/><path fill="#5a615a" d="M25,1h1v1h-1zM26,1h1v1h-1zM27,1h1v1h-1zM28,1h1v1h-1z"/><path fill="#363534" d="M29,1h1v1h-1z"/><path fill="#363534" d="M35,1h1v1h-1z"/><path fill="#5a615a" d="M36,1h1v1h-1zM37,1h1v1h-1zM38,1h1v1h-1zM39,1h1v1h-1z"/><path fill="#363534" d="M40,1h1v1h-1z"/><path fill="#363534" d="M23,2h1v1h-1z"/><path fill="#5a615a" d="M24,2h1v1h-1z"/><path fill="#000000" d="M25,2h1v1h-1zM26,2h1v1h-1zM27,2h1v1h-1zM28,2h1v1h-1z"/><path fill="#5a615a" d="M29,2h1v1h-1z"/><path fill="#363534" d="M30,2h1v1h-1z"/><path fill="#363534" d="M34,2h1v1h-1z"/><path fill="#5a615a" d="M35,2h1v1h-1z"/><path fill="#000000" d="M36,2h1v1h-1zM37,2h1v1h-1zM38,2h1v1h-1zM39,2h1v1h-1z"/><path fill="#5a615a" d="M40,2h1v1h-1z"/><path fill="#363534" d="M41,2h1v1h-1z"/><path fill="#363534" d="M22,3h1v1h-1z"/><path fill="#5a615a" d="M23,3h1v1h-1z"/><path fill="#000000" d="M24,3h1v1h-1z"/><path fill="#eef283" d="M25,3h1v1h-1zM26,3h1v1h-1zM27,3h1v1h-1z"/><path fill="#96e04a" d="M28,3h1v1h-1z"/><path fill="#000000" d="M29,3h1v1h-1z"/><path fill="#5a615a" d="M30,3h1v1h-1z"/><path fill="#363534" d="M31,3h1v1h-1z"/><path fill="#363534" d="M33,3h1v1h-1z"/><path fill="#5a615a" d="M34,3h1v1h-1z"/><path fill="#000000" d="M35,3h1v1h-1z"/><path fill="#eef283" d="M36,3h1v1h-1zM37,3h1v1h-1zM38,3h1v1h-1z"/><path fill="#96e04a" d="M39,3h1v1h-1z"/><path fill="#000000" d="M40,3h1v1h-1z"/><path fill="#5a615a" d="M41,3h1v1h-1z"/><path fill="#363534" d="M42,3h1v1h-1z"/><path fill="#363534" d="M21,4h1v1h-1z"/><path fill="#5a615a" d="M22,4h1v1h-1z"/><path fill="#000000" d="M23,4h1v1h-1z"/><path fill="#eef283" d="M24,4h1v1h-1z"/><path fill="#96e04a" d="M25,4h1v1h-1zM26,4h1v1h-1zM27,4h1v1h-1z"/><path fill="#7bc241" d="M28,4h1v1h-1zM28,5h1v1h-1zM28,6h1v1h-1zM28,7h1v1h-1zM28,8h1v1h-1zM28,9h1v1h-1zM27,9h1v1h-1zM27,8h1v1h-1zM27,7h1v1h-1zM27,6h1v1h-1zM27,5h1v1h-1zM26,5h1v1h-1zM26,6h1v1h-1zM26,7h1v1h-1zM26,8h1v1h-1zM26,9h1v1h-1zM26,10h1v1h-1zM27,10h1v1h-1zM27,11h1v1h-1zM25,8h1v1h-1zM25,7h1v1h-1zM25,6h1v1h-1zM25,5h1v1h-1zM24,6h1v1h-1zM24,7h1v1h-1zM29,4h1v1h-1z"/><path fill="#000000" d="M30,4h1v1h-1z"/><path fill="#5a615a" d="M31,4h1v1h-1z"/><path fill="#363534" d="M32,4h1v1h-1z"/><path fill="#5a615a" d="M33,4h1v1h-1z"/><path fill="#000000" d="M34,4h1v1h-1z"/><path fill="#eef283" d="M35,4h1v1h-1z"/><path fill="#96e04a" d="M36,4h1v1h-1zM37,4h1v1h-1zM38,4h1v1h-1z"/><path fill="#7bc241" d="M39,4h1v1h-1zM39,5h1v1h-1zM38,5h1v1h-1zM38,6h1v1h-1zM37,6h1v1h-1zM37,5h1v1h-1zM36,5h1v1h-1zM36,6h1v1h-1zM36,7h1v1h-1zM36,8h1v1h-1zM36,9h1v1h-1zM35,9h1v1h-1zM35,8h1v1h-1zM35,7h1v1h-1zM34,8h1v1h-1zM34,9h1v1h-1zM34,10h1v1h-1zM34,11h1v1h-1zM33,11h1v1h-1zM33,10h1v1h-1zM33,9h1v1h-1zM33,12h1v1h-1zM35,10h1v1h-1zM37,7h1v1h-1zM40,4h1v1h-1z"/><path fill="#000000" d="M41,4h1v1h-1z"/><path fill="#5a615a" d="M42,4h1v1h-1z"/><path fill="#363534" d="M43,4h1v1h-1z"/><path fill="#363534" d="M20,5h1v1h-1z"/><path fill="#5a615a" d="M21,5h1v1h-1zM21,6h1v1h-1zM20,6h1v1h-1z"/><path fill="#000000" d="M22,5h1v1h-1zM22,6h1v1h-1zM22,7h1v1h-1zM21,7h1v1h-1zM20,7h1v1h-1z"/><path fill="#eef283" d="M23,5h1v1h-1z"/><path fill="#96e04a" d="M24,5h1v1h-1z"/><path fill="#72b036" d="M29,5h1v1h-1zM29,6h1v1h-1zM29,7h1v1h-1zM29,8h1v1h-1zM29,9h1v1h-1z"/><path fill="#629d29" d="M30,5h1v1h-1zM30,6h1v1h-1zM30,7h1v1h-1zM30,8h1v1h-1zM30,9h1v1h-1zM30,10h1v1h-1zM30,11h1v1h-1zM30,12h1v1h-1zM30,13h1v1h-1zM29,13h1v1h-1zM29,12h1v1h-1zM29,11h1v1h-1zM29,10h1v1h-1zM28,12h1v1h-1zM31,8h1v1h-1zM31,7h1v1h-1z"/><path fill="#000000" d="M31,5h1v1h-1zM31,6h1v1h-1z"/><path fill="#5a615a" d="M32,5h1v1h-1zM32,6h1v1h-1z"/><path fill="#000000" d="M33,5h1v1h-1zM33,6h1v1h-1z"/><path fill="#eef283" d="M34,5h1v1h-1zM34,6h1v1h-1z"/><path fill="#96e04a" d="M35,5h1v1h-1zM35,6h1v1h-1z"/><path fill="#72b036" d="M40,5h1v1h-1z"/><path fill="#629d29" d="M41,5h1v1h-1zM41,6h1v1h-1zM41,7h1v1h-1zM40,7h1v1h-1zM40,6h1v1h-1zM40,8h1v1h-1zM39,8h1v1h-1zM39,7h1v1h-1zM39,9h1v1h-1zM38,9h1v1h-1zM38,8h1v1h-1zM38,10h1v1h-1zM37,10h1v1h-1zM37,11h1v1h-1zM36,11h1v1h-1zM36,12h1v1h-1zM35,12h1v1h-1zM35,13h1v1h-1zM34,13h1v1h-1z"/><path fill="#000000" d="M42,5h1v1h-1zM42,6h1v1h-1zM42,7h1v1h-1zM43,7h1v1h-1zM44,7h1v1h-1z"/><path fill="#5a615a" d="M43,5h1v1h-1zM43,6h1v1h-1zM44,6h1v1h-1z"/><path fill="#363534" d="M44,5h1v1h-1z"/><path fill="#363534" d="M19,6h1v1h-1z"/><path fill="#96e04a" d="M23,6h1v1h-1zM23,7h1v1h-1z"/><path fill="#72b036" d="M39,6h1v1h-1z"/><path fill="#363534" d="M45,6h1v1h-1z"/><path fill="#363534" d="M18,7h1v1h-1z"/><path fill="#5a615a" d="M19,7h1v1h-1z"/><path fill="#000000" d="M32,7h1v1h-1zM32,8h1v1h-1zM32,9h1v1h-1zM32,10h1v1h-1zM32,11h1v1h-1zM32,12h1v1h-1zM32,13h1v1h-1zM32,14h1v1h-1zM32,15h1v1h-1zM32,16h1v1h-1zM32,17h1v1h-1zM32,18h1v1h-1zM32,19h1v1h-1zM32,20h1v1h-1zM32,21h1v1h-1zM32,22h1v1h-1zM32,23h1v1h-1zM32,24h1v1h-1zM32,25h1v1h-1zM32,26h1v1h-1zM32,27h1v1h-1zM31,18h1v1h-1zM31,17h1v1h-1zM31,16h1v1h-1zM30,17h1v1h-1zM29,17h1v1h-1zM28,17h1v1h-1zM27,17h1v1h-1zM26,17h1v1h-1zM25,17h1v1h-1zM25,16h1v1h-1zM24,17h1v1h-1zM23,17h1v1h-1zM22,17h1v1h-1zM33,18h1v1h-1zM33,17h1v1h-1zM33,16h1v1h-1zM34,17h1v1h-1zM35,17h1v1h-1zM36,17h1v1h-1zM37,17h1v1h-1zM38,17h1v1h-1zM39,17h1v1h-1zM39,16h1v1h-1zM40,17h1v1h-1zM41,17h1v1h-1zM42,17h1v1h-1z"/><path fill="#eef283" d="M33,7h1v1h-1z"/><path fill="#96e04a" d="M34,7h1v1h-1z"/><path fill="#72b036" d="M38,7h1v1h-1z"/><path fill="#5a615a" d="M45,7h1v1h-1z"/><path fill="#363534" d="M46,7h1v1h-1z"/><path fill="#363534" d="M17,8h1v1h-1z"/><path fill="#5a615a" d="M18,8h1v1h-1z"/><path fill="#000000" d="M19,8h1v1h-1z"/><path fill="#eef283" d="M20,8h1v1h-1zM21,8h1v1h-1zM22,8h1v1h-1z"/><path fill="#000000" d="M23,8h1v1h-1z"/><path fill="#96e04a" d="M24,8h1v1h-1z"/><path fill="#96e04a" d="M33,8h1v1h-1z"/><path fill="#72b036" d="M37,8h1v1h-1zM37,9h1v1h-1z"/><path fill="#000000" d="M41,8h1v1h-1z"/><path fill="#eef283" d="M42,8h1v1h-1zM43,8h1v1h-1z"/><path fill="#96e04a" d="M44,8h1v1h-1z"/><path fill="#000000" d="M45,8h1v1h-1z"/><path fill="#5a615a" d="M46,8h1v1h-1z"/><path fill="#363534" d="M47,8h1v1h-1z"/><path fill="#363534" d="M16,9h1v1h-1z"/><path fill="#5a615a" d="M17,9h1v1h-1z"/><path fill="#000000" d="M18,9h1v1h-1z"/><path fill="#eef283" d="M19,9h1v1h-1z"/><path fill="#96e04a" d="M20,9h1v1h-1zM21,9h1v1h-1zM22,9h1v1h-1z"/><path fill="#eef283" d="M23,9h1v1h-1z"/><path fill="#000000" d="M24,9h1v1h-1z"/><path fill="#96e04a" d="M25,9h1v1h-1z"/><path fill="#298141" d="M31,9h1v1h-1zM31,10h1v1h-1zM31,11h1v1h-1zM31,12h1v1h-1zM31,13h1v1h-1zM31,14h1v1h-1zM31,15h1v1h-1zM30,14h1v1h-1z"/><path fill="#000000" d="M40,9h1v1h-1z"/><path fill="#eef283" d="M41,9h1v1h-1z"/><path fill="#96e04a" d="M42,9h1v1h-1zM43,9h1v1h-1z"/><path fill="#7bc241" d="M44,9h1v1h-1zM44,10h1v1h-1zM44,11h1v1h-1zM43,11h1v1h-1zM43,10h1v1h-1zM42,10h1v1h-1zM42,11h1v1h-1zM42,12h1v1h-1zM41,12h1v1h-1zM41,11h1v1h-1zM40,12h1v1h-1zM40,13h1v1h-1zM39,13h1v1h-1zM38,13h1v1h-1zM38,14h1v1h-1zM37,14h1v1h-1zM36,14h1v1h-1zM45,10h1v1h-1zM46,10h1v1h-1z"/><path fill="#96e04a" d="M45,9h1v1h-1z"/><path fill="#000000" d="M46,9h1v1h-1z"/><path fill="#5a615a" d="M47,9h1v1h-1z"/><path fill="#363534" d="M48,9h1v1h-1z"/><path fill="#363534" d="M15,10h1v1h-1zM15,11h1v1h-1zM15,12h1v1h-1zM15,13h1v1h-1z"/><path fill="#5a615a" d="M16,10h1v1h-1zM16,11h1v1h-1zM16,12h1v1h-1zM16,13h1v1h-1z"/><path fill="#000000" d="M17,10h1v1h-1zM17,11h1v1h-1zM17,12h1v1h-1zM17,13h1v1h-1z"/><path fill="#eef283" d="M18,10h1v1h-1zM18,11h1v1h-1zM18,12h1v1h-1z"/><path fill="#96e04a" d="M19,10h1v1h-1zM19,11h1v1h-1zM19,12h1v1h-1z"/><path fill="#7bc241" d="M20,10h1v1h-1zM20,11h1v1h-1zM20,12h1v1h-1zM20,13h1v1h-1zM20,14h1v1h-1zM20,15h1v1h-1zM21,15h1v1h-1zM21,14h1v1h-1zM21,13h1v1h-1zM21,12h1v1h-1zM21,11h1v1h-1zM21,10h1v1h-1zM22,10h1v1h-1zM22,11h1v1h-1zM22,12h1v1h-1zM22,13h1v1h-1zM22,14h1v1h-1zM23,13h1v1h-1zM23,12h1v1h-1zM23,11h1v1h-1zM24,11h1v1h-1zM24,12h1v1h-1zM24,13h1v1h-1zM25,13h1v1h-1zM25,12h1v1h-1zM26,12h1v1h-1zM19,13h1v1h-1z"/><path fill="#96e04a" d="M23,10h1v1h-1zM24,10h1v1h-1z"/><path fill="#000000" d="M25,10h1v1h-1z"/><path fill="#72b036" d="M28,10h1v1h-1zM28,11h1v1h-1z"/><path fill="#72b036" d="M36,10h1v1h-1z"/><path fill="#000000" d="M39,10h1v1h-1z"/><path fill="#eef283" d="M40,10h1v1h-1z"/><path fill="#96e04a" d="M41,10h1v1h-1z"/><path fill="#000000" d="M47,10h1v1h-1zM47,11h1v1h-1zM47,12h1v1h-1zM47,13h1v1h-1z"/><path fill="#5a615a" d="M48,10h1v1h-1zM48,11h1v1h-1zM48,12h1v1h-1zM48,13h1v1h-1z"/><path fill="#363534" d="M49,10h1v1h-1zM49,11h1v1h-1zM49,12h1v1h-1zM49,13h1v1h-1z"/><path fill="#96e04a" d="M25,11h1v1h-1z"/><path fill="#000000" d="M26,11h1v1h-1z"/><path fill="#72b036" d="M35,11h1v1h-1z"/><path fill="#000000" d="M38,11h1v1h-1z"/><path fill="#eef283" d="M39,11h1v1h-1z"/><path fill="#96e04a" d="M40,11h1v1h-1z"/><path fill="#72b036" d="M45,11h1v1h-1zM46,11h1v1h-1z"/><path fill="#000000" d="M27,12h1v1h-1z"/><path fill="#72b036" d="M34,12h1v1h-1z"/><path fill="#000000" d="M37,12h1v1h-1z"/><path fill="#96e04a" d="M38,12h1v1h-1zM39,12h1v1h-1z"/><path fill="#72b036" d="M43,12h1v1h-1zM44,12h1v1h-1z"/><path fill="#629d29" d="M45,12h1v1h-1zM45,13h1v1h-1zM44,13h1v1h-1zM44,14h1v1h-1zM43,14h1v1h-1zM43,13h1v1h-1zM42,14h1v1h-1zM42,15h1v1h-1zM41,15h1v1h-1zM41,14h1v1h-1zM40,15h1v1h-1zM40,16h1v1h-1zM39,15h1v1h-1zM46,12h1v1h-1z"/><path fill="#96e04a" d="M18,13h1v1h-1z"/><path fill="#72b036" d="M26,13h1v1h-1z"/><path fill="#629d29" d="M27,13h1v1h-1zM27,14h1v1h-1zM27,15h1v1h-1zM26,15h1v1h-1zM26,14h1v1h-1zM25,15h1v1h-1zM24,15h1v1h-1zM23,15h1v1h-1zM23,16h1v1h-1zM22,16h1v1h-1zM28,14h1v1h-1z"/><path fill="#000000" d="M28,13h1v1h-1z"/><path fill="#298141" d="M33,13h1v1h-1zM33,14h1v1h-1zM33,15h1v1h-1zM34,14h1v1h-1z"/><path fill="#000000" d="M36,13h1v1h-1z"/><path fill="#96e04a" d="M37,13h1v1h-1z"/><path fill="#72b036" d="M41,13h1v1h-1zM42,13h1v1h-1z"/><path fill="#298141" d="M46,13h1v1h-1z"/><path fill="#363534" d="M16,14h1v1h-1z"/><path fill="#5a615a" d="M17,14h1v1h-1z"/><path fill="#000000" d="M18,14h1v1h-1z"/><path fill="#96e04a" d="M19,14h1v1h-1z"/><path fill="#72b036" d="M23,14h1v1h-1zM24,14h1v1h-1zM25,14h1v1h-1z"/><path fill="#000000" d="M29,14h1v1h-1z"/><path fill="#000000" d="M35,14h1v1h-1z"/><path fill="#72b036" d="M39,14h1v1h-1zM40,14h1v1h-1z"/><path fill="#298141" d="M45,14h1v1h-1z"/><path fill="#000000" d="M46,14h1v1h-1z"/><path fill="#5a615a" d="M47,14h1v1h-1z"/><path fill="#363534" d="M48,14h1v1h-1z"/><path fill="#363534" d="M17,15h1v1h-1z"/><path fill="#5a615a" d="M18,15h1v1h-1z"/><path fill="#000000" d="M19,15h1v1h-1z"/><path fill="#72b036" d="M22,15h1v1h-1z"/><path fill="#298141" d="M28,15h1v1h-1zM28,16h1v1h-1zM27,16h1v1h-1zM26,16h1v1h-1zM29,16h1v1h-1zM29,15h1v1h-1zM30,16h1v1h-1z"/><path fill="#000000" d="M30,15h1v1h-1z"/><path fill="#000000" d="M34,15h1v1h-1z"/><path fill="#298141" d="M35,15h1v1h-1zM35,16h1v1h-1zM34,16h1v1h-1zM36,16h1v1h-1z"/><path fill="#72b036" d="M36,15h1v1h-1zM37,15h1v1h-1zM38,15h1v1h-1z"/><path fill="#298141" d="M43,15h1v1h-1zM44,15h1v1h-1z"/><path fill="#000000" d="M45,15h1v1h-1z"/><path fill="#5a615a" d="M46,15h1v1h-1z"/><path fill="#363534" d="M47,15h1v1h-1z"/><path fill="#363534" d="M18,16h1v1h-1z"/><path fill="#5a615a" d="M19,16h1v1h-1z"/><path fill="#000000" d="M20,16h1v1h-1zM21,16h1v1h-1z"/><path fill="#298141" d="M24,16h1v1h-1z"/><path fill="#629d29" d="M37,16h1v1h-1zM38,16h1v1h-1z"/><path fill="#298141" d="M41,16h1v1h-1zM42,16h1v1h-1z"/><path fill="#000000" d="M43,16h1v1h-1zM44,16h1v1h-1z"/><path fill="#5a615a" d="M45,16h1v1h-1z"/><path fill="#363534" d="M46,16h1v1h-1z"/><path fill="#363534" d="M19,17h1v1h-1z"/><path fill="#5a615a" d="M20,17h1v1h-1zM21,17h1v1h-1z"/><path fill="#5a615a" d="M43,17h1v1h-1zM44,17h1v1h-1z"/><path fill="#363534" d="M45,17h1v1h-1z"/><path fill="#363534" d="M18,18h1v1h-1z"/><path fill="#5a615a" d="M19,18h1v1h-1z"/><path fill="#000000" d="M20,18h1v1h-1zM21,18h1v1h-1z"/><path fill="#eef283" d="M22,18h1v1h-1zM23,18h1v1h-1z"/><path fill="#96e04a" d="M24,18h1v1h-1z"/><path fill="#7bc241" d="M25,18h1v1h-1zM25,19h1v1h-1zM24,19h1v1h-1zM24,20h1v1h-1zM23,20h1v1h-1zM23,21h1v1h-1zM22,21h1v1h-1zM22,20h1v1h-1zM22,22h1v1h-1zM21,22h1v1h-1zM21,21h1v1h-1zM20,21h1v1h-1zM20,22h1v1h-1zM20,23h1v1h-1zM20,24h1v1h-1zM19,24h1v1h-1zM19,25h1v1h-1zM21,23h1v1h-1zM26,18h1v1h-1z"/><path fill="#72b036" d="M27,18h1v1h-1z"/><path fill="#629d29" d="M28,18h1v1h-1zM28,19h1v1h-1zM27,19h1v1h-1zM27,20h1v1h-1zM27,21h1v1h-1zM26,21h1v1h-1zM26,20h1v1h-1zM26,22h1v1h-1zM25,22h1v1h-1zM25,21h1v1h-1zM25,23h1v1h-1zM24,23h1v1h-1zM24,24h1v1h-1zM23,24h1v1h-1zM23,25h1v1h-1zM22,25h1v1h-1zM22,26h1v1h-1zM21,26h1v1h-1zM20,26h1v1h-1z"/><path fill="#298141" d="M29,18h1v1h-1zM29,19h1v1h-1zM30,18h1v1h-1z"/><path fill="#298141" d="M34,18h1v1h-1z"/><path fill="#7bc241" d="M35,18h1v1h-1zM35,19h1v1h-1zM36,19h1v1h-1zM36,18h1v1h-1zM36,20h1v1h-1zM37,20h1v1h-1zM37,19h1v1h-1zM38,19h1v1h-1zM38,20h1v1h-1zM38,21h1v1h-1zM38,22h1v1h-1zM39,22h1v1h-1zM39,21h1v1h-1zM39,20h1v1h-1zM40,20h1v1h-1zM40,21h1v1h-1zM40,22h1v1h-1zM41,22h1v1h-1zM41,21h1v1h-1zM41,20h1v1h-1zM42,20h1v1h-1zM42,21h1v1h-1zM43,21h1v1h-1zM37,21h1v1h-1z"/><path fill="#96e04a" d="M37,18h1v1h-1zM38,18h1v1h-1z"/><path fill="#eef283" d="M39,18h1v1h-1zM40,18h1v1h-1zM41,18h1v1h-1zM42,18h1v1h-1z"/><path fill="#000000" d="M43,18h1v1h-1zM44,18h1v1h-1z"/><path fill="#5a615a" d="M45,18h1v1h-1z"/><path fill="#363534" d="M46,18h1v1h-1z"/><path fill="#363534" d="M17,19h1v1h-1z"/><path fill="#5a615a" d="M18,19h1v1h-1z"/><path fill="#000000" d="M19,19h1v1h-1z"/><path fill="#eef283" d="M20,19h1v1h-1zM21,19h1v1h-1z"/><path fill="#96e04a" d="M22,19h1v1h-1zM23,19h1v1h-1z"/><path fill="#72b036" d="M26,19h1v1h-1z"/><path fill="#000000" d="M30,19h1v1h-1z"/><path fill="#298141" d="M31,19h1v1h-1zM31,20h1v1h-1zM31,21h1v1h-1zM31,22h1v1h-1zM31,23h1v1h-1zM31,24h1v1h-1zM31,25h1v1h-1zM31,26h1v1h-1zM31,27h1v1h-1zM30,27h1v1h-1zM30,28h1v1h-1zM30,29h1v1h-1zM29,29h1v1h-1zM29,30h1v1h-1zM28,30h1v1h-1zM28,31h1v1h-1zM27,31h1v1h-1z"/><path fill="#298141" d="M33,19h1v1h-1zM33,20h1v1h-1z"/><path fill="#000000" d="M34,19h1v1h-1z"/><path fill="#96e04a" d="M39,19h1v1h-1zM40,19h1v1h-1zM41,19h1v1h-1zM42,19h1v1h-1z"/><path fill="#eef283" d="M43,19h1v1h-1zM44,19h1v1h-1z"/><path fill="#000000" d="M45,19h1v1h-1z"/><path fill="#5a615a" d="M46,19h1v1h-1z"/><path fill="#363534" d="M47,19h1v1h-1z"/><path fill="#363534" d="M16,20h1v1h-1z"/><path fill="#5a615a" d="M17,20h1v1h-1z"/><path fill="#000000" d="M18,20h1v1h-1z"/><path fill="#eef283" d="M19,20h1v1h-1z"/><path fill="#96e04a" d="M20,20h1v1h-1zM21,20h1v1h-1z"/><path fill="#72b036" d="M25,20h1v1h-1z"/><path fill="#298141" d="M28,20h1v1h-1z"/><path fill="#000000" d="M29,20h1v1h-1z"/><path fill="#7bc241" d="M30,20h1v1h-1zM30,21h1v1h-1zM30,22h1v1h-1zM30,23h1v1h-1zM29,23h1v1h-1zM29,24h1v1h-1zM29,25h1v1h-1zM29,26h1v1h-1zM28,26h1v1h-1zM28,25h1v1h-1zM28,24h1v1h-1zM27,25h1v1h-1zM27,26h1v1h-1zM27,27h1v1h-1zM27,28h1v1h-1zM26,28h1v1h-1zM26,27h1v1h-1zM26,26h1v1h-1zM25,27h1v1h-1zM25,28h1v1h-1zM28,27h1v1h-1z"/><path fill="#7bc241" d="M34,20h1v1h-1zM34,21h1v1h-1zM34,22h1v1h-1zM35,22h1v1h-1zM35,21h1v1h-1zM35,23h1v1h-1zM35,24h1v1h-1zM35,25h1v1h-1zM35,26h1v1h-1zM35,27h1v1h-1zM36,27h1v1h-1zM36,26h1v1h-1zM36,25h1v1h-1zM36,24h1v1h-1zM36,23h1v1h-1zM36,22h1v1h-1zM37,23h1v1h-1zM37,24h1v1h-1zM37,25h1v1h-1zM37,26h1v1h-1zM37,27h1v1h-1zM37,28h1v1h-1zM36,28h1v1h-1zM38,28h1v1h-1zM38,27h1v1h-1zM38,26h1v1h-1zM38,25h1v1h-1zM38,24h1v1h-1zM39,25h1v1h-1zM39,26h1v1h-1zM39,27h1v1h-1zM33,21h1v1h-1z"/><path fill="#000000" d="M35,20h1v1h-1z"/><path fill="#96e04a" d="M43,20h1v1h-1zM44,20h1v1h-1z"/><path fill="#72b036" d="M45,20h1v1h-1z"/><path fill="#000000" d="M46,20h1v1h-1z"/><path fill="#5a615a" d="M47,20h1v1h-1z"/><path fill="#363534" d="M48,20h1v1h-1z"/><path fill="#363534" d="M15,21h1v1h-1zM15,22h1v1h-1zM15,23h1v1h-1zM15,24h1v1h-1z"/><path fill="#5a615a" d="M16,21h1v1h-1zM16,22h1v1h-1zM16,23h1v1h-1zM16,24h1v1h-1z"/><path fill="#000000" d="M17,21h1v1h-1zM17,22h1v1h-1zM17,23h1v1h-1zM17,24h1v1h-1z"/><path fill="#eef283" d="M18,21h1v1h-1zM18,22h1v1h-1zM18,23h1v1h-1z"/><path fill="#96e04a" d="M19,21h1v1h-1zM19,22h1v1h-1zM19,23h1v1h-1z"/><path fill="#72b036" d="M24,21h1v1h-1zM24,22h1v1h-1zM23,22h1v1h-1zM23,23h1v1h-1zM22,23h1v1h-1zM22,24h1v1h-1zM21,24h1v1h-1zM21,25h1v1h-1zM20,25h1v1h-1z"/><path fill="#000000" d="M28,21h1v1h-1z"/><path fill="#96e04a" d="M29,21h1v1h-1zM29,22h1v1h-1z"/><path fill="#000000" d="M36,21h1v1h-1z"/><path fill="#72b036" d="M44,21h1v1h-1z"/><path fill="#629d29" d="M45,21h1v1h-1zM45,22h1v1h-1zM45,23h1v1h-1zM45,24h1v1h-1zM44,24h1v1h-1zM44,23h1v1h-1zM44,22h1v1h-1zM43,23h1v1h-1zM43,24h1v1h-1zM43,25h1v1h-1zM42,25h1v1h-1zM42,24h1v1h-1zM42,26h1v1h-1zM41,25h1v1h-1zM44,25h1v1h-1zM46,21h1v1h-1z"/><path fill="#000000" d="M47,21h1v1h-1zM47,22h1v1h-1zM47,23h1v1h-1zM47,24h1v1h-1z"/><path fill="#5a615a" d="M48,21h1v1h-1zM48,22h1v1h-1zM48,23h1v1h-1zM48,24h1v1h-1z"/><path fill="#363534" d="M49,21h1v1h-1zM49,22h1v1h-1zM49,23h1v1h-1zM49,24h1v1h-1z"/><path fill="#000000" d="M27,22h1v1h-1z"/><path fill="#eef283" d="M28,22h1v1h-1z"/><path fill="#96e04a" d="M33,22h1v1h-1z"/><path fill="#000000" d="M37,22h1v1h-1z"/><path fill="#72b036" d="M42,22h1v1h-1zM42,23h1v1h-1zM41,23h1v1h-1zM41,24h1v1h-1zM40,24h1v1h-1zM40,23h1v1h-1zM39,23h1v1h-1zM43,22h1v1h-1z"/><path fill="#298141" d="M46,22h1v1h-1zM46,23h1v1h-1zM46,24h1v1h-1z"/><path fill="#000000" d="M26,23h1v1h-1z"/><path fill="#eef283" d="M27,23h1v1h-1z"/><path fill="#96e04a" d="M28,23h1v1h-1z"/><path fill="#eef283" d="M33,23h1v1h-1zM33,24h1v1h-1zM33,25h1v1h-1zM33,26h1v1h-1z"/><path fill="#96e04a" d="M34,23h1v1h-1zM34,24h1v1h-1zM34,25h1v1h-1zM34,26h1v1h-1z"/><path fill="#000000" d="M38,23h1v1h-1z"/><path fill="#96e04a" d="M18,24h1v1h-1z"/><path fill="#000000" d="M25,24h1v1h-1z"/><path fill="#eef283" d="M26,24h1v1h-1z"/><path fill="#96e04a" d="M27,24h1v1h-1z"/><path fill="#72b036" d="M30,24h1v1h-1zM30,25h1v1h-1zM30,26h1v1h-1z"/><path fill="#000000" d="M39,24h1v1h-1z"/><path fill="#363534" d="M16,25h1v1h-1z"/><path fill="#5a615a" d="M17,25h1v1h-1z"/><path fill="#000000" d="M18,25h1v1h-1z"/><path fill="#000000" d="M24,25h1v1h-1z"/><path fill="#eef283" d="M25,25h1v1h-1z"/><path fill="#96e04a" d="M26,25h1v1h-1z"/><path fill="#000000" d="M40,25h1v1h-1z"/><path fill="#298141" d="M45,25h1v1h-1z"/><path fill="#000000" d="M46,25h1v1h-1z"/><path fill="#5a615a" d="M47,25h1v1h-1z"/><path fill="#363534" d="M48,25h1v1h-1z"/><path fill="#363534" d="M17,26h1v1h-1z"/><path fill="#5a615a" d="M18,26h1v1h-1z"/><path fill="#000000" d="M19,26h1v1h-1z"/><path fill="#000000" d="M23,26h1v1h-1z"/><path fill="#eef283" d="M24,26h1v1h-1z"/><path fill="#96e04a" d="M25,26h1v1h-1z"/><path fill="#72b036" d="M40,26h1v1h-1zM40,27h1v1h-1z"/><path fill="#000000" d="M41,26h1v1h-1z"/><path fill="#298141" d="M43,26h1v1h-1zM44,26h1v1h-1z"/><path fill="#000000" d="M45,26h1v1h-1z"/><path fill="#5a615a" d="M46,26h1v1h-1z"/><path fill="#363534" d="M47,26h1v1h-1z"/><path fill="#363534" d="M18,27h1v1h-1z"/><path fill="#5a615a" d="M19,27h1v1h-1z"/><path fill="#000000" d="M20,27h1v1h-1zM21,27h1v1h-1zM22,27h1v1h-1zM22,28h1v1h-1zM22,29h1v1h-1z"/><path fill="#eef283" d="M23,27h1v1h-1z"/><path fill="#96e04a" d="M24,27h1v1h-1zM24,28h1v1h-1z"/><path fill="#72b036" d="M29,27h1v1h-1z"/><path fill="#629d29" d="M33,27h1v1h-1z"/><path fill="#72b036" d="M34,27h1v1h-1z"/><path fill="#629d29" d="M41,27h1v1h-1z"/><path fill="#000000" d="M42,27h1v1h-1zM42,28h1v1h-1zM42,29h1v1h-1zM43,27h1v1h-1zM44,27h1v1h-1z"/><path fill="#5a615a" d="M45,27h1v1h-1z"/><path fill="#363534" d="M46,27h1v1h-1z"/><path fill="#363534" d="M19,28h1v1h-1z"/><path fill="#5a615a" d="M20,28h1v1h-1zM21,28h1v1h-1zM21,29h1v1h-1z"/><path fill="#629d29" d="M23,28h1v1h-1zM23,29h1v1h-1z"/><path fill="#72b036" d="M28,28h1v1h-1z"/><path fill="#629d29" d="M29,28h1v1h-1z"/><path fill="#000000" d="M31,28h1v1h-1zM31,29h1v1h-1zM31,30h1v1h-1zM31,31h1v1h-1zM31,32h1v1h-1zM30,30h1v1h-1z"/><path fill="#629d29" d="M32,28h1v1h-1zM32,29h1v1h-1zM32,30h1v1h-1zM32,31h1v1h-1zM32,32h1v1h-1z"/><path fill="#000000" d="M33,28h1v1h-1zM33,29h1v1h-1zM33,30h1v1h-1zM33,31h1v1h-1zM33,32h1v1h-1zM33,33h1v1h-1zM33,34h1v1h-1zM34,30h1v1h-1z"/><path fill="#629d29" d="M34,28h1v1h-1zM34,29h1v1h-1zM35,29h1v1h-1zM35,30h1v1h-1zM36,30h1v1h-1zM36,31h1v1h-1zM37,30h1v1h-1zM38,30h1v1h-1zM39,30h1v1h-1zM39,29h1v1h-1zM40,29h1v1h-1zM40,28h1v1h-1z"/><path fill="#72b036" d="M35,28h1v1h-1z"/><path fill="#72b036" d="M39,28h1v1h-1z"/><path fill="#298141" d="M41,28h1v1h-1zM41,29h1v1h-1z"/><path fill="#5a615a" d="M43,28h1v1h-1zM43,29h1v1h-1zM44,28h1v1h-1z"/><path fill="#363534" d="M45,28h1v1h-1z"/><path fill="#363534" d="M20,29h1v1h-1z"/><path fill="#72b036" d="M24,29h1v1h-1zM25,29h1v1h-1zM26,29h1v1h-1zM27,29h1v1h-1z"/><path fill="#629d29" d="M28,29h1v1h-1z"/><path fill="#72b036" d="M36,29h1v1h-1zM37,29h1v1h-1zM38,29h1v1h-1z"/><path fill="#363534" d="M44,29h1v1h-1z"/><path fill="#363534" d="M21,30h1v1h-1z"/><path fill="#5a615a" d="M22,30h1v1h-1z"/><path fill="#000000" d="M23,30h1v1h-1z"/><path fill="#629d29" d="M24,30h1v1h-1zM25,30h1v1h-1zM25,31h1v1h-1zM26,31h1v1h-1zM26,30h1v1h-1zM27,30h1v1h-1z"/><path fill="#298141" d="M40,30h1v1h-1z"/><path fill="#000000" d="M41,30h1v1h-1z"/><path fill="#5a615a" d="M42,30h1v1h-1z"/><path fill="#363534" d="M43,30h1v1h-1z"/><path fill="#363534" d="M22,31h1v1h-1z"/><path fill="#5a615a" d="M23,31h1v1h-1z"/><path fill="#000000" d="M24,31h1v1h-1z"/><path fill="#000000" d="M29,31h1v1h-1z"/><path fill="#5a615a" d="M30,31h1v1h-1zM30,32h1v1h-1zM29,32h1v1h-1zM29,33h1v1h-1zM28,33h1v1h-1zM28,34h1v1h-1zM28,35h1v1h-1zM27,33h1v1h-1zM26,33h1v1h-1zM25,33h1v1h-1z"/><path fill="#5a615a" d="M34,31h1v1h-1zM34,32h1v1h-1zM34,33h1v1h-1zM34,34h1v1h-1zM35,32h1v1h-1z"/><path fill="#000000" d="M35,31h1v1h-1z"/><path fill="#298141" d="M37,31h1v1h-1zM38,31h1v1h-1zM39,31h1v1h-1z"/><path fill="#000000" d="M40,31h1v1h-1z"/><path fill="#5a615a" d="M41,31h1v1h-1z"/><path fill="#363534" d="M42,31h1v1h-1z"/><path fill="#363534" d="M23,32h1v1h-1z"/><path fill="#5a615a" d="M24,32h1v1h-1z"/><path fill="#000000" d="M25,32h1v1h-1zM26,32h1v1h-1zM27,32h1v1h-1zM28,32h1v1h-1z"/><path fill="#000000" d="M36,32h1v1h-1zM37,32h1v1h-1zM38,32h1v1h-1zM39,32h1v1h-1z"/><path fill="#5a615a" d="M40,32h1v1h-1z"/><path fill="#363534" d="M41,32h1v1h-1z"/><path fill="#363534" d="M24,33h1v1h-1z"/><path fill="#000000" d="M30,33h1v1h-1z"/><path fill="#7bc241" d="M31,33h1v1h-1z"/><path fill="#298141" d="M32,33h1v1h-1zM32,34h1v1h-1z"/><path fill="#363534" d="M35,33h1v1h-1zM35,34h1v1h-1zM36,34h1v1h-1zM37,34h1v1h-1zM38,34h1v1h-1zM39,34h1v1h-1z"/><path fill="#5a615a" d="M36,33h1v1h-1zM37,33h1v1h-1zM38,33h1v1h-1zM39,33h1v1h-1z"/><path fill="#363534" d="M40,33h1v1h-1z"/><path fill="#363534" d="M25,34h1v1h-1zM26,34h1v1h-1zM27,34h1v1h-1zM27,35h1v1h-1z"/><path fill="#000000" d="M29,34h1v1h-1zM29,35h1v1h-1z"/><path fill="#7bc241" d="M30,34h1v1h-1zM30,35h1v1h-1z"/><path fill="#72b036" d="M31,34h1v1h-1z"/><path fill="#629d29" d="M31,35h1v1h-1zM31,36h1v1h-1z"/><path fill="#000000" d="M32,35h1v1h-1zM32,36h1v1h-1zM32,37h1v1h-1z"/><path fill="#5a615a" d="M33,35h1v1h-1zM33,36h1v1h-1zM33,37h1v1h-1z"/><path fill="#363534" d="M34,35h1v1h-1zM34,36h1v1h-1zM34,37h1v1h-1z"/><path fill="#363534" d="M26,36h1v1h-1z"/><path fill="#5a615a" d="M27,36h1v1h-1z"/><path fill="#000000" d="M28,36h1v1h-1z"/><path fill="#7bc241" d="M29,36h1v1h-1zM29,37h1v1h-1z"/><path fill="#72b036" d="M30,36h1v1h-1z"/><path fill="#363534" d="M25,37h1v1h-1z"/><path fill="#5a615a" d="M26,37h1v1h-1z"/><path fill="#000000" d="M27,37h1v1h-1z"/><path fill="#eef283" d="M28,37h1v1h-1z"/><path fill="#629d29" d="M30,37h1v1h-1zM30,38h1v1h-1z"/><path fill="#298141" d="M31,37h1v1h-1z"/><path fill="#363534" d="M13,38h1v1h-1zM14,38h1v1h-1zM15,38h1v1h-1zM16,38h1v1h-1z"/><path fill="#363534" d="M24,38h1v1h-1zM24,39h1v1h-1z"/><path fill="#5a615a" d="M25,38h1v1h-1zM25,39h1v1h-1z"/><path fill="#000000" d="M26,38h1v1h-1zM26,39h1v1h-1z"/><path fill="#eef283" d="M27,38h1v1h-1z"/><path fill="#7bc241" d="M28,38h1v1h-1z"/><path fill="#72b036" d="M29,38h1v1h-1z"/><path fill="#000000" d="M31,38h1v1h-1zM31,39h1v1h-1z"/><path fill="#5a615a" d="M32,38h1v1h-1zM32,39h1v1h-1z"/><path fill="#363534" d="M33,38h1v1h-1zM33,39h1v1h-1z"/><path fill="#363534" d="M12,39h1v1h-1z"/><path fill="#5a615a" d="M13,39h1v1h-1zM14,39h1v1h-1zM15,39h1v1h-1zM16,39h1v1h-1z"/><path fill="#363534" d="M17,39h1v1h-1z"/><path fill="#7bc241" d="M27,39h1v1h-1z"/><path fill="#72b036" d="M28,39h1v1h-1z"/><path fill="#629d29" d="M29,39h1v1h-1z"/><path fill="#298141" d="M30,39h1v1h-1z"/><path fill="#363534" d="M11,40h1v1h-1z"/><path fill="#5a615a" d="M12,40h1v1h-1z"/><path fill="#000000" d="M13,40h1v1h-1zM14,40h1v1h-1zM15,40h1v1h-1zM16,40h1v1h-1z"/><path fill="#5a615a" d="M17,40h1v1h-1z"/><path fill="#363534" d="M18,40h1v1h-1z"/><path fill="#363534" d="M25,40h1v1h-1z"/><path fill="#5a615a" d="M26,40h1v1h-1z"/><path fill="#000000" d="M27,40h1v1h-1z"/><path fill="#629d29" d="M28,40h1v1h-1z"/><path fill="#298141" d="M29,40h1v1h-1z"/><path fill="#000000" d="M30,40h1v1h-1z"/><path fill="#5a615a" d="M31,40h1v1h-1z"/><path fill="#363534" d="M32,40h1v1h-1z"/><path fill="#363534" d="M10,41h1v1h-1zM10,42h1v1h-1zM9,42h1v1h-1zM8,42h1v1h-1zM7,42h1v1h-1zM6,42h1v1h-1zM5,42h1v1h-1z"/><path fill="#5a615a" d="M11,41h1v1h-1zM11,42h1v1h-1zM11,43h1v1h-1zM11,44h1v1h-1zM10,43h1v1h-1zM9,43h1v1h-1zM8,43h1v1h-1zM7,43h1v1h-1zM6,43h1v1h-1zM5,43h1v1h-1z"/><path fill="#000000" d="M12,41h1v1h-1zM12,42h1v1h-1zM12,43h1v1h-1zM12,44h1v1h-1zM12,45h1v1h-1zM12,46h1v1h-1zM12,47h1v1h-1zM12,48h1v1h-1zM12,49h1v1h-1zM12,50h1v1h-1zM12,51h1v1h-1zM12,52h1v1h-1zM12,53h1v1h-1zM12,54h1v1h-1zM12,55h1v1h-1zM12,56h1v1h-1zM11,53h1v1h-1zM11,49h1v1h-1zM10,49h1v1h-1zM9,49h1v1h-1zM8,49h1v1h-1zM7,49h1v1h-1zM7,50h1v1h-1zM7,51h1v1h-1zM7,52h1v1h-1zM8,52h1v1h-1zM9,52h1v1h-1zM10,52h1v1h-1zM11,45h1v1h-1z"/><path fill="#eef283" d="M13,41h1v1h-1z"/><path fill="#96e04a" d="M14,41h1v1h-1z"/><path fill="#7bc241" d="M15,41h1v1h-1z"/><path fill="#298141" d="M16,41h1v1h-1zM16,42h1v1h-1zM16,43h1v1h-1zM16,44h1v1h-1zM16,45h1v1h-1zM16,46h1v1h-1zM16,47h1v1h-1zM16,48h1v1h-1zM16,49h1v1h-1zM16,50h1v1h-1zM16,51h1v1h-1zM16,52h1v1h-1zM16,53h1v1h-1zM16,54h1v1h-1zM16,55h1v1h-1zM16,56h1v1h-1zM15,56h1v1h-1zM14,56h1v1h-1zM13,56h1v1h-1z"/><path fill="#000000" d="M17,41h1v1h-1zM17,42h1v1h-1zM17,43h1v1h-1zM17,44h1v1h-1zM17,45h1v1h-1zM17,46h1v1h-1zM17,47h1v1h-1zM17,48h1v1h-1zM17,49h1v1h-1zM17,50h1v1h-1zM17,51h1v1h-1zM17,52h1v1h-1zM17,53h1v1h-1zM17,54h1v1h-1zM17,55h1v1h-1zM17,56h1v1h-1zM18,55h1v1h-1zM18,54h1v1h-1zM18,46h1v1h-1z"/><path fill="#5a615a" d="M18,41h1v1h-1zM18,42h1v1h-1zM18,43h1v1h-1zM18,44h1v1h-1zM18,45h1v1h-1zM19,44h1v1h-1z"/><path fill="#363534" d="M19,41h1v1h-1zM19,42h1v1h-1zM19,43h1v1h-1zM20,42h1v1h-1zM21,42h1v1h-1zM22,42h1v1h-1zM23,42h1v1h-1zM24,42h1v1h-1zM25,42h1v1h-1z"/><path fill="#363534" d="M26,41h1v1h-1z"/><path fill="#5a615a" d="M27,41h1v1h-1z"/><path fill="#000000" d="M28,41h1v1h-1zM29,41h1v1h-1z"/><path fill="#5a615a" d="M30,41h1v1h-1z"/><path fill="#363534" d="M31,41h1v1h-1zM31,42h1v1h-1zM30,42h1v1h-1zM32,42h1v1h-1zM33,42h1v1h-1z"/><path fill="#96e04a" d="M13,42h1v1h-1zM13,43h1v1h-1z"/><path fill="#7bc241" d="M14,42h1v1h-1zM14,43h1v1h-1z"/><path fill="#629d29" d="M15,42h1v1h-1zM15,43h1v1h-1zM15,44h1v1h-1zM15,45h1v1h-1zM15,46h1v1h-1zM15,47h1v1h-1zM15,48h1v1h-1zM15,49h1v1h-1zM15,50h1v1h-1zM15,51h1v1h-1zM15,52h1v1h-1zM15,53h1v1h-1zM15,54h1v1h-1zM15,55h1v1h-1zM14,55h1v1h-1zM13,55h1v1h-1z"/><path fill="#363534" d="M27,42h1v1h-1z"/><path fill="#5a615a" d="M28,42h1v1h-1zM29,42h1v1h-1z"/><path fill="#363534" d="M36,42h1v1h-1zM37,42h1v1h-1zM38,42h1v1h-1zM39,42h1v1h-1z"/><path fill="#363534" d="M43,42h1v1h-1zM44,42h1v1h-1zM45,42h1v1h-1zM46,42h1v1h-1zM47,42h1v1h-1zM48,42h1v1h-1z"/><path fill="#363534" d="M52,42h1v1h-1zM53,42h1v1h-1zM54,42h1v1h-1z"/><path fill="#363534" d="M56,42h1v1h-1zM57,42h1v1h-1zM58,42h1v1h-1zM59,42h1v1h-1z"/><path fill="#363534" d="M4,43h1v1h-1z"/><path fill="#5a615a" d="M20,43h1v1h-1zM21,43h1v1h-1zM22,43h1v1h-1zM23,43h1v1h-1zM24,43h1v1h-1zM25,43h1v1h-1z"/><path fill="#363534" d="M26,43h1v1h-1z"/><path fill="#363534" d="M28,43h1v1h-1zM28,44h1v1h-1zM27,44h1v1h-1zM29,43h1v1h-1z"/><path fill="#5a615a" d="M30,43h1v1h-1zM31,43h1v1h-1zM32,43h1v1h-1zM33,43h1v1h-1z"/><path fill="#363534" d="M34,43h1v1h-1zM35,43h1v1h-1z"/><path fill="#5a615a" d="M36,43h1v1h-1zM37,43h1v1h-1zM38,43h1v1h-1zM39,43h1v1h-1z"/><path fill="#363534" d="M40,43h1v1h-1z"/><path fill="#363534" d="M42,43h1v1h-1z"/><path fill="#5a615a" d="M43,43h1v1h-1zM44,43h1v1h-1zM45,43h1v1h-1zM46,43h1v1h-1zM47,43h1v1h-1zM48,43h1v1h-1z"/><path fill="#363534" d="M49,43h1v1h-1z"/><path fill="#363534" d="M51,43h1v1h-1z"/><path fill="#5a615a" d="M52,43h1v1h-1zM53,43h1v1h-1zM54,43h1v1h-1z"/><path fill="#363534" d="M55,43h1v1h-1z"/><path fill="#5a615a" d="M56,43h1v1h-1zM57,43h1v1h-1zM58,43h1v1h-1zM59,43h1v1h-1z"/><path fill="#363534" d="M60,43h1v1h-1z"/><path fill="#363534" d="M3,44h1v1h-1z"/><path fill="#5a615a" d="M4,44h1v1h-1z"/><path fill="#000000" d="M5,44h1v1h-1zM6,44h1v1h-1zM7,44h1v1h-1zM8,44h1v1h-1zM9,44h1v1h-1zM10,44h1v1h-1z"/><path fill="#7bc241" d="M13,44h1v1h-1zM13,45h1v1h-1zM13,46h1v1h-1zM13,47h1v1h-1zM13,48h1v1h-1zM13,49h1v1h-1zM13,50h1v1h-1zM13,51h1v1h-1zM13,52h1v1h-1zM13,53h1v1h-1z"/><path fill="#72b036" d="M14,44h1v1h-1zM14,45h1v1h-1zM14,46h1v1h-1zM14,47h1v1h-1zM14,48h1v1h-1zM14,49h1v1h-1zM14,50h1v1h-1zM14,51h1v1h-1zM14,52h1v1h-1zM14,53h1v1h-1zM14,54h1v1h-1zM13,54h1v1h-1z"/><path fill="#000000" d="M20,44h1v1h-1zM21,44h1v1h-1zM22,44h1v1h-1zM23,44h1v1h-1zM24,44h1v1h-1zM25,44h1v1h-1z"/><path fill="#5a615a" d="M26,44h1v1h-1z"/><path fill="#5a615a" d="M29,44h1v1h-1z"/><path fill="#000000" d="M30,44h1v1h-1zM31,44h1v1h-1zM32,44h1v1h-1zM33,44h1v1h-1z"/><path fill="#5a615a" d="M34,44h1v1h-1zM35,44h1v1h-1z"/><path fill="#000000" d="M36,44h1v1h-1zM37,44h1v1h-1zM38,44h1v1h-1zM39,44h1v1h-1z"/><path fill="#5a615a" d="M40,44h1v1h-1z"/><path fill="#363534" d="M41,44h1v1h-1z"/><path fill="#5a615a" d="M42,44h1v1h-1z"/><path fill="#000000" d="M43,44h1v1h-1zM44,44h1v1h-1zM45,44h1v1h-1zM46,44h1v1h-1zM47,44h1v1h-1zM48,44h1v1h-1z"/><path fill="#5a615a" d="M49,44h1v1h-1z"/><path fill="#363534" d="M50,44h1v1h-1z"/><path fill="#5a615a" d="M51,44h1v1h-1z"/><path fill="#000000" d="M52,44h1v1h-1zM53,44h1v1h-1zM54,44h1v1h-1z"/><path fill="#5a615a" d="M55,44h1v1h-1z"/><path fill="#000000" d="M56,44h1v1h-1zM57,44h1v1h-1zM58,44h1v1h-1zM59,44h1v1h-1z"/><path fill="#5a615a" d="M60,44h1v1h-1z"/><path fill="#363534" d="M61,44h1v1h-1z"/><path fill="#363534" d="M2,45h1v1h-1z"/><path fill="#5a615a" d="M3,45h1v1h-1z"/><path fill="#000000" d="M4,45h1v1h-1z"/><path fill="#eef283" d="M5,45h1v1h-1z"/><path fill="#96e04a" d="M6,45h1v1h-1zM7,45h1v1h-1z"/><path fill="#7bc241" d="M8,45h1v1h-1zM9,45h1v1h-1z"/><path fill="#72b036" d="M10,45h1v1h-1z"/><path fill="#000000" d="M19,45h1v1h-1z"/><path fill="#eef283" d="M20,45h1v1h-1z"/><path fill="#96e04a" d="M21,45h1v1h-1zM22,45h1v1h-1z"/><path fill="#7bc241" d="M23,45h1v1h-1zM23,46h1v1h-1zM24,46h1v1h-1zM24,45h1v1h-1zM24,47h1v1h-1zM25,47h1v1h-1zM25,46h1v1h-1zM25,48h1v1h-1zM25,49h1v1h-1zM25,50h1v1h-1zM26,47h1v1h-1z"/><path fill="#72b036" d="M25,45h1v1h-1z"/><path fill="#000000" d="M26,45h1v1h-1z"/><path fill="#5a615a" d="M27,45h1v1h-1zM28,45h1v1h-1zM28,46h1v1h-1z"/><path fill="#000000" d="M29,45h1v1h-1zM29,46h1v1h-1zM29,47h1v1h-1zM29,48h1v1h-1zM29,49h1v1h-1zM29,50h1v1h-1zM29,51h1v1h-1zM29,52h1v1h-1zM29,53h1v1h-1zM29,54h1v1h-1zM30,52h1v1h-1zM30,51h1v1h-1zM28,48h1v1h-1zM28,47h1v1h-1z"/><path fill="#eef283" d="M30,45h1v1h-1z"/><path fill="#96e04a" d="M31,45h1v1h-1z"/><path fill="#7bc241" d="M32,45h1v1h-1zM32,46h1v1h-1zM32,47h1v1h-1zM32,48h1v1h-1zM32,49h1v1h-1zM32,50h1v1h-1zM32,51h1v1h-1zM32,52h1v1h-1zM32,53h1v1h-1zM33,53h1v1h-1zM33,52h1v1h-1zM33,51h1v1h-1zM33,50h1v1h-1zM34,52h1v1h-1zM34,53h1v1h-1zM35,53h1v1h-1zM31,51h1v1h-1zM31,50h1v1h-1zM31,49h1v1h-1zM31,48h1v1h-1zM31,47h1v1h-1zM31,46h1v1h-1zM30,48h1v1h-1zM30,49h1v1h-1z"/><path fill="#298141" d="M33,45h1v1h-1zM33,46h1v1h-1zM33,47h1v1h-1zM33,48h1v1h-1zM33,49h1v1h-1z"/><path fill="#000000" d="M34,45h1v1h-1zM34,46h1v1h-1zM34,47h1v1h-1zM34,48h1v1h-1zM34,49h1v1h-1zM35,49h1v1h-1zM35,48h1v1h-1zM35,47h1v1h-1zM35,46h1v1h-1zM35,45h1v1h-1zM35,50h1v1h-1z"/><path fill="#eef283" d="M36,45h1v1h-1z"/><path fill="#96e04a" d="M37,45h1v1h-1z"/><path fill="#7bc241" d="M38,45h1v1h-1z"/><path fill="#298141" d="M39,45h1v1h-1zM39,46h1v1h-1zM39,47h1v1h-1zM39,48h1v1h-1zM39,49h1v1h-1zM39,50h1v1h-1zM39,51h1v1h-1zM38,51h1v1h-1zM38,52h1v1h-1zM38,53h1v1h-1zM38,54h1v1h-1zM37,54h1v1h-1zM37,55h1v1h-1zM36,55h1v1h-1zM36,56h1v1h-1zM35,56h1v1h-1zM34,56h1v1h-1zM33,56h1v1h-1z"/><path fill="#000000" d="M40,45h1v1h-1zM40,46h1v1h-1zM40,47h1v1h-1zM40,48h1v1h-1zM40,49h1v1h-1zM40,50h1v1h-1zM40,51h1v1h-1zM40,52h1v1h-1zM40,53h1v1h-1zM39,53h1v1h-1zM39,52h1v1h-1zM39,54h1v1h-1zM41,46h1v1h-1z"/><path fill="#5a615a" d="M41,45h1v1h-1z"/><path fill="#000000" d="M42,45h1v1h-1z"/><path fill="#eef283" d="M43,45h1v1h-1z"/><path fill="#96e04a" d="M44,45h1v1h-1zM45,45h1v1h-1z"/><path fill="#7bc241" d="M46,45h1v1h-1zM46,46h1v1h-1zM46,47h1v1h-1zM47,47h1v1h-1zM47,46h1v1h-1zM48,47h1v1h-1zM48,48h1v1h-1zM45,46h1v1h-1zM44,46h1v1h-1z"/><path fill="#72b036" d="M47,45h1v1h-1z"/><path fill="#629d29" d="M48,45h1v1h-1z"/><path fill="#000000" d="M49,45h1v1h-1z"/><path fill="#5a615a" d="M50,45h1v1h-1z"/><path fill="#000000" d="M51,45h1v1h-1zM51,46h1v1h-1zM51,47h1v1h-1zM51,48h1v1h-1zM51,49h1v1h-1zM51,50h1v1h-1zM51,51h1v1h-1zM51,52h1v1h-1zM51,53h1v1h-1zM51,54h1v1h-1zM51,55h1v1h-1zM51,56h1v1h-1zM50,56h1v1h-1zM50,52h1v1h-1zM50,51h1v1h-1zM49,52h1v1h-1zM48,52h1v1h-1zM47,52h1v1h-1zM46,52h1v1h-1zM45,52h1v1h-1zM50,46h1v1h-1z"/><path fill="#eef283" d="M52,45h1v1h-1z"/><path fill="#96e04a" d="M53,45h1v1h-1z"/><path fill="#72b036" d="M54,45h1v1h-1z"/><path fill="#000000" d="M55,45h1v1h-1z"/><path fill="#eef283" d="M56,45h1v1h-1z"/><path fill="#96e04a" d="M57,45h1v1h-1z"/><path fill="#7bc241" d="M58,45h1v1h-1z"/><path fill="#629d29" d="M59,45h1v1h-1zM59,46h1v1h-1zM59,47h1v1h-1zM58,47h1v1h-1z"/><path fill="#000000" d="M60,45h1v1h-1z"/><path fill="#5a615a" d="M61,45h1v1h-1z"/><path fill="#363534" d="M62,45h1v1h-1z"/><path fill="#363534" d="M1,46h1v1h-1z"/><path fill="#5a615a" d="M2,46h1v1h-1z"/><path fill="#000000" d="M3,46h1v1h-1z"/><path fill="#eef283" d="M4,46h1v1h-1z"/><path fill="#96e04a" d="M5,46h1v1h-1z"/><path fill="#7bc241" d="M6,46h1v1h-1zM7,46h1v1h-1z"/><path fill="#72b036" d="M8,46h1v1h-1zM9,46h1v1h-1z"/><path fill="#629d29" d="M10,46h1v1h-1zM10,47h1v1h-1zM9,47h1v1h-1zM8,47h1v1h-1zM7,47h1v1h-1z"/><path fill="#298141" d="M11,46h1v1h-1zM11,47h1v1h-1zM11,48h1v1h-1zM10,48h1v1h-1zM9,48h1v1h-1zM8,48h1v1h-1zM7,48h1v1h-1z"/><path fill="#eef283" d="M19,46h1v1h-1z"/><path fill="#96e04a" d="M20,46h1v1h-1z"/><path fill="#7bc241" d="M21,46h1v1h-1z"/><path fill="#72b036" d="M22,46h1v1h-1z"/><path fill="#72b036" d="M26,46h1v1h-1z"/><path fill="#000000" d="M27,46h1v1h-1z"/><path fill="#96e04a" d="M30,46h1v1h-1zM30,47h1v1h-1z"/><path fill="#96e04a" d="M36,46h1v1h-1zM36,47h1v1h-1z"/><path fill="#7bc241" d="M37,46h1v1h-1zM37,47h1v1h-1z"/><path fill="#629d29" d="M38,46h1v1h-1zM38,47h1v1h-1zM38,48h1v1h-1zM38,49h1v1h-1zM38,50h1v1h-1z"/><path fill="#eef283" d="M42,46h1v1h-1z"/><path fill="#96e04a" d="M43,46h1v1h-1z"/><path fill="#72b036" d="M48,46h1v1h-1z"/><path fill="#298141" d="M49,46h1v1h-1z"/><path fill="#96e04a" d="M52,46h1v1h-1zM52,47h1v1h-1z"/><path fill="#7bc241" d="M53,46h1v1h-1zM53,47h1v1h-1zM53,48h1v1h-1zM52,48h1v1h-1zM52,49h1v1h-1zM52,50h1v1h-1zM52,51h1v1h-1zM52,52h1v1h-1zM52,53h1v1h-1zM54,47h1v1h-1zM54,46h1v1h-1z"/><path fill="#96e04a" d="M55,46h1v1h-1zM56,46h1v1h-1z"/><path fill="#7bc241" d="M57,46h1v1h-1z"/><path fill="#72b036" d="M58,46h1v1h-1z"/><path fill="#298141" d="M60,46h1v1h-1zM60,47h1v1h-1zM60,48h1v1h-1zM59,48h1v1h-1zM58,48h1v1h-1zM57,48h1v1h-1zM57,47h1v1h-1zM56,48h1v1h-1zM56,49h1v1h-1zM55,49h1v1h-1zM55,50h1v1h-1zM55,51h1v1h-1zM55,52h1v1h-1zM55,53h1v1h-1zM55,54h1v1h-1zM55,55h1v1h-1zM55,56h1v1h-1zM54,56h1v1h-1zM53,56h1v1h-1zM52,56h1v1h-1z"/><path fill="#000000" d="M61,46h1v1h-1zM61,47h1v1h-1zM61,48h1v1h-1z"/><path fill="#5a615a" d="M62,46h1v1h-1zM62,47h1v1h-1zM62,48h1v1h-1z"/><path fill="#363534" d="M63,46h1v1h-1zM63,47h1v1h-1zM63,48h1v1h-1z"/><path fill="#363534" d="M0,47h1v1h-1zM0,48h1v1h-1zM0,49h1v1h-1zM0,50h1v1h-1zM0,51h1v1h-1zM0,52h1v1h-1zM0,53h1v1h-1z"/><path fill="#5a615a" d="M1,47h1v1h-1zM1,48h1v1h-1zM1,49h1v1h-1zM1,50h1v1h-1zM1,51h1v1h-1zM1,52h1v1h-1zM1,53h1v1h-1z"/><path fill="#000000" d="M2,47h1v1h-1zM2,48h1v1h-1zM2,49h1v1h-1zM2,50h1v1h-1zM2,51h1v1h-1zM2,52h1v1h-1zM2,53h1v1h-1z"/><path fill="#eef283" d="M3,47h1v1h-1z"/><path fill="#96e04a" d="M4,47h1v1h-1z"/><path fill="#7bc241" d="M5,47h1v1h-1z"/><path fill="#72b036" d="M6,47h1v1h-1z"/><path fill="#eef283" d="M18,47h1v1h-1z"/><path fill="#96e04a" d="M19,47h1v1h-1z"/><path fill="#7bc241" d="M20,47h1v1h-1z"/><path fill="#72b036" d="M21,47h1v1h-1z"/><path fill="#629d29" d="M22,47h1v1h-1zM23,47h1v1h-1z"/><path fill="#72b036" d="M27,47h1v1h-1z"/><path fill="#eef283" d="M41,47h1v1h-1z"/><path fill="#96e04a" d="M42,47h1v1h-1z"/><path fill="#7bc241" d="M43,47h1v1h-1z"/><path fill="#629d29" d="M44,47h1v1h-1zM45,47h1v1h-1z"/><path fill="#72b036" d="M49,47h1v1h-1z"/><path fill="#298141" d="M50,47h1v1h-1zM50,48h1v1h-1zM50,49h1v1h-1zM50,50h1v1h-1zM49,50h1v1h-1zM49,51h1v1h-1zM48,51h1v1h-1zM47,51h1v1h-1zM46,51h1v1h-1zM45,51h1v1h-1z"/><path fill="#72b036" d="M55,47h1v1h-1z"/><path fill="#629d29" d="M56,47h1v1h-1z"/><path fill="#96e04a" d="M3,48h1v1h-1zM3,49h1v1h-1z"/><path fill="#7bc241" d="M4,48h1v1h-1zM4,49h1v1h-1z"/><path fill="#72b036" d="M5,48h1v1h-1z"/><path fill="#629d29" d="M6,48h1v1h-1z"/><path fill="#96e04a" d="M18,48h1v1h-1zM18,49h1v1h-1z"/><path fill="#7bc241" d="M19,48h1v1h-1zM19,49h1v1h-1z"/><path fill="#72b036" d="M20,48h1v1h-1z"/><path fill="#629d29" d="M21,48h1v1h-1z"/><path fill="#298141" d="M22,48h1v1h-1zM23,48h1v1h-1zM24,48h1v1h-1z"/><path fill="#72b036" d="M26,48h1v1h-1zM26,49h1v1h-1zM26,50h1v1h-1zM26,51h1v1h-1zM26,52h1v1h-1zM26,53h1v1h-1z"/><path fill="#629d29" d="M27,48h1v1h-1zM27,49h1v1h-1zM27,50h1v1h-1zM27,51h1v1h-1zM27,52h1v1h-1zM27,53h1v1h-1z"/><path fill="#7bc241" d="M36,48h1v1h-1zM36,49h1v1h-1z"/><path fill="#72b036" d="M37,48h1v1h-1zM37,49h1v1h-1zM37,50h1v1h-1z"/><path fill="#96e04a" d="M41,48h1v1h-1zM41,49h1v1h-1z"/><path fill="#7bc241" d="M42,48h1v1h-1zM42,49h1v1h-1zM42,50h1v1h-1zM42,51h1v1h-1zM42,52h1v1h-1zM42,53h1v1h-1zM43,53h1v1h-1zM43,52h1v1h-1zM43,51h1v1h-1zM43,50h1v1h-1zM43,49h1v1h-1zM44,49h1v1h-1zM45,49h1v1h-1zM44,52h1v1h-1zM44,53h1v1h-1zM45,53h1v1h-1zM46,53h1v1h-1zM41,51h1v1h-1zM41,50h1v1h-1z"/><path fill="#629d29" d="M43,48h1v1h-1z"/><path fill="#000000" d="M44,48h1v1h-1zM45,48h1v1h-1zM46,48h1v1h-1z"/><path fill="#96e04a" d="M47,48h1v1h-1z"/><path fill="#629d29" d="M49,48h1v1h-1zM49,49h1v1h-1z"/><path fill="#72b036" d="M54,48h1v1h-1z"/><path fill="#629d29" d="M55,48h1v1h-1z"/><path fill="#629d29" d="M5,49h1v1h-1zM5,50h1v1h-1zM5,51h1v1h-1z"/><path fill="#298141" d="M6,49h1v1h-1zM6,50h1v1h-1zM6,51h1v1h-1z"/><path fill="#629d29" d="M20,49h1v1h-1zM20,50h1v1h-1zM20,51h1v1h-1z"/><path fill="#298141" d="M21,49h1v1h-1zM21,50h1v1h-1zM21,51h1v1h-1z"/><path fill="#000000" d="M22,49h1v1h-1zM22,50h1v1h-1zM22,51h1v1h-1zM22,52h1v1h-1zM23,52h1v1h-1zM23,49h1v1h-1zM24,49h1v1h-1zM24,50h1v1h-1zM24,51h1v1h-1z"/><path fill="#298141" d="M28,49h1v1h-1zM28,50h1v1h-1zM28,51h1v1h-1zM28,52h1v1h-1zM28,53h1v1h-1zM28,54h1v1h-1zM27,54h1v1h-1zM27,55h1v1h-1zM26,55h1v1h-1zM26,56h1v1h-1zM25,56h1v1h-1zM24,56h1v1h-1zM23,56h1v1h-1zM22,56h1v1h-1zM21,56h1v1h-1zM20,56h1v1h-1z"/><path fill="#96e04a" d="M46,49h1v1h-1z"/><path fill="#eef283" d="M47,49h1v1h-1z"/><path fill="#72b036" d="M48,49h1v1h-1z"/><path fill="#72b036" d="M53,49h1v1h-1zM53,50h1v1h-1zM53,51h1v1h-1zM53,52h1v1h-1zM53,53h1v1h-1zM53,54h1v1h-1zM52,54h1v1h-1z"/><path fill="#629d29" d="M54,49h1v1h-1zM54,50h1v1h-1zM54,51h1v1h-1zM54,52h1v1h-1zM54,53h1v1h-1zM54,54h1v1h-1zM54,55h1v1h-1zM53,55h1v1h-1zM52,55h1v1h-1z"/><path fill="#000000" d="M57,49h1v1h-1zM58,49h1v1h-1zM59,49h1v1h-1zM60,49h1v1h-1z"/><path fill="#5a615a" d="M61,49h1v1h-1z"/><path fill="#363534" d="M62,49h1v1h-1z"/><path fill="#7bc241" d="M3,50h1v1h-1zM3,51h1v1h-1zM3,52h1v1h-1zM4,52h1v1h-1zM4,53h1v1h-1zM5,53h1v1h-1zM5,54h1v1h-1zM6,54h1v1h-1zM6,53h1v1h-1zM7,53h1v1h-1zM7,54h1v1h-1zM8,54h1v1h-1z"/><path fill="#72b036" d="M4,50h1v1h-1zM4,51h1v1h-1z"/><path fill="#5a615a" d="M8,50h1v1h-1zM8,51h1v1h-1zM9,51h1v1h-1zM9,50h1v1h-1zM10,50h1v1h-1zM10,51h1v1h-1zM11,51h1v1h-1zM11,50h1v1h-1zM11,52h1v1h-1z"/><path fill="#7bc241" d="M18,50h1v1h-1zM18,51h1v1h-1zM18,52h1v1h-1zM19,52h1v1h-1zM19,51h1v1h-1zM19,53h1v1h-1zM20,53h1v1h-1zM20,52h1v1h-1zM21,53h1v1h-1zM22,53h1v1h-1z"/><path fill="#72b036" d="M19,50h1v1h-1z"/><path fill="#5a615a" d="M23,50h1v1h-1zM23,51h1v1h-1z"/><path fill="#72b036" d="M30,50h1v1h-1z"/><path fill="#298141" d="M34,50h1v1h-1z"/><path fill="#96e04a" d="M36,50h1v1h-1zM36,51h1v1h-1z"/><path fill="#629d29" d="M44,50h1v1h-1zM45,50h1v1h-1zM46,50h1v1h-1zM47,50h1v1h-1zM48,50h1v1h-1z"/><path fill="#000000" d="M56,50h1v1h-1zM56,51h1v1h-1zM56,52h1v1h-1zM56,53h1v1h-1zM56,54h1v1h-1zM56,55h1v1h-1zM56,56h1v1h-1z"/><path fill="#5a615a" d="M57,50h1v1h-1zM57,51h1v1h-1zM57,52h1v1h-1zM57,53h1v1h-1zM57,54h1v1h-1zM57,55h1v1h-1zM57,56h1v1h-1zM58,50h1v1h-1zM59,50h1v1h-1zM60,50h1v1h-1z"/><path fill="#363534" d="M61,50h1v1h-1z"/><path fill="#96e04a" d="M25,51h1v1h-1zM25,52h1v1h-1z"/><path fill="#96e04a" d="M34,51h1v1h-1z"/><path fill="#eef283" d="M35,51h1v1h-1z"/><path fill="#629d29" d="M37,51h1v1h-1zM37,52h1v1h-1zM37,53h1v1h-1z"/><path fill="#000000" d="M44,51h1v1h-1z"/><path fill="#363534" d="M58,51h1v1h-1zM58,52h1v1h-1zM58,53h1v1h-1zM58,54h1v1h-1zM58,55h1v1h-1zM58,56h1v1h-1zM59,51h1v1h-1zM60,51h1v1h-1z"/><path fill="#72b036" d="M5,52h1v1h-1z"/><path fill="#629d29" d="M6,52h1v1h-1z"/><path fill="#629d29" d="M21,52h1v1h-1z"/><path fill="#eef283" d="M24,52h1v1h-1z"/><path fill="#72b036" d="M31,52h1v1h-1z"/><path fill="#96e04a" d="M35,52h1v1h-1z"/><path fill="#7bc241" d="M36,52h1v1h-1z"/><path fill="#72b036" d="M41,52h1v1h-1zM41,53h1v1h-1z"/><path fill="#72b036" d="M3,53h1v1h-1z"/><path fill="#96e04a" d="M8,53h1v1h-1zM9,53h1v1h-1zM10,53h1v1h-1z"/><path fill="#72b036" d="M18,53h1v1h-1z"/><path fill="#96e04a" d="M23,53h1v1h-1zM24,53h1v1h-1z"/><path fill="#7bc241" d="M25,53h1v1h-1z"/><path fill="#5a615a" d="M30,53h1v1h-1zM30,54h1v1h-1z"/><path fill="#000000" d="M31,53h1v1h-1zM31,54h1v1h-1z"/><path fill="#72b036" d="M36,53h1v1h-1z"/><path fill="#96e04a" d="M47,53h1v1h-1zM48,53h1v1h-1zM49,53h1v1h-1z"/><path fill="#298141" d="M50,53h1v1h-1zM50,54h1v1h-1zM50,55h1v1h-1zM49,55h1v1h-1zM49,56h1v1h-1zM48,56h1v1h-1zM47,56h1v1h-1zM46,56h1v1h-1zM45,56h1v1h-1zM44,56h1v1h-1zM43,56h1v1h-1z"/><path fill="#363534" d="M1,54h1v1h-1zM1,55h1v1h-1z"/><path fill="#5a615a" d="M2,54h1v1h-1zM2,55h1v1h-1z"/><path fill="#000000" d="M3,54h1v1h-1zM3,55h1v1h-1z"/><path fill="#72b036" d="M4,54h1v1h-1z"/><path fill="#72b036" d="M9,54h1v1h-1z"/><path fill="#629d29" d="M10,54h1v1h-1zM10,55h1v1h-1zM9,55h1v1h-1zM8,55h1v1h-1zM7,55h1v1h-1zM6,55h1v1h-1zM5,55h1v1h-1zM4,55h1v1h-1z"/><path fill="#298141" d="M11,54h1v1h-1zM11,55h1v1h-1zM11,56h1v1h-1zM10,56h1v1h-1zM9,56h1v1h-1zM8,56h1v1h-1zM7,56h1v1h-1zM6,56h1v1h-1zM5,56h1v1h-1z"/><path fill="#72b036" d="M19,54h1v1h-1zM20,54h1v1h-1zM21,54h1v1h-1zM22,54h1v1h-1zM23,54h1v1h-1zM24,54h1v1h-1zM25,54h1v1h-1z"/><path fill="#629d29" d="M26,54h1v1h-1z"/><path fill="#72b036" d="M32,54h1v1h-1zM33,54h1v1h-1zM34,54h1v1h-1zM35,54h1v1h-1z"/><path fill="#629d29" d="M36,54h1v1h-1z"/><path fill="#5a615a" d="M40,54h1v1h-1z"/><path fill="#000000" d="M41,54h1v1h-1z"/><path fill="#72b036" d="M42,54h1v1h-1zM43,54h1v1h-1zM44,54h1v1h-1zM45,54h1v1h-1zM46,54h1v1h-1zM47,54h1v1h-1zM48,54h1v1h-1z"/><path fill="#629d29" d="M49,54h1v1h-1z"/><path fill="#298141" d="M19,55h1v1h-1z"/><path fill="#629d29" d="M20,55h1v1h-1zM21,55h1v1h-1zM22,55h1v1h-1zM23,55h1v1h-1zM24,55h1v1h-1zM25,55h1v1h-1z"/><path fill="#000000" d="M28,55h1v1h-1z"/><path fill="#5a615a" d="M29,55h1v1h-1z"/><path fill="#363534" d="M30,55h1v1h-1zM30,56h1v1h-1zM29,56h1v1h-1z"/><path fill="#5a615a" d="M31,55h1v1h-1zM31,56h1v1h-1z"/><path fill="#000000" d="M32,55h1v1h-1zM32,56h1v1h-1z"/><path fill="#629d29" d="M33,55h1v1h-1zM34,55h1v1h-1zM35,55h1v1h-1z"/><path fill="#000000" d="M38,55h1v1h-1z"/><path fill="#5a615a" d="M39,55h1v1h-1z"/><path fill="#363534" d="M40,55h1v1h-1zM40,56h1v1h-1zM39,56h1v1h-1z"/><path fill="#5a615a" d="M41,55h1v1h-1zM41,56h1v1h-1z"/><path fill="#000000" d="M42,55h1v1h-1zM42,56h1v1h-1z"/><path fill="#629d29" d="M43,55h1v1h-1zM44,55h1v1h-1zM45,55h1v1h-1zM46,55h1v1h-1zM47,55h1v1h-1zM48,55h1v1h-1z"/><path fill="#363534" d="M2,56h1v1h-1z"/><path fill="#5a615a" d="M3,56h1v1h-1z"/><path fill="#000000" d="M4,56h1v1h-1z"/><path fill="#5a615a" d="M18,56h1v1h-1z"/><path fill="#000000" d="M19,56h1v1h-1z"/><path fill="#000000" d="M27,56h1v1h-1z"/><path fill="#5a615a" d="M28,56h1v1h-1z"/><path fill="#000000" d="M37,56h1v1h-1z"/><path fill="#5a615a" d="M38,56h1v1h-1z"/><path fill="#363534" d="M3,57h1v1h-1z"/><path fill="#5a615a" d="M4,57h1v1h-1z"/><path fill="#000000" d="M5,57h1v1h-1zM6,57h1v1h-1zM7,57h1v1h-1zM8,57h1v1h-1zM9,57h1v1h-1zM10,57h1v1h-1zM11,57h1v1h-1z"/><path fill="#5a615a" d="M12,57h1v1h-1z"/><path fill="#000000" d="M13,57h1v1h-1zM14,57h1v1h-1zM15,57h1v1h-1zM16,57h1v1h-1z"/><path fill="#5a615a" d="M17,57h1v1h-1z"/><path fill="#363534" d="M18,57h1v1h-1z"/><path fill="#5a615a" d="M19,57h1v1h-1z"/><path fill="#000000" d="M20,57h1v1h-1zM21,57h1v1h-1zM22,57h1v1h-1zM23,57h1v1h-1zM24,57h1v1h-1zM25,57h1v1h-1zM26,57h1v1h-1z"/><path fill="#5a615a" d="M27,57h1v1h-1z"/><path fill="#363534" d="M28,57h1v1h-1z"/><path fill="#363534" d="M31,57h1v1h-1z"/><path fill="#5a615a" d="M32,57h1v1h-1z"/><path fill="#000000" d="M33,57h1v1h-1zM34,57h1v1h-1zM35,57h1v1h-1zM36,57h1v1h-1z"/><path fill="#5a615a" d="M37,57h1v1h-1z"/><path fill="#363534" d="M38,57h1v1h-1z"/><path fill="#363534" d="M41,57h1v1h-1z"/><path fill="#5a615a" d="M42,57h1v1h-1z"/><path fill="#000000" d="M43,57h1v1h-1zM44,57h1v1h-1zM45,57h1v1h-1zM46,57h1v1h-1zM47,57h1v1h-1zM48,57h1v1h-1zM49,57h1v1h-1z"/><path fill="#5a615a" d="M50,57h1v1h-1zM51,57h1v1h-1z"/><path fill="#000000" d="M52,57h1v1h-1zM53,57h1v1h-1zM54,57h1v1h-1zM55,57h1v1h-1z"/><path fill="#5a615a" d="M56,57h1v1h-1z"/><path fill="#363534" d="M57,57h1v1h-1z"/><path fill="#363534" d="M4,58h1v1h-1z"/><path fill="#5a615a" d="M5,58h1v1h-1zM6,58h1v1h-1zM7,58h1v1h-1zM8,58h1v1h-1zM9,58h1v1h-1zM10,58h1v1h-1zM11,58h1v1h-1z"/><path fill="#363534" d="M12,58h1v1h-1z"/><path fill="#5a615a" d="M13,58h1v1h-1zM14,58h1v1h-1zM15,58h1v1h-1zM16,58h1v1h-1z"/><path fill="#363534" d="M17,58h1v1h-1z"/><path fill="#363534" d="M19,58h1v1h-1z"/><path fill="#5a615a" d="M20,58h1v1h-1zM21,58h1v1h-1zM22,58h1v1h-1zM23,58h1v1h-1zM24,58h1v1h-1zM25,58h1v1h-1zM26,58h1v1h-1z"/><path fill="#363534" d="M27,58h1v1h-1z"/><path fill="#363534" d="M32,58h1v1h-1z"/><path fill="#5a615a" d="M33,58h1v1h-1zM34,58h1v1h-1zM35,58h1v1h-1zM36,58h1v1h-1z"/><path fill="#363534" d="M37,58h1v1h-1z"/><path fill="#363534" d="M42,58h1v1h-1z"/><path fill="#5a615a" d="M43,58h1v1h-1zM44,58h1v1h-1zM45,58h1v1h-1zM46,58h1v1h-1zM47,58h1v1h-1zM48,58h1v1h-1zM49,58h1v1h-1z"/><path fill="#363534" d="M50,58h1v1h-1zM51,58h1v1h-1z"/><path fill="#5a615a" d="M52,58h1v1h-1zM53,58h1v1h-1zM54,58h1v1h-1zM55,58h1v1h-1z"/><path fill="#363534" d="M56,58h1v1h-1z"/><path fill="#363534" d="M5,59h1v1h-1zM6,59h1v1h-1zM7,59h1v1h-1zM8,59h1v1h-1zM9,59h1v1h-1zM10,59h1v1h-1zM11,59h1v1h-1z"/><path fill="#363534" d="M13,59h1v1h-1zM14,59h1v1h-1zM15,59h1v1h-1zM16,59h1v1h-1z"/><path fill="#363534" d="M20,59h1v1h-1zM21,59h1v1h-1zM22,59h1v1h-1zM23,59h1v1h-1zM24,59h1v1h-1zM25,59h1v1h-1zM26,59h1v1h-1z"/><path fill="#363534" d="M33,59h1v1h-1zM34,59h1v1h-1zM35,59h1v1h-1zM36,59h1v1h-1z"/><path fill="#363534" d="M43,59h1v1h-1zM44,59h1v1h-1zM45,59h1v1h-1zM46,59h1v1h-1zM47,59h1v1h-1zM48,59h1v1h-1zM49,59h1v1h-1z"/><path fill="#363534" d="M52,59h1v1h-1zM53,59h1v1h-1zM54,59h1v1h-1zM55,59h1v1h-1z"/>
</svg>