<svg xmlns="http://www.w3.org/2000/svg" viewBox="0 0 12 12" shape-rendering="crispEdges">
<path fill="#000000" d="M2,0h1v1h-1zM2,1h1v1h-1zM2,2h1v1h-1zM2,3h1v1h-1zM1,3h1v1h-1zM1,2h1v1h-1zM1,1h1v1h-1zM1,4h1v1h-1zM1,5h1v1h-1zM1,6h1v1h-1zM1,7h1v1h-1zM2,7h1v1h-1zM2,6h1v1h-1zM2,8h1v1h-1zM3,8h1v1h-1zM3,7h1v1h-1zM3,9h1v1h-1zM4,9h1v1h-1zM4,8h1v1h-1zM4,10h1v1h-1zM5,10h1v1h-1zM5,9h1v1h-1zM6,9h1v1h-1zM6,10h1v1h-1zM6,11h1v1h-1zM5,11h1v1h-1zM7,10h1v1h-1zM7,9h1v1h-1zM7,8h1v1h-1zM8,8h1v1h-1zM8,7h1v1h-1zM9,7h1v1h-1zM9,6h1v1h-1zM10,6h1v1h-1zM10,5h1v1h-1zM10,4h1v1h-1zM10,3h1v1h-1zM10,2h1v1h-1zM10,1h1v1h-1zM9,1h1v1h-1zM9,0h1v1h-1zM8,0h1v1h-1zM8,1h1v1h-1zM8,2h1v1h-1zM7,2h1v1h-1zM7,1h1v1h-1zM7,3h1v1h-1zM6,3h1v1h-1zM6,2h1v1h-1zM5,2h1v1h-1zM5,3h1v1h-1zM5,4h1v1h-1zM6,4h1v1h-1zM4,3h1v1h-1zM4,2h1v1h-1zM4,1h1v1h-1zM3,1h1v1h-1zM3,0h1v1h-1zM3,2h1v1h-1zM9,2h1v1h-1zM9,3h1v1h-1zM11,3h1v1h-1zM11,4h1v1h-1zM11,5h1v1h-1zM11,6h1v1h-1zM10,7h1v1h-1zM9,8h1v1h-1zM8,9h1v1h-1zM0,6h1v1h-1zM0,5h1v1h-1zM0,4h1v1h-1zM0,3h1v1h-1z"/>
</svg>