<svg xmlns="http://www.w3.org/2000/svg" viewBox="0 0 12 12" shape-rendering="crispEdges">
<path fill="#000000" d="M8,0h1v1h-1zM8,1h1v1h-1zM8,2h1v1h-1zM8,3h1v1h-1zM8,4h1v1h-1zM8,5h1v1h-1zM7,3h1v1h-1zM6,3h1v1h-1zM5,3h1v1h-1zM5,4h1v1h-1zM5,5h1v1h-1zM4,5h1v1h-1zM4,4h1v1h-1zM4,3h1v1h-1zM3,3h1v1h-1zM3,4h1v1h-1zM3,5h1v1h-1zM2,5h1v1h-1zM2,4h1v1h-1zM2,3h1v1h-1zM1,4h1v1h-1zM1,5h1v1h-1zM1,6h1v1h-1zM1,7h1v1h-1zM1,8h1v1h-1zM1,9h1v1h-1zM0,9h1v1h-1zM0,8h1v1h-1zM0,7h1v1h-1zM0,6h1v1h-1zM0,5h1v1h-1zM2,9h1v1h-1zM3,9h1v1h-1zM4,9h1v1h-1zM5,9h1v1h-1zM6,9h1v1h-1zM6,8h1v1h-1zM6,7h1v1h-1zM6,6h1v1h-1zM6,5h1v1h-1zM6,10h1v1h-1zM6,11h1v1h-1zM7,11h1v1h-1zM7,10h1v1h-1zM7,9h1v1h-1zM8,9h1v1h-1zM9,9h1v1h-1zM10,9h1v1h-1zM11,9h1v1h-1zM11,8h1v1h-1zM11,7h1v1h-1zM11,6h1v1h-1zM11,5h1v1h-1zM9,3h1v1h-1zM9,1h1v1h-1zM9,0h1v1h-1zM10,0h1v1h-1zM10,1h1v1h-1z"/><path fill="#000000" d="M10,4h1v1h-1z"/><path fill="#000000" d="M3,7h1v1h-1zM4,7h1v1h-1z"/>
</svg>