<svg xmlns="http://www.w3.org/2000/svg" viewBox="0 0 12 12" shape-rendering="crispEdges">
<path fill="#000000" d="M4,0h1v1h-1zM4,1h1v1h-1zM3,1h1v1h-1zM5,1h1v1h-1zM5,0h1v1h-1zM6,0h1v1h-1zM6,1h1v1h-1zM7,1h1v1h-1zM7,0h1v1h-1zM8,1h1v1h-1zM8,2h1v1h-1zM9,2h1v1h-1zM9,3h1v1h-1zM10,3h1v1h-1zM10,4h1v1h-1zM11,4h1v1h-1zM11,5h1v1h-1zM11,6h1v1h-1zM11,7h1v1h-1zM10,7h1v1h-1zM10,8h1v1h-1z"/><path fill="#000000" d="M0,1h1v1h-1zM0,2h1v1h-1zM1,2h1v1h-1zM1,3h1v1h-1zM1,4h1v1h-1zM0,4h1v1h-1zM0,5h1v1h-1zM0,6h1v1h-1zM0,7h1v1h-1zM1,7h1v1h-1zM1,8h1v1h-1zM2,8h1v1h-1zM2,9h1v1h-1zM3,9h1v1h-1zM3,10h1v1h-1zM4,10h1v1h-1zM4,11h1v1h-1zM5,11h1v1h-1zM5,10h1v1h-1zM6,10h1v1h-1zM6,11h1v1h-1zM7,11h1v1h-1zM7,10h1v1h-1zM7,9h1v1h-1zM7,8h1v1h-1zM6,8h1v1h-1zM6,7h1v1h-1zM5,7h1v1h-1zM5,6h1v1h-1zM4,6h1v1h-1zM4,5h1v1h-1zM3,5h1v1h-1zM3,4h1v1h-1zM2,4h1v1h-1zM2,3h1v1h-1zM3,6h1v1h-1zM4,7h1v1h-1zM5,8h1v1h-1zM8,9h1v1h-1zM8,10h1v1h-1zM9,10h1v1h-1zM9,11h1v1h-1zM10,11h1v1h-1z"/><path fill="#000000" d="M5,3h1v1h-1zM6,3h1v1h-1zM6,4h1v1h-1zM7,4h1v1h-1zM7,5h1v1h-1zM8,5h1v1h-1zM8,6h1v1h-1z"/>
</svg>