<svg xmlns="http://www.w3.org/2000/svg" viewBox="0 0 12 12" shape-rendering="crispEdges">
<path fill="#000000" d="M0,0h1v1h-1zM0,1h1v1h-1zM0,2h1v1h-1zM0,3h1v1h-1zM0,4h1v1h-1zM0,5h1v1h-1zM0,6h1v1h-1zM0,7h1v1h-1zM0,8h1v1h-1zM0,9h1v1h-1zM0,10h1v1h-1zM0,11h1v1h-1zM1,11h1v1h-1zM1,10h1v1h-1zM1,9h1v1h-1zM1,8h1v1h-1zM1,7h1v1h-1zM1,6h1v1h-1zM1,5h1v1h-1zM1,4h1v1h-1zM1,3h1v1h-1zM1,2h1v1h-1zM1,1h1v1h-1zM1,0h1v1h-1zM2,0h1v1h-1zM2,1h1v1h-1zM3,1h1v1h-1zM3,0h1v1h-1zM4,0h1v1h-1zM4,1h1v1h-1zM5,1h1v1h-1zM5,0h1v1h-1zM6,0h1v1h-1zM6,1h1v1h-1zM6,2h1v1h-1zM7,2h1v1h-1zM7,1h1v1h-1zM7,0h1v1h-1zM2,10h1v1h-1zM2,11h1v1h-1zM3,11h1v1h-1zM3,10h1v1h-1zM4,10h1v1h-1zM4,11h1v1h-1zM5,11h1v1h-1zM5,10h1v1h-1zM6,10h1v1h-1zM6,9h1v1h-1zM7,9h1v1h-1zM7,10h1v1h-1zM7,11h1v1h-1zM6,11h1v1h-1z"/><path fill="#000000" d="M9,3h1v1h-1zM9,4h1v1h-1zM9,5h1v1h-1zM9,6h1v1h-1zM9,7h1v1h-1zM9,8h1v1h-1zM10,7h1v1h-1zM10,6h1v1h-1zM10,5h1v1h-1zM10,4h1v1h-1zM11,5h1v1h-1zM11,6h1v1h-1zM8,6h1v1h-1zM8,5h1v1h-1zM7,5h1v1h-1zM7,6h1v1h-1zM6,6h1v1h-1zM6,5h1v1h-1zM5,5h1v1h-1zM5,6h1v1h-1zM4,6h1v1h-1zM4,5h1v1h-1z"/>
</svg>