<svg xmlns="http://www.w3.org/2000/svg" viewBox="0 0 12 12" shape-rendering="crispEdges">
<path fill="#000000" d="M4,0h1v1h-1zM4,1h1v1h-1zM4,2h1v1h-1zM3,2h1v1h-1zM3,1h1v1h-1zM3,3h1v1h-1zM3,4h1v1h-1zM2,4h1v1h-1zM2,3h1v1h-1zM2,2h1v1h-1zM5,1h1v1h-1zM5,0h1v1h-1zM6,0h1v1h-1zM6,1h1v1h-1zM7,1h1v1h-1zM7,0h1v1h-1zM7,2h1v1h-1zM8,2h1v1h-1zM8,1h1v1h-1zM8,3h1v1h-1zM8,4h1v1h-1zM8,5h1v1h-1zM8,6h1v1h-1zM7,6h1v1h-1zM7,5h1v1h-1zM7,7h1v1h-1zM6,7h1v1h-1zM6,6h1v1h-1zM6,8h1v1h-1zM5,8h1v1h-1zM5,7h1v1h-1zM9,5h1v1h-1zM9,4h1v1h-1zM9,3h1v1h-1zM9,2h1v1h-1z"/><path fill="#000000" d="M5,10h1v1h-1zM5,11h1v1h-1zM6,11h1v1h-1zM6,10h1v1h-1z"/>
</svg>