<svg xmlns="http://www.w3.org/2000/svg" viewBox="0 0 12 12" shape-rendering="crispEdges">
<path fill="#000000" d="M5,0h1v1h-1zM5,1h1v1h-1zM5,2h1v1h-1zM5,3h1v1h-1zM5,4h1v1h-1zM5,5h1v1h-1zM5,6h1v1h-1zM5,7h1v1h-1zM5,8h1v1h-1zM4,8h1v1h-1zM4,7h1v1h-1zM4,6h1v1h-1zM4,5h1v1h-1zM4,4h1v1h-1zM4,3h1v1h-1zM4,2h1v1h-1zM3,4h1v1h-1zM3,5h1v1h-1zM3,6h1v1h-1zM3,7h1v1h-1zM3,8h1v1h-1zM3,9h1v1h-1zM3,10h1v1h-1zM2,10h1v1h-1zM2,11h1v1h-1zM4,9h1v1h-1zM2,6h1v1h-1zM2,5h1v1h-1zM2,4h1v1h-1zM1,4h1v1h-1zM1,5h1v1h-1zM0,4h1v1h-1zM6,8h1v1h-1zM6,7h1v1h-1zM6,6h1v1h-1zM6,5h1v1h-1zM6,4h1v1h-1zM6,3h1v1h-1zM6,2h1v1h-1zM6,1h1v1h-1zM6,0h1v1h-1zM7,2h1v1h-1zM7,3h1v1h-1zM7,4h1v1h-1zM7,5h1v1h-1zM7,6h1v1h-1zM7,7h1v1h-1zM7,8h1v1h-1zM7,9h1v1h-1zM8,9h1v1h-1zM8,8h1v1h-1zM8,7h1v1h-1zM8,6h1v1h-1zM8,5h1v1h-1zM8,4h1v1h-1zM9,4h1v1h-1zM9,5h1v1h-1zM9,6h1v1h-1zM10,5h1v1h-1zM10,4h1v1h-1zM11,4h1v1h-1zM8,10h1v1h-1zM9,10h1v1h-1zM9,11h1v1h-1z"/>
</svg>