<svg xmlns="http://www.w3.org/2000/svg" viewBox="0 0 12 12" shape-rendering="crispEdges">
<path fill="#000000" d="M4,0h1v1h-1zM4,1h1v1h-1zM4,2h1v1h-1zM4,3h1v1h-1zM4,4h1v1h-1zM4,5h1v1h-1zM5,5h1v1h-1zM5,4h1v1h-1zM5,3h1v1h-1zM5,2h1v1h-1zM5,1h1v1h-1zM5,0h1v1h-1zM6,0h1v1h-1zM6,1h1v1h-1zM6,2h1v1h-1zM6,3h1v1h-1zM6,4h1v1h-1zM6,5h1v1h-1zM7,5h1v1h-1zM7,4h1v1h-1zM7,3h1v1h-1zM7,2h1v1h-1zM7,1h1v1h-1zM7,0h1v1h-1zM8,1h1v1h-1zM8,2h1v1h-1zM8,3h1v1h-1zM8,4h1v1h-1zM3,4h1v1h-1zM3,3h1v1h-1zM3,2h1v1h-1zM3,1h1v1h-1z"/><path fill="#000000" d="M3,7h1v1h-1zM3,8h1v1h-1zM3,9h1v1h-1zM3,10h1v1h-1zM3,11h1v1h-1zM2,11h1v1h-1zM2,10h1v1h-1zM2,9h1v1h-1zM2,8h1v1h-1zM1,9h1v1h-1zM1,10h1v1h-1zM1,11h1v1h-1zM4,11h1v1h-1zM4,10h1v1h-1zM4,9h1v1h-1zM4,8h1v1h-1zM4,7h1v1h-1zM5,7h1v1h-1zM5,8h1v1h-1zM5,9h1v1h-1zM5,10h1v1h-1zM5,11h1v1h-1zM6,11h1v1h-1zM6,10h1v1h-1zM6,9h1v1h-1zM6,8h1v1h-1zM6,7h1v1h-1zM7,7h1v1h-1zM7,8h1v1h-1zM7,9h1v1h-1zM7,10h1v1h-1zM7,11h1v1h-1zM8,11h1v1h-1zM8,10h1v1h-1zM8,9h1v1h-1zM8,8h1v1h-1zM8,7h1v1h-1zM9,8h1v1h-1zM9,9h1v1h-1zM9,10h1v1h-1zM9,11h1v1h-1zM10,11h1v1h-1zM10,10h1v1h-1zM10,9h1v1h-1z"/>
</svg>