<svg xmlns="http://www.w3.org/2000/svg" viewBox="0 0 12 12" shape-rendering="crispEdges">
<path fill="#000000" d="M9,0h1v1h-1zM9,1h1v1h-1zM9,2h1v1h-1zM10,2h1v1h-1zM10,1h1v1h-1zM10,3h1v1h-1zM11,2h1v1h-1zM8,1h1v1h-1z"/><path fill="#000000" d="M7,2h1v1h-1zM7,3h1v1h-1zM7,4h1v1h-1zM7,5h1v1h-1zM7,6h1v1h-1zM6,6h1v1h-1zM6,5h1v1h-1zM6,4h1v1h-1zM6,3h1v1h-1zM5,4h1v1h-1zM5,5h1v1h-1zM5,6h1v1h-1zM5,7h1v1h-1zM5,8h1v1h-1zM4,8h1v1h-1zM4,7h1v1h-1zM4,6h1v1h-1zM4,5h1v1h-1zM3,6h1v1h-1zM3,7h1v1h-1zM3,8h1v1h-1zM3,9h1v1h-1zM3,10h1v1h-1zM2,10h1v1h-1zM2,9h1v1h-1zM2,8h1v1h-1zM2,7h1v1h-1zM1,8h1v1h-1zM1,9h1v1h-1zM1,10h1v1h-1zM1,11h1v1h-1zM0,11h1v1h-1zM0,10h1v1h-1zM0,9h1v1h-1zM2,11h1v1h-1zM4,9h1v1h-1zM6,7h1v1h-1zM8,5h1v1h-1zM8,4h1v1h-1zM8,3h1v1h-1zM9,4h1v1h-1z"/>
</svg>