<svg xmlns="http://www.w3.org/2000/svg" viewBox="0 0 12 12" shape-rendering="crispEdges">
<path fill="#000000" d="M2,0h1v1h-1zM2,1h1v1h-1zM2,2h1v1h-1zM1,2h1v1h-1zM1,1h1v1h-1zM1,3h1v1h-1zM1,4h1v1h-1zM1,5h1v1h-1zM1,6h1v1h-1zM2,6h1v1h-1zM2,5h1v1h-1zM2,7h1v1h-1zM3,7h1v1h-1zM3,6h1v1h-1zM4,6h1v1h-1zM4,7h1v1h-1zM5,7h1v1h-1zM5,6h1v1h-1zM5,5h1v1h-1zM6,5h1v1h-1zM6,4h1v1h-1zM6,3h1v1h-1zM6,2h1v1h-1zM6,1h1v1h-1zM5,1h1v1h-1zM5,0h1v1h-1zM4,0h1v1h-1zM4,1h1v1h-1zM3,1h1v1h-1zM3,0h1v1h-1zM5,2h1v1h-1zM7,2h1v1h-1zM7,3h1v1h-1zM7,4h1v1h-1zM7,5h1v1h-1zM6,6h1v1h-1zM0,5h1v1h-1zM0,4h1v1h-1zM0,3h1v1h-1zM0,2h1v1h-1z"/><path fill="#000000" d="M7,7h1v1h-1zM7,8h1v1h-1zM8,8h1v1h-1zM8,7h1v1h-1zM8,9h1v1h-1zM9,9h1v1h-1zM9,8h1v1h-1zM9,10h1v1h-1zM10,10h1v1h-1zM10,9h1v1h-1zM10,11h1v1h-1zM11,10h1v1h-1z"/>
</svg>