<svg xmlns="http://www.w3.org/2000/svg" viewBox="0 0 102 34" shape-rendering="crispEdges">
<path fill="#aec687" d="M0,0h1v1h-1zM0,1h1v1h-1z"/><path fill="#7dad4e" d="M1,0h1v1h-1zM1,1h1v1h-1zM1,2h1v1h-1zM1,3h1v1h-1zM0,3h1v1h-1zM0,2h1v1h-1zM0,4h1v1h-1zM0,5h1v1h-1zM2,3h1v1h-1zM2,4h1v1h-1zM2,5h1v1h-1zM2,6h1v1h-1zM1,6h1v1h-1zM1,7h1v1h-1zM1,8h1v1h-1zM1,9h1v1h-1zM2,9h1v1h-1zM2,10h1v1h-1zM3,9h1v1h-1zM3,8h1v1h-1zM3,7h1v1h-1zM3,6h1v1h-1zM4,6h1v1h-1zM4,5h1v1h-1zM4,7h1v1h-1zM4,8h1v1h-1zM5,8h1v1h-1zM5,9h1v1h-1zM5,10h1v1h-1zM5,11h1v1h-1zM5,12h1v1h-1zM4,12h1v1h-1zM4,11h1v1h-1zM4,10h1v1h-1zM4,13h1v1h-1zM4,14h1v1h-1zM3,14h1v1h-1zM3,13h1v1h-1zM3,15h1v1h-1zM3,16h1v1h-1zM3,17h1v1h-1zM3,18h1v1h-1zM2,18h1v1h-1zM2,19h1v1h-1zM2,20h1v1h-1zM2,21h1v1h-1zM2,22h1v1h-1zM2,23h1v1h-1zM2,24h1v1h-1zM1,24h1v1h-1zM1,23h1v1h-1zM0,23h1v1h-1zM0,22h1v1h-1zM3,24h1v1h-1zM3,23h1v1h-1zM3,25h1v1h-1zM3,26h1v1h-1zM3,27h1v1h-1zM3,21h1v1h-1zM4,21h1v1h-1zM4,20h1v1h-1zM4,22h1v1h-1zM1,19h1v1h-1zM1,18h1v1h-1zM1,17h1v1h-1zM1,16h1v1h-1zM0,17h1v1h-1zM0,18h1v1h-1zM2,14h1v1h-1zM5,14h1v1h-1zM5,15h1v1h-1zM6,12h1v1h-1zM6,13h1v1h-1zM7,13h1v1h-1zM7,12h1v1h-1zM7,14h1v1h-1zM7,15h1v1h-1zM7,16h1v1h-1zM7,17h1v1h-1zM7,18h1v1h-1zM7,19h1v1h-1zM7,20h1v1h-1zM7,21h1v1h-1zM6,21h1v1h-1zM6,20h1v1h-1zM6,19h1v1h-1zM6,22h1v1h-1zM8,20h1v1h-1zM9,20h1v1h-1zM9,19h1v1h-1zM9,18h1v1h-1zM10,18h1v1h-1zM10,17h1v1h-1zM11,18h1v1h-1zM11,19h1v1h-1zM9,21h1v1h-1zM9,22h1v1h-1zM9,23h1v1h-1zM8,23h1v1h-1zM8,22h1v1h-1zM8,24h1v1h-1zM8,25h1v1h-1zM7,25h1v1h-1zM7,24h1v1h-1zM7,26h1v1h-1zM7,27h1v1h-1zM7,28h1v1h-1zM7,29h1v1h-1zM6,29h1v1h-1zM6,28h1v1h-1zM6,27h1v1h-1zM6,30h1v1h-1zM5,30h1v1h-1zM5,31h1v1h-1zM5,32h1v1h-1zM5,33h1v1h-1zM4,31h1v1h-1zM4,30h1v1h-1zM4,29h1v1h-1zM4,28h1v1h-1zM3,30h1v1h-1zM10,23h1v1h-1zM10,24h1v1h-1zM11,24h1v1h-1zM11,23h1v1h-1zM11,22h1v1h-1zM12,22h1v1h-1zM12,21h1v1h-1zM12,20h1v1h-1zM13,20h1v1h-1zM13,19h1v1h-1zM13,18h1v1h-1zM13,17h1v1h-1zM13,16h1v1h-1zM13,15h1v1h-1zM13,14h1v1h-1zM13,13h1v1h-1zM13,12h1v1h-1zM13,11h1v1h-1zM13,10h1v1h-1zM13,9h1v1h-1zM13,8h1v1h-1zM13,7h1v1h-1zM12,7h1v1h-1zM12,6h1v1h-1zM12,5h1v1h-1zM12,4h1v1h-1zM11,4h1v1h-1zM11,3h1v1h-1zM11,2h1v1h-1zM10,2h1v1h-1zM10,1h1v1h-1zM10,0h1v1h-1zM9,0h1v1h-1zM9,1h1v1h-1zM9,2h1v1h-1zM9,3h1v1h-1zM9,4h1v1h-1zM9,5h1v1h-1zM10,5h1v1h-1zM10,6h1v1h-1zM10,7h1v1h-1zM10,8h1v1h-1zM11,6h1v1h-1zM11,5h1v1h-1zM8,4h1v1h-1zM7,4h1v1h-1zM7,3h1v1h-1zM7,2h1v1h-1zM6,2h1v1h-1zM6,3h1v1h-1zM6,4h1v1h-1zM6,5h1v1h-1zM6,6h1v1h-1zM6,7h1v1h-1zM6,8h1v1h-1zM7,7h1v1h-1zM7,6h1v1h-1zM7,5h1v1h-1zM8,6h1v1h-1zM8,7h1v1h-1zM8,8h1v1h-1zM8,9h1v1h-1zM7,9h1v1h-1zM7,10h1v1h-1zM9,9h1v1h-1zM9,10h1v1h-1zM9,11h1v1h-1zM9,12h1v1h-1zM8,1h1v1h-1zM13,4h1v1h-1zM13,3h1v1h-1zM13,2h1v1h-1zM14,3h1v1h-1zM15,3h1v1h-1zM15,2h1v1h-1zM15,1h1v1h-1zM15,0h1v1h-1zM14,0h1v1h-1zM13,0h1v1h-1zM12,0h1v1h-1zM12,1h1v1h-1zM15,4h1v1h-1zM15,5h1v1h-1zM16,5h1v1h-1zM16,4h1v1h-1zM16,3h1v1h-1zM17,3h1v1h-1zM17,2h1v1h-1zM18,2h1v1h-1zM18,3h1v1h-1zM18,4h1v1h-1zM18,5h1v1h-1zM18,6h1v1h-1zM18,7h1v1h-1zM17,7h1v1h-1zM17,6h1v1h-1zM17,8h1v1h-1zM16,8h1v1h-1zM16,9h1v1h-1zM15,9h1v1h-1zM19,7h1v1h-1zM19,6h1v1h-1zM19,5h1v1h-1zM19,4h1v1h-1zM20,4h1v1h-1zM20,3h1v1h-1zM20,2h1v1h-1zM20,1h1v1h-1zM19,1h1v1h-1zM19,0h1v1h-1zM18,0h1v1h-1zM21,1h1v1h-1zM21,2h1v1h-1zM21,3h1v1h-1zM21,4h1v1h-1zM21,5h1v1h-1zM21,6h1v1h-1zM21,7h1v1h-1zM22,7h1v1h-1zM22,6h1v1h-1zM22,5h1v1h-1zM22,8h1v1h-1zM22,9h1v1h-1zM20,5h1v1h-1zM22,3h1v1h-1zM19,8h1v1h-1zM19,9h1v1h-1zM19,10h1v1h-1zM19,11h1v1h-1zM18,11h1v1h-1zM18,10h1v1h-1zM17,10h1v1h-1zM17,11h1v1h-1zM18,12h1v1h-1zM18,13h1v1h-1zM18,14h1v1h-1zM18,15h1v1h-1zM18,16h1v1h-1zM18,17h1v1h-1zM18,18h1v1h-1zM18,19h1v1h-1zM18,20h1v1h-1zM18,21h1v1h-1zM17,21h1v1h-1zM17,20h1v1h-1zM17,19h1v1h-1zM17,18h1v1h-1zM16,18h1v1h-1zM16,17h1v1h-1zM15,17h1v1h-1zM15,16h1v1h-1zM15,15h1v1h-1zM15,14h1v1h-1zM15,13h1v1h-1zM14,13h1v1h-1zM14,12h1v1h-1zM14,11h1v1h-1zM14,10h1v1h-1zM16,13h1v1h-1zM16,12h1v1h-1zM16,14h1v1h-1zM19,21h1v1h-1zM19,22h1v1h-1zM19,23h1v1h-1zM19,24h1v1h-1zM18,24h1v1h-1zM18,25h1v1h-1zM18,26h1v1h-1zM18,27h1v1h-1zM18,28h1v1h-1zM19,26h1v1h-1zM20,26h1v1h-1zM20,25h1v1h-1zM20,24h1v1h-1zM21,24h1v1h-1zM21,23h1v1h-1zM21,22h1v1h-1zM22,24h1v1h-1zM22,25h1v1h-1zM22,26h1v1h-1zM22,27h1v1h-1zM22,28h1v1h-1zM22,29h1v1h-1zM22,30h1v1h-1zM22,31h1v1h-1zM22,32h1v1h-1zM22,33h1v1h-1zM21,33h1v1h-1zM21,31h1v1h-1zM23,31h1v1h-1zM23,30h1v1h-1zM23,29h1v1h-1zM24,29h1v1h-1zM24,28h1v1h-1zM24,27h1v1h-1zM24,26h1v1h-1zM25,26h1v1h-1zM25,25h1v1h-1zM25,24h1v1h-1zM24,24h1v1h-1zM24,23h1v1h-1zM25,27h1v1h-1zM26,27h1v1h-1zM26,28h1v1h-1zM27,27h1v1h-1zM27,26h1v1h-1zM27,25h1v1h-1zM27,24h1v1h-1zM28,26h1v1h-1zM28,27h1v1h-1zM28,28h1v1h-1zM28,29h1v1h-1zM28,30h1v1h-1zM28,31h1v1h-1zM29,31h1v1h-1zM29,32h1v1h-1zM29,33h1v1h-1zM30,33h1v1h-1zM30,32h1v1h-1zM31,33h1v1h-1zM32,33h1v1h-1zM32,32h1v1h-1zM32,31h1v1h-1zM33,31h1v1h-1zM33,32h1v1h-1zM33,33h1v1h-1zM34,33h1v1h-1zM34,32h1v1h-1zM27,30h1v1h-1zM29,27h1v1h-1zM29,26h1v1h-1zM29,25h1v1h-1zM29,24h1v1h-1zM29,23h1v1h-1zM28,23h1v1h-1zM28,22h1v1h-1zM28,21h1v1h-1zM28,20h1v1h-1zM28,19h1v1h-1zM29,19h1v1h-1zM29,20h1v1h-1zM29,21h1v1h-1zM30,21h1v1h-1zM30,22h1v1h-1zM31,21h1v1h-1zM31,20h1v1h-1zM31,19h1v1h-1zM31,18h1v1h-1zM32,18h1v1h-1zM32,17h1v1h-1zM32,16h1v1h-1zM32,15h1v1h-1zM32,14h1v1h-1zM32,13h1v1h-1zM31,13h1v1h-1zM31,14h1v1h-1zM31,15h1v1h-1zM31,16h1v1h-1zM30,15h1v1h-1zM30,14h1v1h-1zM30,13h1v1h-1zM30,12h1v1h-1zM30,11h1v1h-1zM30,10h1v1h-1zM30,9h1v1h-1zM30,8h1v1h-1zM29,10h1v1h-1zM28,10h1v1h-1zM28,9h1v1h-1zM28,8h1v1h-1zM28,7h1v1h-1zM28,6h1v1h-1zM28,5h1v1h-1zM28,4h1v1h-1zM28,3h1v1h-1zM28,2h1v1h-1zM28,1h1v1h-1zM28,0h1v1h-1zM27,2h1v1h-1zM27,3h1v1h-1zM29,2h1v1h-1zM30,2h1v1h-1zM30,1h1v1h-1zM30,0h1v1h-1zM31,0h1v1h-1zM30,3h1v1h-1zM30,4h1v1h-1zM30,5h1v1h-1zM29,5h1v1h-1zM29,6h1v1h-1zM29,7h1v1h-1zM31,5h1v1h-1zM31,4h1v1h-1zM32,4h1v1h-1zM32,3h1v1h-1zM32,5h1v1h-1zM33,5h1v1h-1zM33,6h1v1h-1zM34,6h1v1h-1zM34,5h1v1h-1zM34,4h1v1h-1zM34,7h1v1h-1zM35,7h1v1h-1zM35,6h1v1h-1zM35,8h1v1h-1zM35,9h1v1h-1zM31,6h1v1h-1zM27,6h1v1h-1zM27,7h1v1h-1zM26,7h1v1h-1zM26,6h1v1h-1zM26,5h1v1h-1zM26,4h1v1h-1zM25,7h1v1h-1zM25,8h1v1h-1zM25,9h1v1h-1zM25,10h1v1h-1zM25,11h1v1h-1zM25,12h1v1h-1zM26,12h1v1h-1zM26,13h1v1h-1zM27,13h1v1h-1zM27,12h1v1h-1zM27,11h1v1h-1zM28,11h1v1h-1zM27,14h1v1h-1zM27,15h1v1h-1zM27,16h1v1h-1zM27,17h1v1h-1zM27,18h1v1h-1zM26,18h1v1h-1zM26,19h1v1h-1zM26,20h1v1h-1zM25,19h1v1h-1zM25,18h1v1h-1zM25,17h1v1h-1zM24,17h1v1h-1zM24,16h1v1h-1zM24,15h1v1h-1zM24,14h1v1h-1zM24,13h1v1h-1zM23,13h1v1h-1zM23,12h1v1h-1zM23,11h1v1h-1zM23,10h1v1h-1zM24,11h1v1h-1zM23,14h1v1h-1zM23,15h1v1h-1zM23,16h1v1h-1zM23,17h1v1h-1zM22,17h1v1h-1zM22,16h1v1h-1zM22,14h1v1h-1zM22,13h1v1h-1zM21,13h1v1h-1zM21,12h1v1h-1zM21,11h1v1h-1zM20,12h1v1h-1zM20,13h1v1h-1zM20,14h1v1h-1zM20,15h1v1h-1zM20,16h1v1h-1zM19,15h1v1h-1zM21,15h1v1h-1zM21,14h1v1h-1zM24,18h1v1h-1zM24,19h1v1h-1zM24,20h1v1h-1zM24,21h1v1h-1zM23,21h1v1h-1zM23,20h1v1h-1zM22,20h1v1h-1zM22,19h1v1h-1zM22,21h1v1h-1zM23,22h1v1h-1zM28,17h1v1h-1zM28,16h1v1h-1zM28,15h1v1h-1zM28,14h1v1h-1zM29,14h1v1h-1zM26,15h1v1h-1zM24,8h1v1h-1zM24,7h1v1h-1zM24,6h1v1h-1zM24,5h1v1h-1zM24,4h1v1h-1zM24,3h1v1h-1zM29,12h1v1h-1zM33,17h1v1h-1zM33,18h1v1h-1zM33,19h1v1h-1zM33,20h1v1h-1zM33,21h1v1h-1zM33,22h1v1h-1zM33,23h1v1h-1zM33,24h1v1h-1zM33,25h1v1h-1zM32,25h1v1h-1zM32,26h1v1h-1zM34,25h1v1h-1zM34,24h1v1h-1zM34,23h1v1h-1zM35,23h1v1h-1zM35,22h1v1h-1zM35,21h1v1h-1zM35,20h1v1h-1zM35,24h1v1h-1zM34,26h1v1h-1zM34,27h1v1h-1zM34,28h1v1h-1zM33,28h1v1h-1zM33,27h1v1h-1zM33,29h1v1h-1zM32,29h1v1h-1zM35,28h1v1h-1zM35,27h1v1h-1zM35,26h1v1h-1zM35,29h1v1h-1zM35,30h1v1h-1zM35,31h1v1h-1zM36,30h1v1h-1zM36,29h1v1h-1zM37,29h1v1h-1zM37,28h1v1h-1zM37,27h1v1h-1zM38,27h1v1h-1zM38,26h1v1h-1zM38,25h1v1h-1zM39,25h1v1h-1zM39,24h1v1h-1zM39,23h1v1h-1zM39,22h1v1h-1zM38,22h1v1h-1zM37,22h1v1h-1zM37,23h1v1h-1zM37,24h1v1h-1zM40,22h1v1h-1zM40,23h1v1h-1zM40,24h1v1h-1zM40,25h1v1h-1zM40,26h1v1h-1zM40,27h1v1h-1zM41,26h1v1h-1zM41,25h1v1h-1zM41,22h1v1h-1zM38,28h1v1h-1zM39,28h1v1h-1zM39,29h1v1h-1zM39,30h1v1h-1zM39,31h1v1h-1zM39,32h1v1h-1zM39,33h1v1h-1zM38,33h1v1h-1zM38,32h1v1h-1zM38,31h1v1h-1zM37,33h1v1h-1zM36,33h1v1h-1zM36,32h1v1h-1zM40,33h1v1h-1zM40,32h1v1h-1zM40,31h1v1h-1zM40,30h1v1h-1zM41,30h1v1h-1zM41,29h1v1h-1zM42,29h1v1h-1zM42,28h1v1h-1zM42,27h1v1h-1zM43,28h1v1h-1zM44,28h1v1h-1zM44,27h1v1h-1zM44,26h1v1h-1zM44,25h1v1h-1zM45,25h1v1h-1zM45,24h1v1h-1zM45,23h1v1h-1zM45,26h1v1h-1zM46,26h1v1h-1zM46,27h1v1h-1zM47,27h1v1h-1zM47,26h1v1h-1zM47,25h1v1h-1zM47,24h1v1h-1zM47,23h1v1h-1zM47,22h1v1h-1zM46,22h1v1h-1zM48,24h1v1h-1zM49,24h1v1h-1zM49,23h1v1h-1zM49,25h1v1h-1zM48,26h1v1h-1zM48,27h1v1h-1zM48,28h1v1h-1zM48,29h1v1h-1zM47,29h1v1h-1zM47,28h1v1h-1zM47,30h1v1h-1zM47,31h1v1h-1zM47,32h1v1h-1zM47,33h1v1h-1zM46,33h1v1h-1zM46,32h1v1h-1zM45,33h1v1h-1zM44,33h1v1h-1zM44,32h1v1h-1zM43,32h1v1h-1zM43,31h1v1h-1zM42,31h1v1h-1zM42,30h1v1h-1zM43,33h1v1h-1zM48,33h1v1h-1zM48,32h1v1h-1zM49,28h1v1h-1zM50,28h1v1h-1zM50,27h1v1h-1zM50,26h1v1h-1zM50,29h1v1h-1zM50,30h1v1h-1zM49,30h1v1h-1zM49,31h1v1h-1zM51,30h1v1h-1zM51,29h1v1h-1zM52,29h1v1h-1zM52,28h1v1h-1zM52,27h1v1h-1zM53,27h1v1h-1zM53,26h1v1h-1zM53,25h1v1h-1zM54,25h1v1h-1zM54,24h1v1h-1zM54,26h1v1h-1zM54,27h1v1h-1zM54,28h1v1h-1zM54,29h1v1h-1zM54,30h1v1h-1zM54,31h1v1h-1zM55,30h1v1h-1zM55,29h1v1h-1zM55,28h1v1h-1zM55,27h1v1h-1zM55,26h1v1h-1zM56,26h1v1h-1zM56,25h1v1h-1zM56,24h1v1h-1zM56,23h1v1h-1zM56,22h1v1h-1zM55,22h1v1h-1zM54,22h1v1h-1zM57,23h1v1h-1zM56,27h1v1h-1zM57,27h1v1h-1zM57,28h1v1h-1zM57,29h1v1h-1zM57,30h1v1h-1zM57,31h1v1h-1zM58,29h1v1h-1zM53,29h1v1h-1zM53,28h1v1h-1zM51,31h1v1h-1zM51,32h1v1h-1zM51,33h1v1h-1zM52,33h1v1h-1zM52,32h1v1h-1zM52,31h1v1h-1zM44,29h1v1h-1zM44,30h1v1h-1zM45,30h1v1h-1zM45,29h1v1h-1zM45,28h1v1h-1zM37,30h1v1h-1zM34,19h1v1h-1zM34,18h1v1h-1zM27,22h1v1h-1zM30,25h1v1h-1zM30,26h1v1h-1zM24,30h1v1h-1zM24,31h1v1h-1zM24,32h1v1h-1zM24,33h1v1h-1zM25,33h1v1h-1zM25,32h1v1h-1zM26,32h1v1h-1zM26,31h1v1h-1zM26,33h1v1h-1zM27,33h1v1h-1zM27,32h1v1h-1zM21,29h1v1h-1zM21,28h1v1h-1zM21,27h1v1h-1zM20,27h1v1h-1zM20,28h1v1h-1zM20,29h1v1h-1zM20,30h1v1h-1zM17,25h1v1h-1zM17,24h1v1h-1zM16,25h1v1h-1zM16,26h1v1h-1zM15,26h1v1h-1zM15,25h1v1h-1zM15,24h1v1h-1zM15,23h1v1h-1zM15,22h1v1h-1zM15,21h1v1h-1zM15,20h1v1h-1zM15,19h1v1h-1zM14,19h1v1h-1zM14,18h1v1h-1zM14,20h1v1h-1zM14,22h1v1h-1zM14,23h1v1h-1zM14,24h1v1h-1zM14,25h1v1h-1zM14,26h1v1h-1zM14,27h1v1h-1zM14,28h1v1h-1zM13,28h1v1h-1zM13,29h1v1h-1zM15,28h1v1h-1zM15,27h1v1h-1zM15,29h1v1h-1zM15,30h1v1h-1zM15,31h1v1h-1zM15,32h1v1h-1zM14,32h1v1h-1zM14,33h1v1h-1zM13,32h1v1h-1zM12,32h1v1h-1zM12,31h1v1h-1zM11,31h1v1h-1zM11,30h1v1h-1zM11,32h1v1h-1zM11,33h1v1h-1zM12,33h1v1h-1zM10,32h1v1h-1zM16,32h1v1h-1zM16,31h1v1h-1zM16,33h1v1h-1zM17,33h1v1h-1zM18,33h1v1h-1zM18,32h1v1h-1zM18,31h1v1h-1zM18,30h1v1h-1zM17,30h1v1h-1zM17,29h1v1h-1zM16,29h1v1h-1zM19,32h1v1h-1zM19,33h1v1h-1zM13,26h1v1h-1zM13,24h1v1h-1zM12,24h1v1h-1zM12,23h1v1h-1zM12,25h1v1h-1zM11,25h1v1h-1zM11,26h1v1h-1zM16,22h1v1h-1zM19,19h1v1h-1zM17,15h1v1h-1zM20,10h1v1h-1zM20,8h1v1h-1zM17,4h1v1h-1zM12,8h1v1h-1zM12,9h1v1h-1zM12,10h1v1h-1zM12,11h1v1h-1zM11,11h1v1h-1zM11,12h1v1h-1zM14,7h1v1h-1zM14,6h1v1h-1zM14,8h1v1h-1zM12,15h1v1h-1zM12,16h1v1h-1zM11,15h1v1h-1zM11,14h1v1h-1zM13,21h1v1h-1zM6,17h1v1h-1zM6,16h1v1h-1zM5,17h1v1h-1zM5,18h1v1h-1zM8,17h1v1h-1zM8,16h1v1h-1zM8,15h1v1h-1zM9,15h1v1h-1zM9,14h1v1h-1zM9,16h1v1h-1zM2,1h1v1h-1zM2,0h1v1h-1zM3,0h1v1h-1z"/><path fill="#8eb865" d="M4,0h1v1h-1z"/><path fill="#7dad4e" d="M5,0h1v1h-1zM5,1h1v1h-1zM4,1h1v1h-1zM4,2h1v1h-1zM4,3h1v1h-1zM3,2h1v1h-1zM6,0h1v1h-1zM7,0h1v1h-1z"/><path fill="#8eb865" d="M8,0h1v1h-1z"/><path fill="#8eb865" d="M11,0h1v1h-1zM11,1h1v1h-1z"/><path fill="#8eb865" d="M16,0h1v1h-1zM16,1h1v1h-1zM16,2h1v1h-1z"/><path fill="#6ca147" d="M17,0h1v1h-1zM17,1h1v1h-1z"/><path fill="#aec687" d="M20,0h1v1h-1z"/><path fill="#8eb865" d="M21,0h1v1h-1z"/><path fill="#7dad4e" d="M22,0h1v1h-1zM23,0h1v1h-1zM23,1h1v1h-1zM23,2h1v1h-1zM24,0h1v1h-1zM25,0h1v1h-1zM25,1h1v1h-1zM25,2h1v1h-1zM26,1h1v1h-1zM26,0h1v1h-1z"/><path fill="#8eb865" d="M27,0h1v1h-1zM27,1h1v1h-1z"/><path fill="#8eb865" d="M29,0h1v1h-1zM29,1h1v1h-1z"/><path fill="#8eb865" d="M32,0h1v1h-1z"/><path fill="#7dad4e" d="M33,0h1v1h-1z"/><path fill="#aec687" d="M34,0h1v1h-1z"/><path fill="#7dad4e" d="M35,0h1v1h-1z"/><path fill="#8eb865" d="M36,0h1v1h-1zM36,1h1v1h-1zM36,2h1v1h-1z"/><path fill="#7dad4e" d="M37,0h1v1h-1zM37,1h1v1h-1zM37,2h1v1h-1zM37,3h1v1h-1zM37,4h1v1h-1zM37,5h1v1h-1zM36,5h1v1h-1zM36,4h1v1h-1zM36,3h1v1h-1zM35,3h1v1h-1zM38,0h1v1h-1z"/><path fill="#8eb865" d="M39,0h1v1h-1z"/><path fill="#7dad4e" d="M40,0h1v1h-1zM41,0h1v1h-1zM41,1h1v1h-1zM41,2h1v1h-1zM41,3h1v1h-1zM41,4h1v1h-1zM41,5h1v1h-1zM40,5h1v1h-1zM40,4h1v1h-1zM40,3h1v1h-1zM40,2h1v1h-1zM39,3h1v1h-1zM39,5h1v1h-1zM39,6h1v1h-1zM42,5h1v1h-1zM42,4h1v1h-1zM43,4h1v1h-1zM43,3h1v1h-1zM43,2h1v1h-1zM43,1h1v1h-1zM43,0h1v1h-1zM42,0h1v1h-1zM42,1h1v1h-1zM44,1h1v1h-1zM44,2h1v1h-1zM44,4h1v1h-1zM42,6h1v1h-1z"/><path fill="#8eb865" d="M44,0h1v1h-1z"/><path fill="#7dad4e" d="M45,0h1v1h-1zM46,0h1v1h-1z"/><path fill="#6ca147" d="M47,0h1v1h-1z"/><path fill="#7dad4e" d="M48,0h1v1h-1zM48,1h1v1h-1zM47,1h1v1h-1zM47,2h1v1h-1zM47,3h1v1h-1zM46,3h1v1h-1zM45,3h1v1h-1zM49,0h1v1h-1zM50,0h1v1h-1zM50,1h1v1h-1zM50,2h1v1h-1zM50,3h1v1h-1zM50,4h1v1h-1zM49,4h1v1h-1zM49,3h1v1h-1zM49,2h1v1h-1zM51,3h1v1h-1zM51,2h1v1h-1zM51,1h1v1h-1zM51,0h1v1h-1zM52,1h1v1h-1zM52,2h1v1h-1zM52,3h1v1h-1zM52,4h1v1h-1zM52,5h1v1h-1zM52,6h1v1h-1zM52,7h1v1h-1zM51,7h1v1h-1zM51,6h1v1h-1zM51,5h1v1h-1zM51,8h1v1h-1zM50,8h1v1h-1zM53,7h1v1h-1zM53,3h1v1h-1zM54,3h1v1h-1zM54,2h1v1h-1zM54,4h1v1h-1zM54,5h1v1h-1zM55,4h1v1h-1z"/><path fill="#8eb865" d="M52,0h1v1h-1z"/><path fill="#7dad4e" d="M53,0h1v1h-1zM54,0h1v1h-1z"/><path fill="#8eb865" d="M55,0h1v1h-1zM55,1h1v1h-1z"/><path fill="#7dad4e" d="M56,0h1v1h-1zM56,1h1v1h-1zM56,2h1v1h-1zM56,3h1v1h-1zM57,3h1v1h-1zM57,2h1v1h-1zM57,1h1v1h-1zM58,1h1v1h-1zM58,0h1v1h-1zM59,1h1v1h-1zM59,2h1v1h-1zM60,1h1v1h-1zM60,0h1v1h-1zM61,0h1v1h-1zM61,1h1v1h-1zM62,1h1v1h-1zM62,2h1v1h-1zM62,3h1v1h-1zM62,4h1v1h-1zM62,5h1v1h-1zM62,6h1v1h-1zM62,7h1v1h-1zM63,7h1v1h-1zM63,6h1v1h-1zM63,5h1v1h-1zM61,5h1v1h-1zM60,5h1v1h-1zM60,4h1v1h-1zM60,3h1v1h-1zM60,6h1v1h-1zM60,7h1v1h-1zM59,6h1v1h-1zM58,6h1v1h-1zM58,5h1v1h-1zM58,4h1v1h-1zM58,3h1v1h-1zM57,4h1v1h-1zM58,7h1v1h-1zM57,7h1v1h-1zM56,7h1v1h-1zM56,6h1v1h-1zM56,5h1v1h-1zM63,3h1v1h-1zM64,3h1v1h-1z"/><path fill="#aec687" d="M57,0h1v1h-1z"/><path fill="#8eb865" d="M59,0h1v1h-1z"/><path fill="#8eb865" d="M62,0h1v1h-1z"/><path fill="#7dad4e" d="M63,0h1v1h-1zM64,0h1v1h-1zM64,1h1v1h-1z"/><path fill="#8eb865" d="M65,0h1v1h-1zM65,1h1v1h-1zM65,2h1v1h-1z"/><path fill="#7dad4e" d="M66,0h1v1h-1z"/><path fill="#aec687" d="M67,0h1v1h-1z"/><path fill="#8eb865" d="M68,0h1v1h-1zM68,1h1v1h-1z"/><path fill="#7dad4e" d="M69,0h1v1h-1zM69,1h1v1h-1zM69,2h1v1h-1zM69,3h1v1h-1zM69,4h1v1h-1zM69,5h1v1h-1zM69,6h1v1h-1zM69,7h1v1h-1zM68,7h1v1h-1zM68,6h1v1h-1zM67,6h1v1h-1zM67,5h1v1h-1zM67,4h1v1h-1zM66,4h1v1h-1zM70,7h1v1h-1zM70,6h1v1h-1zM70,5h1v1h-1zM71,6h1v1h-1zM68,3h1v1h-1zM68,2h1v1h-1zM67,2h1v1h-1zM67,1h1v1h-1zM70,1h1v1h-1zM70,0h1v1h-1zM71,0h1v1h-1zM71,1h1v1h-1zM71,2h1v1h-1zM72,0h1v1h-1z"/><path fill="#8eb865" d="M73,0h1v1h-1z"/><path fill="#7dad4e" d="M74,0h1v1h-1zM74,1h1v1h-1zM73,1h1v1h-1zM73,2h1v1h-1zM73,3h1v1h-1zM73,4h1v1h-1zM73,5h1v1h-1zM72,5h1v1h-1zM72,4h1v1h-1zM74,5h1v1h-1zM74,6h1v1h-1zM75,6h1v1h-1zM75,5h1v1h-1zM75,4h1v1h-1zM75,3h1v1h-1zM75,2h1v1h-1zM76,2h1v1h-1zM76,1h1v1h-1zM76,0h1v1h-1zM75,0h1v1h-1zM77,0h1v1h-1zM76,6h1v1h-1zM76,7h1v1h-1zM77,7h1v1h-1zM77,6h1v1h-1zM78,6h1v1h-1zM78,7h1v1h-1zM79,7h1v1h-1zM80,7h1v1h-1zM80,6h1v1h-1zM80,5h1v1h-1zM80,4h1v1h-1zM80,3h1v1h-1zM80,2h1v1h-1zM80,1h1v1h-1zM80,0h1v1h-1zM79,0h1v1h-1zM79,1h1v1h-1zM78,1h1v1h-1zM78,2h1v1h-1zM79,3h1v1h-1zM81,5h1v1h-1z"/><path fill="#8eb865" d="M78,0h1v1h-1z"/><path fill="#aec687" d="M81,0h1v1h-1zM81,1h1v1h-1z"/><path fill="#7dad4e" d="M82,0h1v1h-1zM83,0h1v1h-1zM83,1h1v1h-1zM83,2h1v1h-1zM83,3h1v1h-1zM82,3h1v1h-1zM82,2h1v1h-1zM82,4h1v1h-1zM84,3h1v1h-1zM84,4h1v1h-1zM84,1h1v1h-1zM84,0h1v1h-1zM85,0h1v1h-1zM85,1h1v1h-1zM85,2h1v1h-1zM86,1h1v1h-1z"/><path fill="#8eb865" d="M86,0h1v1h-1z"/><path fill="#7dad4e" d="M87,0h1v1h-1zM88,0h1v1h-1zM88,1h1v1h-1zM88,2h1v1h-1zM88,3h1v1h-1zM88,4h1v1h-1zM88,5h1v1h-1zM87,4h1v1h-1zM86,4h1v1h-1zM86,3h1v1h-1zM86,5h1v1h-1zM89,0h1v1h-1z"/><path fill="#6ca147" d="M90,0h1v1h-1zM90,1h1v1h-1z"/><path fill="#7dad4e" d="M91,0h1v1h-1zM91,1h1v1h-1zM91,2h1v1h-1zM91,3h1v1h-1zM90,2h1v1h-1zM92,0h1v1h-1zM93,0h1v1h-1zM94,0h1v1h-1z"/><path fill="#8eb865" d="M95,0h1v1h-1z"/><path fill="#7dad4e" d="M96,0h1v1h-1zM96,1h1v1h-1zM95,1h1v1h-1zM97,0h1v1h-1zM98,0h1v1h-1zM98,1h1v1h-1zM98,2h1v1h-1zM97,2h1v1h-1zM97,3h1v1h-1zM97,4h1v1h-1zM97,5h1v1h-1zM97,6h1v1h-1zM96,6h1v1h-1zM96,5h1v1h-1zM96,7h1v1h-1zM96,8h1v1h-1zM96,9h1v1h-1zM96,10h1v1h-1zM95,10h1v1h-1zM95,9h1v1h-1zM95,11h1v1h-1zM95,12h1v1h-1zM94,11h1v1h-1zM95,7h1v1h-1zM94,7h1v1h-1zM94,6h1v1h-1zM93,6h1v1h-1zM93,7h1v1h-1zM94,8h1v1h-1zM98,6h1v1h-1zM98,7h1v1h-1zM99,7h1v1h-1zM99,6h1v1h-1zM99,5h1v1h-1zM99,4h1v1h-1zM99,3h1v1h-1zM99,2h1v1h-1zM100,2h1v1h-1zM100,1h1v1h-1zM100,3h1v1h-1zM100,6h1v1h-1zM100,7h1v1h-1zM99,8h1v1h-1zM99,9h1v1h-1zM99,10h1v1h-1zM99,11h1v1h-1zM99,12h1v1h-1zM100,11h1v1h-1zM100,10h1v1h-1zM100,9h1v1h-1z"/><path fill="#aec687" d="M99,0h1v1h-1zM99,1h1v1h-1z"/><path fill="#8eb865" d="M100,0h1v1h-1z"/><path fill="#7dad4e" d="M101,0h1v1h-1z"/><path fill="#f0abff" d="M3,1h1v1h-1z"/><path fill="#8eb865" d="M6,1h1v1h-1z"/><path fill="#ffffff" d="M7,1h1v1h-1z"/><path fill="#aec687" d="M13,1h1v1h-1z"/><path fill="#8eb865" d="M14,1h1v1h-1zM14,2h1v1h-1z"/><path fill="#8eb865" d="M18,1h1v1h-1z"/><path fill="#8eb865" d="M22,1h1v1h-1zM22,2h1v1h-1z"/><path fill="#8eb865" d="M24,1h1v1h-1zM24,2h1v1h-1z"/><path fill="#8eb865" d="M31,1h1v1h-1zM31,2h1v1h-1zM31,3h1v1h-1z"/><path fill="#7dad4e" d="M32,1h1v1h-1z"/><path fill="#6ca147" d="M33,1h1v1h-1z"/><path fill="#7dad4e" d="M34,1h1v1h-1z"/><path fill="#aec687" d="M35,1h1v1h-1zM35,2h1v1h-1z"/><path fill="#8eb865" d="M38,1h1v1h-1zM38,2h1v1h-1z"/><path fill="#7dad4e" d="M39,1h1v1h-1z"/><path fill="#f0abff" d="M40,1h1v1h-1z"/><path fill="#8eb865" d="M45,1h1v1h-1zM45,2h1v1h-1z"/><path fill="#aec687" d="M46,1h1v1h-1zM46,2h1v1h-1z"/><path fill="#8eb865" d="M49,1h1v1h-1z"/><path fill="#8eb865" d="M53,1h1v1h-1zM53,2h1v1h-1z"/><path fill="#6ca147" d="M54,1h1v1h-1z"/><path fill="#8eb865" d="M63,1h1v1h-1zM63,2h1v1h-1z"/><path fill="#aec687" d="M66,1h1v1h-1zM66,2h1v1h-1zM66,3h1v1h-1z"/><path fill="#8eb865" d="M72,1h1v1h-1zM72,2h1v1h-1zM72,3h1v1h-1z"/><path fill="#f0abff" d="M75,1h1v1h-1z"/><path fill="#8eb865" d="M77,1h1v1h-1zM77,2h1v1h-1z"/><path fill="#8eb865" d="M82,1h1v1h-1z"/><path fill="#8eb865" d="M87,1h1v1h-1zM87,2h1v1h-1zM87,3h1v1h-1z"/><path fill="#8eb865" d="M89,1h1v1h-1zM89,2h1v1h-1zM89,3h1v1h-1z"/><path fill="#8eb865" d="M92,1h1v1h-1zM92,2h1v1h-1z"/><path fill="#ddcf00" d="M93,1h1v1h-1z"/><path fill="#8eb865" d="M94,1h1v1h-1zM94,2h1v1h-1z"/><path fill="#8eb865" d="M97,1h1v1h-1z"/><path fill="#8eb865" d="M101,1h1v1h-1zM101,2h1v1h-1z"/><path fill="#8eb865" d="M2,2h1v1h-1z"/><path fill="#8eb865" d="M5,2h1v1h-1zM5,3h1v1h-1zM5,4h1v1h-1z"/><path fill="#8eb865" d="M8,2h1v1h-1zM8,3h1v1h-1z"/><path fill="#ddcf00" d="M12,2h1v1h-1z"/><path fill="#8eb865" d="M19,2h1v1h-1zM19,3h1v1h-1z"/><path fill="#6ca147" d="M26,2h1v1h-1z"/><path fill="#ffffff" d="M32,2h1v1h-1z"/><path fill="#8eb865" d="M33,2h1v1h-1zM33,3h1v1h-1zM33,4h1v1h-1z"/><path fill="#6ca147" d="M34,2h1v1h-1zM34,3h1v1h-1z"/><path fill="#6ca147" d="M39,2h1v1h-1z"/><path fill="#8eb865" d="M42,2h1v1h-1zM42,3h1v1h-1z"/><path fill="#8eb865" d="M48,2h1v1h-1zM48,3h1v1h-1z"/><path fill="#6ca147" d="M55,2h1v1h-1zM55,3h1v1h-1z"/><path fill="#8eb865" d="M58,2h1v1h-1z"/><path fill="#ddcf00" d="M60,2h1v1h-1z"/><path fill="#8eb865" d="M61,2h1v1h-1zM61,3h1v1h-1zM61,4h1v1h-1z"/><path fill="#6ca147" d="M64,2h1v1h-1z"/><path fill="#6ca147" d="M70,2h1v1h-1z"/><path fill="#8eb865" d="M74,2h1v1h-1zM74,3h1v1h-1zM74,4h1v1h-1z"/><path fill="#6ca147" d="M79,2h1v1h-1z"/><path fill="#8eb865" d="M81,2h1v1h-1zM81,3h1v1h-1z"/><path fill="#8eb865" d="M84,2h1v1h-1z"/><path fill="#ffffff" d="M86,2h1v1h-1z"/><path fill="#7dad4e" d="M93,2h1v1h-1zM93,3h1v1h-1zM93,4h1v1h-1zM92,4h1v1h-1zM94,3h1v1h-1zM95,3h1v1h-1zM95,4h1v1h-1z"/><path fill="#ffffff" d="M95,2h1v1h-1z"/><path fill="#8eb865" d="M96,2h1v1h-1zM96,3h1v1h-1z"/><path fill="#8eb865" d="M3,3h1v1h-1zM3,4h1v1h-1zM3,5h1v1h-1z"/><path fill="#8eb865" d="M10,3h1v1h-1zM10,4h1v1h-1z"/><path fill="#8eb865" d="M12,3h1v1h-1z"/><path fill="#aec687" d="M23,3h1v1h-1zM23,4h1v1h-1z"/><path fill="#6ca147" d="M25,3h1v1h-1zM25,4h1v1h-1z"/><path fill="#8eb865" d="M26,3h1v1h-1z"/><path fill="#8eb865" d="M29,3h1v1h-1zM29,4h1v1h-1z"/><path fill="#6ca147" d="M38,3h1v1h-1zM38,4h1v1h-1z"/><path fill="#6ca147" d="M44,3h1v1h-1z"/><path fill="#8eb865" d="M59,3h1v1h-1zM59,4h1v1h-1zM59,5h1v1h-1z"/><path fill="#6ca147" d="M65,3h1v1h-1zM65,4h1v1h-1z"/><path fill="#8eb865" d="M67,3h1v1h-1z"/><path fill="#8eb865" d="M70,3h1v1h-1zM70,4h1v1h-1z"/><path fill="#6ca147" d="M71,3h1v1h-1zM71,4h1v1h-1zM71,5h1v1h-1z"/><path fill="#aec687" d="M76,3h1v1h-1z"/><path fill="#7dad4e" d="M77,3h1v1h-1z"/><path fill="#6ca147" d="M78,3h1v1h-1zM78,4h1v1h-1zM78,5h1v1h-1z"/><path fill="#8eb865" d="M85,3h1v1h-1zM85,4h1v1h-1zM85,5h1v1h-1z"/><path fill="#aec687" d="M90,3h1v1h-1z"/><path fill="#f0abff" d="M92,3h1v1h-1z"/><path fill="#8eb865" d="M98,3h1v1h-1z"/><path fill="#6ca147" d="M101,3h1v1h-1zM101,4h1v1h-1zM101,5h1v1h-1z"/><path fill="#8eb865" d="M1,4h1v1h-1zM1,5h1v1h-1z"/><path fill="#aec687" d="M4,4h1v1h-1z"/><path fill="#8eb865" d="M14,4h1v1h-1z"/><path fill="#8eb865" d="M22,4h1v1h-1z"/><path fill="#8eb865" d="M27,4h1v1h-1zM27,5h1v1h-1z"/><path fill="#8eb865" d="M35,4h1v1h-1zM35,5h1v1h-1z"/><path fill="#8eb865" d="M39,4h1v1h-1z"/><path fill="#000000" d="M45,4h1v1h-1zM46,4h1v1h-1zM47,4h1v1h-1zM48,4h1v1h-1z"/><path fill="#8eb865" d="M51,4h1v1h-1z"/><path fill="#ffffff" d="M53,4h1v1h-1z"/><path fill="#8eb865" d="M56,4h1v1h-1z"/><path fill="#8eb865" d="M63,4h1v1h-1z"/><path fill="#f0abff" d="M64,4h1v1h-1z"/><path fill="#8eb865" d="M68,4h1v1h-1zM68,5h1v1h-1z"/><path fill="#8eb865" d="M76,4h1v1h-1zM76,5h1v1h-1z"/><path fill="#aec687" d="M77,4h1v1h-1zM77,5h1v1h-1z"/><path fill="#8eb865" d="M79,4h1v1h-1zM79,5h1v1h-1zM79,6h1v1h-1z"/><path fill="#ddcf00" d="M81,4h1v1h-1z"/><path fill="#6ca147" d="M83,4h1v1h-1z"/><path fill="#aec687" d="M89,4h1v1h-1zM89,5h1v1h-1z"/><path fill="#7dad4e" d="M90,4h1v1h-1zM90,5h1v1h-1zM91,5h1v1h-1zM91,6h1v1h-1zM91,7h1v1h-1z"/><path fill="#8eb865" d="M91,4h1v1h-1z"/><path fill="#8eb865" d="M94,4h1v1h-1zM94,5h1v1h-1z"/><path fill="#aec687" d="M96,4h1v1h-1z"/><path fill="#f0abff" d="M98,4h1v1h-1z"/><path fill="#8eb865" d="M100,4h1v1h-1zM100,5h1v1h-1z"/><path fill="#aec687" d="M5,5h1v1h-1zM5,6h1v1h-1z"/><path fill="#8eb865" d="M8,5h1v1h-1z"/><path fill="#8eb865" d="M13,5h1v1h-1zM13,6h1v1h-1z"/><path fill="#aec687" d="M14,5h1v1h-1z"/><path fill="#8eb865" d="M17,5h1v1h-1z"/><path fill="#8eb865" d="M23,5h1v1h-1z"/><path fill="#8eb865" d="M25,5h1v1h-1zM25,6h1v1h-1z"/><path fill="#8eb865" d="M38,5h1v1h-1zM38,6h1v1h-1zM38,7h1v1h-1z"/><path fill="#8eb865" d="M43,5h1v1h-1zM43,6h1v1h-1z"/><path fill="#000000" d="M44,5h1v1h-1zM44,6h1v1h-1zM44,7h1v1h-1zM44,8h1v1h-1zM44,9h1v1h-1zM44,10h1v1h-1zM44,11h1v1h-1zM44,12h1v1h-1zM44,13h1v1h-1zM44,14h1v1h-1zM44,15h1v1h-1zM44,16h1v1h-1zM44,17h1v1h-1zM44,18h1v1h-1zM44,19h1v1h-1zM44,20h1v1h-1zM43,17h1v1h-1zM43,13h1v1h-1zM42,13h1v1h-1zM41,13h1v1h-1zM40,13h1v1h-1zM39,13h1v1h-1zM39,14h1v1h-1zM39,15h1v1h-1zM39,16h1v1h-1zM40,16h1v1h-1zM41,16h1v1h-1zM42,16h1v1h-1zM43,9h1v1h-1z"/><path fill="#eef283" d="M45,5h1v1h-1z"/><path fill="#96e04a" d="M46,5h1v1h-1z"/><path fill="#7bc241" d="M47,5h1v1h-1z"/><path fill="#298141" d="M48,5h1v1h-1zM48,6h1v1h-1zM48,7h1v1h-1zM48,8h1v1h-1zM48,9h1v1h-1zM48,10h1v1h-1zM48,11h1v1h-1zM48,12h1v1h-1zM48,13h1v1h-1zM48,14h1v1h-1zM48,15h1v1h-1zM48,16h1v1h-1zM48,17h1v1h-1zM48,18h1v1h-1zM48,19h1v1h-1zM48,20h1v1h-1zM47,20h1v1h-1zM46,20h1v1h-1zM45,20h1v1h-1z"/><path fill="#000000" d="M49,5h1v1h-1zM49,6h1v1h-1zM49,7h1v1h-1zM49,8h1v1h-1zM49,9h1v1h-1zM49,10h1v1h-1zM49,11h1v1h-1zM49,12h1v1h-1zM49,13h1v1h-1zM49,14h1v1h-1zM49,15h1v1h-1zM49,16h1v1h-1zM49,17h1v1h-1zM49,18h1v1h-1zM49,19h1v1h-1zM49,20h1v1h-1zM50,19h1v1h-1zM50,18h1v1h-1zM50,10h1v1h-1z"/><path fill="#8eb865" d="M50,5h1v1h-1zM50,6h1v1h-1zM50,7h1v1h-1z"/><path fill="#8eb865" d="M53,5h1v1h-1zM53,6h1v1h-1z"/><path fill="#aec687" d="M55,5h1v1h-1z"/><path fill="#8eb865" d="M57,5h1v1h-1zM57,6h1v1h-1z"/><path fill="#8eb865" d="M64,5h1v1h-1zM64,6h1v1h-1zM64,7h1v1h-1z"/><path fill="#7dad4e" d="M65,5h1v1h-1zM65,6h1v1h-1zM65,7h1v1h-1zM66,7h1v1h-1z"/><path fill="#8eb865" d="M66,5h1v1h-1zM66,6h1v1h-1z"/><path fill="#8eb865" d="M82,5h1v1h-1z"/><path fill="#7dad4e" d="M83,5h1v1h-1zM83,6h1v1h-1zM83,7h1v1h-1zM83,8h1v1h-1zM82,8h1v1h-1zM82,7h1v1h-1zM82,6h1v1h-1zM82,9h1v1h-1zM81,8h1v1h-1z"/><path fill="#6ca147" d="M84,5h1v1h-1zM84,6h1v1h-1z"/><path fill="#8eb865" d="M87,5h1v1h-1z"/><path fill="#8eb865" d="M92,5h1v1h-1zM92,6h1v1h-1z"/><path fill="#ddcf00" d="M93,5h1v1h-1z"/><path fill="#aec687" d="M95,5h1v1h-1zM95,6h1v1h-1z"/><path fill="#8eb865" d="M98,5h1v1h-1z"/><path fill="#6ca147" d="M0,6h1v1h-1zM0,7h1v1h-1z"/><path fill="#8eb865" d="M9,6h1v1h-1zM9,7h1v1h-1z"/><path fill="#ffffff" d="M15,6h1v1h-1z"/><path fill="#8eb865" d="M16,6h1v1h-1zM16,7h1v1h-1z"/><path fill="#8eb865" d="M20,6h1v1h-1z"/><path fill="#ffffff" d="M23,6h1v1h-1z"/><path fill="#6ca147" d="M30,6h1v1h-1z"/><path fill="#8eb865" d="M32,6h1v1h-1z"/><path fill="#6ca147" d="M36,6h1v1h-1zM36,7h1v1h-1z"/><path fill="#ddcf00" d="M37,6h1v1h-1z"/><path fill="#aec687" d="M40,6h1v1h-1z"/><path fill="#6ca147" d="M41,6h1v1h-1z"/><path fill="#96e04a" d="M45,6h1v1h-1zM45,7h1v1h-1z"/><path fill="#7bc241" d="M46,6h1v1h-1zM46,7h1v1h-1z"/><path fill="#629d29" d="M47,6h1v1h-1zM47,7h1v1h-1zM47,8h1v1h-1zM47,9h1v1h-1zM47,10h1v1h-1zM47,11h1v1h-1zM47,12h1v1h-1zM47,13h1v1h-1zM47,14h1v1h-1zM47,15h1v1h-1zM47,16h1v1h-1zM47,17h1v1h-1zM47,18h1v1h-1zM47,19h1v1h-1zM46,19h1v1h-1zM45,19h1v1h-1z"/><path fill="#aec687" d="M54,6h1v1h-1zM54,7h1v1h-1z"/><path fill="#8eb865" d="M55,6h1v1h-1zM55,7h1v1h-1z"/><path fill="#8eb865" d="M61,6h1v1h-1zM61,7h1v1h-1z"/><path fill="#ffffff" d="M72,6h1v1h-1z"/><path fill="#8eb865" d="M73,6h1v1h-1z"/><path fill="#8eb865" d="M81,6h1v1h-1zM81,7h1v1h-1z"/><path fill="#7dad4e" d="M85,6h1v1h-1zM85,7h1v1h-1zM86,7h1v1h-1z"/><path fill="#aec687" d="M86,6h1v1h-1z"/><path fill="#7dad4e" d="M87,6h1v1h-1z"/><path fill="#8eb865" d="M88,6h1v1h-1zM88,7h1v1h-1z"/><path fill="#7dad4e" d="M89,6h1v1h-1zM89,7h1v1h-1z"/><path fill="#8eb865" d="M90,6h1v1h-1zM90,7h1v1h-1z"/><path fill="#aec687" d="M101,6h1v1h-1zM101,7h1v1h-1z"/><path fill="#8eb865" d="M2,7h1v1h-1zM2,8h1v1h-1z"/><path fill="#8eb865" d="M5,7h1v1h-1z"/><path fill="#8eb865" d="M11,7h1v1h-1zM11,8h1v1h-1z"/><path fill="#aec687" d="M15,7h1v1h-1zM15,8h1v1h-1z"/><path fill="#aec687" d="M20,7h1v1h-1z"/><path fill="#8eb865" d="M23,7h1v1h-1z"/><path fill="#8eb865" d="M30,7h1v1h-1z"/><path fill="#6ca147" d="M31,7h1v1h-1zM31,8h1v1h-1zM31,9h1v1h-1z"/><path fill="#7dad4e" d="M32,7h1v1h-1zM32,8h1v1h-1zM32,9h1v1h-1zM32,10h1v1h-1zM32,11h1v1h-1z"/><path fill="#8eb865" d="M33,7h1v1h-1zM33,8h1v1h-1zM33,9h1v1h-1z"/><path fill="#7dad4e" d="M37,7h1v1h-1z"/><path fill="#aec687" d="M39,7h1v1h-1z"/><path fill="#8eb865" d="M40,7h1v1h-1z"/><path fill="#7dad4e" d="M41,7h1v1h-1z"/><path fill="#6ca147" d="M42,7h1v1h-1z"/><path fill="#7dad4e" d="M43,7h1v1h-1zM43,8h1v1h-1z"/><path fill="#8eb865" d="M59,7h1v1h-1z"/><path fill="#6ca147" d="M67,7h1v1h-1z"/><path fill="#8eb865" d="M71,7h1v1h-1z"/><path fill="#7dad4e" d="M72,7h1v1h-1zM72,8h1v1h-1zM73,8h1v1h-1zM73,7h1v1h-1zM73,9h1v1h-1z"/><path fill="#8eb865" d="M74,7h1v1h-1zM74,8h1v1h-1z"/><path fill="#6ca147" d="M75,7h1v1h-1z"/><path fill="#8eb865" d="M84,7h1v1h-1z"/><path fill="#aec687" d="M87,7h1v1h-1zM87,8h1v1h-1z"/><path fill="#aec687" d="M92,7h1v1h-1z"/><path fill="#8eb865" d="M97,7h1v1h-1z"/><path fill="#8eb865" d="M0,8h1v1h-1zM0,9h1v1h-1z"/><path fill="#8eb865" d="M7,8h1v1h-1z"/><path fill="#aec687" d="M9,8h1v1h-1z"/><path fill="#8eb865" d="M18,8h1v1h-1zM18,9h1v1h-1z"/><path fill="#aec687" d="M21,8h1v1h-1zM21,9h1v1h-1zM21,10h1v1h-1z"/><path fill="#6ca147" d="M23,8h1v1h-1z"/><path fill="#aec687" d="M26,8h1v1h-1z"/><path fill="#8eb865" d="M27,8h1v1h-1z"/><path fill="#8eb865" d="M29,8h1v1h-1zM29,9h1v1h-1z"/><path fill="#6ca147" d="M34,8h1v1h-1zM34,9h1v1h-1z"/><path fill="#8eb865" d="M36,8h1v1h-1z"/><path fill="#000000" d="M37,8h1v1h-1zM38,8h1v1h-1zM39,8h1v1h-1zM40,8h1v1h-1zM41,8h1v1h-1zM42,8h1v1h-1z"/><path fill="#7bc241" d="M45,8h1v1h-1zM45,9h1v1h-1zM45,10h1v1h-1zM45,11h1v1h-1zM45,12h1v1h-1zM45,13h1v1h-1zM45,14h1v1h-1zM45,15h1v1h-1zM45,16h1v1h-1zM45,17h1v1h-1z"/><path fill="#72b036" d="M46,8h1v1h-1zM46,9h1v1h-1zM46,10h1v1h-1zM46,11h1v1h-1zM46,12h1v1h-1zM46,13h1v1h-1zM46,14h1v1h-1zM46,15h1v1h-1zM46,16h1v1h-1zM46,17h1v1h-1zM46,18h1v1h-1zM45,18h1v1h-1z"/><path fill="#000000" d="M52,8h1v1h-1zM53,8h1v1h-1zM54,8h1v1h-1zM55,8h1v1h-1zM56,8h1v1h-1zM57,8h1v1h-1z"/><path fill="#8eb865" d="M58,8h1v1h-1z"/><path fill="#7dad4e" d="M59,8h1v1h-1zM59,9h1v1h-1z"/><path fill="#aec687" d="M60,8h1v1h-1z"/><path fill="#7dad4e" d="M61,8h1v1h-1z"/><path fill="#000000" d="M62,8h1v1h-1zM63,8h1v1h-1zM64,8h1v1h-1zM65,8h1v1h-1z"/><path fill="#6ca147" d="M66,8h1v1h-1z"/><path fill="#7dad4e" d="M67,8h1v1h-1z"/><path fill="#000000" d="M68,8h1v1h-1zM69,8h1v1h-1zM70,8h1v1h-1zM71,8h1v1h-1z"/><path fill="#000000" d="M75,8h1v1h-1zM76,8h1v1h-1zM77,8h1v1h-1zM78,8h1v1h-1zM79,8h1v1h-1zM80,8h1v1h-1z"/><path fill="#000000" d="M84,8h1v1h-1zM85,8h1v1h-1zM86,8h1v1h-1z"/><path fill="#000000" d="M88,8h1v1h-1zM89,8h1v1h-1zM90,8h1v1h-1zM91,8h1v1h-1z"/><path fill="#7dad4e" d="M92,8h1v1h-1z"/><path fill="#aec687" d="M93,8h1v1h-1zM93,9h1v1h-1z"/><path fill="#8eb865" d="M95,8h1v1h-1z"/><path fill="#aec687" d="M97,8h1v1h-1zM97,9h1v1h-1z"/><path fill="#8eb865" d="M98,8h1v1h-1zM98,9h1v1h-1zM98,10h1v1h-1z"/><path fill="#8eb865" d="M100,8h1v1h-1z"/><path fill="#7dad4e" d="M101,8h1v1h-1z"/><path fill="#8eb865" d="M4,9h1v1h-1z"/><path fill="#8eb865" d="M6,9h1v1h-1z"/><path fill="#aec687" d="M10,9h1v1h-1zM10,10h1v1h-1z"/><path fill="#ddcf00" d="M11,9h1v1h-1z"/><path fill="#8eb865" d="M14,9h1v1h-1z"/><path fill="#aec687" d="M17,9h1v1h-1z"/><path fill="#f0abff" d="M20,9h1v1h-1z"/><path fill="#ddcf00" d="M23,9h1v1h-1z"/><path fill="#8eb865" d="M24,9h1v1h-1zM24,10h1v1h-1z"/><path fill="#8eb865" d="M26,9h1v1h-1zM26,10h1v1h-1zM26,11h1v1h-1z"/><path fill="#aec687" d="M27,9h1v1h-1zM27,10h1v1h-1z"/><path fill="#000000" d="M36,9h1v1h-1z"/><path fill="#eef283" d="M37,9h1v1h-1z"/><path fill="#96e04a" d="M38,9h1v1h-1zM39,9h1v1h-1z"/><path fill="#7bc241" d="M40,9h1v1h-1zM41,9h1v1h-1z"/><path fill="#72b036" d="M42,9h1v1h-1z"/><path fill="#8eb865" d="M50,9h1v1h-1z"/><path fill="#000000" d="M51,9h1v1h-1z"/><path fill="#eef283" d="M52,9h1v1h-1z"/><path fill="#96e04a" d="M53,9h1v1h-1zM54,9h1v1h-1z"/><path fill="#7bc241" d="M55,9h1v1h-1zM55,10h1v1h-1zM56,10h1v1h-1zM56,9h1v1h-1zM56,11h1v1h-1zM57,11h1v1h-1zM57,10h1v1h-1zM57,12h1v1h-1zM57,13h1v1h-1zM57,14h1v1h-1zM58,11h1v1h-1z"/><path fill="#72b036" d="M57,9h1v1h-1z"/><path fill="#000000" d="M58,9h1v1h-1z"/><path fill="#8eb865" d="M60,9h1v1h-1zM60,10h1v1h-1z"/><path fill="#000000" d="M61,9h1v1h-1zM61,10h1v1h-1zM61,11h1v1h-1zM61,12h1v1h-1zM61,13h1v1h-1zM61,14h1v1h-1zM61,15h1v1h-1zM61,16h1v1h-1zM61,17h1v1h-1zM61,18h1v1h-1zM62,16h1v1h-1zM62,15h1v1h-1zM60,12h1v1h-1zM60,11h1v1h-1z"/><path fill="#eef283" d="M62,9h1v1h-1z"/><path fill="#96e04a" d="M63,9h1v1h-1z"/><path fill="#7bc241" d="M64,9h1v1h-1zM64,10h1v1h-1zM64,11h1v1h-1zM64,12h1v1h-1zM64,13h1v1h-1zM64,14h1v1h-1zM64,15h1v1h-1zM64,16h1v1h-1zM64,17h1v1h-1zM65,17h1v1h-1zM65,16h1v1h-1zM65,15h1v1h-1zM65,14h1v1h-1zM66,16h1v1h-1zM66,17h1v1h-1zM67,17h1v1h-1zM63,15h1v1h-1zM63,14h1v1h-1zM63,13h1v1h-1zM63,12h1v1h-1zM63,11h1v1h-1zM63,10h1v1h-1zM62,12h1v1h-1zM62,13h1v1h-1z"/><path fill="#298141" d="M65,9h1v1h-1zM65,10h1v1h-1zM65,11h1v1h-1zM65,12h1v1h-1zM65,13h1v1h-1z"/><path fill="#000000" d="M66,9h1v1h-1zM66,10h1v1h-1zM66,11h1v1h-1zM66,12h1v1h-1zM66,13h1v1h-1zM67,13h1v1h-1zM67,12h1v1h-1zM67,11h1v1h-1zM67,10h1v1h-1zM67,9h1v1h-1zM67,14h1v1h-1z"/><path fill="#eef283" d="M68,9h1v1h-1z"/><path fill="#96e04a" d="M69,9h1v1h-1z"/><path fill="#7bc241" d="M70,9h1v1h-1z"/><path fill="#298141" d="M71,9h1v1h-1zM71,10h1v1h-1zM71,11h1v1h-1zM71,12h1v1h-1zM71,13h1v1h-1zM71,14h1v1h-1zM71,15h1v1h-1zM70,15h1v1h-1zM70,16h1v1h-1zM70,17h1v1h-1zM70,18h1v1h-1zM69,18h1v1h-1zM69,19h1v1h-1zM68,19h1v1h-1zM68,20h1v1h-1zM67,20h1v1h-1zM66,20h1v1h-1zM65,20h1v1h-1z"/><path fill="#000000" d="M72,9h1v1h-1zM72,10h1v1h-1zM72,11h1v1h-1zM72,12h1v1h-1zM72,13h1v1h-1zM72,14h1v1h-1zM72,15h1v1h-1zM72,16h1v1h-1zM72,17h1v1h-1zM71,17h1v1h-1zM71,16h1v1h-1zM71,18h1v1h-1zM73,10h1v1h-1z"/><path fill="#000000" d="M74,9h1v1h-1z"/><path fill="#eef283" d="M75,9h1v1h-1z"/><path fill="#96e04a" d="M76,9h1v1h-1zM77,9h1v1h-1z"/><path fill="#7bc241" d="M78,9h1v1h-1zM78,10h1v1h-1zM78,11h1v1h-1zM79,11h1v1h-1zM79,10h1v1h-1zM80,11h1v1h-1zM80,12h1v1h-1zM77,10h1v1h-1zM76,10h1v1h-1z"/><path fill="#72b036" d="M79,9h1v1h-1z"/><path fill="#629d29" d="M80,9h1v1h-1z"/><path fill="#000000" d="M81,9h1v1h-1z"/><path fill="#000000" d="M83,9h1v1h-1zM83,10h1v1h-1zM83,11h1v1h-1zM83,12h1v1h-1zM83,13h1v1h-1zM83,14h1v1h-1zM83,15h1v1h-1zM83,16h1v1h-1zM83,17h1v1h-1zM83,18h1v1h-1zM83,19h1v1h-1zM83,20h1v1h-1zM82,20h1v1h-1zM82,16h1v1h-1zM82,15h1v1h-1zM81,16h1v1h-1zM80,16h1v1h-1zM79,16h1v1h-1zM78,16h1v1h-1zM77,16h1v1h-1zM82,10h1v1h-1z"/><path fill="#eef283" d="M84,9h1v1h-1z"/><path fill="#96e04a" d="M85,9h1v1h-1z"/><path fill="#72b036" d="M86,9h1v1h-1z"/><path fill="#000000" d="M87,9h1v1h-1z"/><path fill="#eef283" d="M88,9h1v1h-1z"/><path fill="#96e04a" d="M89,9h1v1h-1z"/><path fill="#7bc241" d="M90,9h1v1h-1z"/><path fill="#629d29" d="M91,9h1v1h-1zM91,10h1v1h-1zM91,11h1v1h-1zM90,11h1v1h-1z"/><path fill="#000000" d="M92,9h1v1h-1z"/><path fill="#8eb865" d="M94,9h1v1h-1zM94,10h1v1h-1z"/><path fill="#8eb865" d="M101,9h1v1h-1zM101,10h1v1h-1z"/><path fill="#7dad4e" d="M0,10h1v1h-1zM0,11h1v1h-1zM0,12h1v1h-1zM0,13h1v1h-1zM1,13h1v1h-1z"/><path fill="#aec687" d="M1,10h1v1h-1z"/><path fill="#8eb865" d="M3,10h1v1h-1zM3,11h1v1h-1zM3,12h1v1h-1z"/><path fill="#f0abff" d="M6,10h1v1h-1z"/><path fill="#8eb865" d="M8,10h1v1h-1zM8,11h1v1h-1z"/><path fill="#8eb865" d="M11,10h1v1h-1z"/><path fill="#8eb865" d="M15,10h1v1h-1zM15,11h1v1h-1zM15,12h1v1h-1z"/><path fill="#aec687" d="M16,10h1v1h-1zM16,11h1v1h-1z"/><path fill="#8eb865" d="M22,10h1v1h-1zM22,11h1v1h-1zM22,12h1v1h-1z"/><path fill="#8eb865" d="M31,10h1v1h-1zM31,11h1v1h-1zM31,12h1v1h-1z"/><path fill="#aec687" d="M33,10h1v1h-1zM33,11h1v1h-1z"/><path fill="#7dad4e" d="M34,10h1v1h-1z"/><path fill="#000000" d="M35,10h1v1h-1z"/><path fill="#eef283" d="M36,10h1v1h-1z"/><path fill="#96e04a" d="M37,10h1v1h-1z"/><path fill="#7bc241" d="M38,10h1v1h-1zM39,10h1v1h-1z"/><path fill="#72b036" d="M40,10h1v1h-1zM41,10h1v1h-1z"/><path fill="#629d29" d="M42,10h1v1h-1zM42,11h1v1h-1zM41,11h1v1h-1zM40,11h1v1h-1zM39,11h1v1h-1z"/><path fill="#298141" d="M43,10h1v1h-1zM43,11h1v1h-1zM43,12h1v1h-1zM42,12h1v1h-1zM41,12h1v1h-1zM40,12h1v1h-1zM39,12h1v1h-1z"/><path fill="#eef283" d="M51,10h1v1h-1z"/><path fill="#96e04a" d="M52,10h1v1h-1z"/><path fill="#7bc241" d="M53,10h1v1h-1z"/><path fill="#72b036" d="M54,10h1v1h-1z"/><path fill="#72b036" d="M58,10h1v1h-1z"/><path fill="#000000" d="M59,10h1v1h-1z"/><path fill="#96e04a" d="M62,10h1v1h-1zM62,11h1v1h-1z"/><path fill="#96e04a" d="M68,10h1v1h-1zM68,11h1v1h-1z"/><path fill="#7bc241" d="M69,10h1v1h-1zM69,11h1v1h-1z"/><path fill="#629d29" d="M70,10h1v1h-1zM70,11h1v1h-1zM70,12h1v1h-1zM70,13h1v1h-1zM70,14h1v1h-1z"/><path fill="#eef283" d="M74,10h1v1h-1z"/><path fill="#96e04a" d="M75,10h1v1h-1z"/><path fill="#72b036" d="M80,10h1v1h-1z"/><path fill="#298141" d="M81,10h1v1h-1z"/><path fill="#96e04a" d="M84,10h1v1h-1zM84,11h1v1h-1z"/><path fill="#7bc241" d="M85,10h1v1h-1zM85,11h1v1h-1zM85,12h1v1h-1zM84,12h1v1h-1zM84,13h1v1h-1zM84,14h1v1h-1zM84,15h1v1h-1zM84,16h1v1h-1zM84,17h1v1h-1zM86,11h1v1h-1zM86,10h1v1h-1z"/><path fill="#96e04a" d="M87,10h1v1h-1zM88,10h1v1h-1z"/><path fill="#7bc241" d="M89,10h1v1h-1z"/><path fill="#72b036" d="M90,10h1v1h-1z"/><path fill="#298141" d="M92,10h1v1h-1zM92,11h1v1h-1zM92,12h1v1h-1zM91,12h1v1h-1zM90,12h1v1h-1zM89,12h1v1h-1zM89,11h1v1h-1zM88,12h1v1h-1zM88,13h1v1h-1zM87,13h1v1h-1zM87,14h1v1h-1zM87,15h1v1h-1zM87,16h1v1h-1zM87,17h1v1h-1zM87,18h1v1h-1zM87,19h1v1h-1zM87,20h1v1h-1zM86,20h1v1h-1zM85,20h1v1h-1zM84,20h1v1h-1z"/><path fill="#000000" d="M93,10h1v1h-1zM93,11h1v1h-1zM93,12h1v1h-1z"/><path fill="#6ca147" d="M97,10h1v1h-1z"/><path fill="#8eb865" d="M1,11h1v1h-1zM1,12h1v1h-1z"/><path fill="#aec687" d="M2,11h1v1h-1zM2,12h1v1h-1zM2,13h1v1h-1z"/><path fill="#8eb865" d="M6,11h1v1h-1z"/><path fill="#aec687" d="M7,11h1v1h-1z"/><path fill="#8eb865" d="M10,11h1v1h-1zM10,12h1v1h-1zM10,13h1v1h-1z"/><path fill="#8eb865" d="M20,11h1v1h-1z"/><path fill="#8eb865" d="M29,11h1v1h-1z"/><path fill="#000000" d="M34,11h1v1h-1zM34,12h1v1h-1zM34,13h1v1h-1zM34,14h1v1h-1zM34,15h1v1h-1zM34,16h1v1h-1zM34,17h1v1h-1z"/><path fill="#eef283" d="M35,11h1v1h-1z"/><path fill="#96e04a" d="M36,11h1v1h-1z"/><path fill="#7bc241" d="M37,11h1v1h-1z"/><path fill="#72b036" d="M38,11h1v1h-1z"/><path fill="#eef283" d="M50,11h1v1h-1z"/><path fill="#96e04a" d="M51,11h1v1h-1z"/><path fill="#7bc241" d="M52,11h1v1h-1z"/><path fill="#72b036" d="M53,11h1v1h-1z"/><path fill="#629d29" d="M54,11h1v1h-1zM55,11h1v1h-1z"/><path fill="#72b036" d="M59,11h1v1h-1z"/><path fill="#eef283" d="M73,11h1v1h-1z"/><path fill="#96e04a" d="M74,11h1v1h-1z"/><path fill="#7bc241" d="M75,11h1v1h-1z"/><path fill="#629d29" d="M76,11h1v1h-1zM77,11h1v1h-1z"/><path fill="#72b036" d="M81,11h1v1h-1z"/><path fill="#298141" d="M82,11h1v1h-1zM82,12h1v1h-1zM82,13h1v1h-1zM82,14h1v1h-1zM81,14h1v1h-1zM81,15h1v1h-1zM80,15h1v1h-1zM79,15h1v1h-1zM78,15h1v1h-1zM77,15h1v1h-1z"/><path fill="#72b036" d="M87,11h1v1h-1z"/><path fill="#629d29" d="M88,11h1v1h-1z"/><path fill="#8eb865" d="M96,11h1v1h-1zM96,12h1v1h-1zM96,13h1v1h-1z"/><path fill="#7dad4e" d="M97,11h1v1h-1zM97,12h1v1h-1zM97,13h1v1h-1zM97,14h1v1h-1zM97,15h1v1h-1zM97,16h1v1h-1zM97,17h1v1h-1zM97,18h1v1h-1zM97,19h1v1h-1zM97,20h1v1h-1zM97,21h1v1h-1zM98,21h1v1h-1zM98,20h1v1h-1zM98,19h1v1h-1zM99,19h1v1h-1zM99,18h1v1h-1zM99,17h1v1h-1zM99,16h1v1h-1zM99,15h1v1h-1zM98,15h1v1h-1zM98,14h1v1h-1zM98,16h1v1h-1zM100,15h1v1h-1zM100,17h1v1h-1zM100,18h1v1h-1zM100,19h1v1h-1zM100,20h1v1h-1zM101,19h1v1h-1zM101,18h1v1h-1zM98,22h1v1h-1zM96,20h1v1h-1zM95,20h1v1h-1zM95,21h1v1h-1zM95,22h1v1h-1zM96,22h1v1h-1zM96,23h1v1h-1zM96,24h1v1h-1zM96,25h1v1h-1zM96,26h1v1h-1zM95,26h1v1h-1zM95,25h1v1h-1zM94,25h1v1h-1zM94,24h1v1h-1zM93,24h1v1h-1zM92,24h1v1h-1zM92,23h1v1h-1zM92,22h1v1h-1zM92,21h1v1h-1zM92,20h1v1h-1zM91,20h1v1h-1zM91,19h1v1h-1zM91,18h1v1h-1zM90,18h1v1h-1zM90,17h1v1h-1zM89,17h1v1h-1zM89,16h1v1h-1zM89,15h1v1h-1zM89,14h1v1h-1zM89,18h1v1h-1zM89,19h1v1h-1zM89,20h1v1h-1zM90,20h1v1h-1zM90,19h1v1h-1zM90,21h1v1h-1zM93,20h1v1h-1zM93,19h1v1h-1zM93,18h1v1h-1zM93,17h1v1h-1zM93,16h1v1h-1zM93,15h1v1h-1zM92,15h1v1h-1zM92,16h1v1h-1zM92,17h1v1h-1zM94,15h1v1h-1zM94,14h1v1h-1zM95,14h1v1h-1zM95,15h1v1h-1zM95,16h1v1h-1zM94,16h1v1h-1zM94,18h1v1h-1zM94,19h1v1h-1zM94,20h1v1h-1zM94,21h1v1h-1zM91,22h1v1h-1zM91,23h1v1h-1zM91,24h1v1h-1zM91,25h1v1h-1zM91,26h1v1h-1zM91,27h1v1h-1zM91,28h1v1h-1zM90,28h1v1h-1zM90,29h1v1h-1zM89,28h1v1h-1zM89,27h1v1h-1zM89,26h1v1h-1zM90,25h1v1h-1zM92,25h1v1h-1zM95,27h1v1h-1zM95,28h1v1h-1zM95,29h1v1h-1zM95,30h1v1h-1zM94,30h1v1h-1zM94,29h1v1h-1zM94,28h1v1h-1zM93,28h1v1h-1zM93,27h1v1h-1zM93,26h1v1h-1zM93,29h1v1h-1zM92,29h1v1h-1zM92,30h1v1h-1zM92,31h1v1h-1zM92,32h1v1h-1zM92,33h1v1h-1zM91,33h1v1h-1zM91,32h1v1h-1zM90,32h1v1h-1zM90,31h1v1h-1zM96,29h1v1h-1zM97,29h1v1h-1zM97,28h1v1h-1zM97,27h1v1h-1zM97,26h1v1h-1zM97,25h1v1h-1zM97,24h1v1h-1zM97,30h1v1h-1zM97,31h1v1h-1zM96,31h1v1h-1zM96,32h1v1h-1zM96,33h1v1h-1zM98,31h1v1h-1zM98,32h1v1h-1zM98,33h1v1h-1zM96,17h1v1h-1z"/><path fill="#6ca147" d="M98,11h1v1h-1zM98,12h1v1h-1zM98,13h1v1h-1z"/><path fill="#aec687" d="M101,11h1v1h-1z"/><path fill="#aec687" d="M8,12h1v1h-1zM8,13h1v1h-1z"/><path fill="#8eb865" d="M12,12h1v1h-1zM12,13h1v1h-1zM12,14h1v1h-1z"/><path fill="#8eb865" d="M17,12h1v1h-1zM17,13h1v1h-1z"/><path fill="#8eb865" d="M19,12h1v1h-1zM19,13h1v1h-1zM19,14h1v1h-1z"/><path fill="#8eb865" d="M24,12h1v1h-1z"/><path fill="#8eb865" d="M28,12h1v1h-1zM28,13h1v1h-1z"/><path fill="#6ca147" d="M32,12h1v1h-1z"/><path fill="#7dad4e" d="M33,12h1v1h-1z"/><path fill="#96e04a" d="M35,12h1v1h-1zM35,13h1v1h-1z"/><path fill="#7bc241" d="M36,12h1v1h-1zM36,13h1v1h-1z"/><path fill="#72b036" d="M37,12h1v1h-1z"/><path fill="#629d29" d="M38,12h1v1h-1z"/><path fill="#96e04a" d="M50,12h1v1h-1zM50,13h1v1h-1z"/><path fill="#7bc241" d="M51,12h1v1h-1zM51,13h1v1h-1z"/><path fill="#72b036" d="M52,12h1v1h-1z"/><path fill="#629d29" d="M53,12h1v1h-1z"/><path fill="#298141" d="M54,12h1v1h-1zM55,12h1v1h-1zM56,12h1v1h-1z"/><path fill="#72b036" d="M58,12h1v1h-1zM58,13h1v1h-1zM58,14h1v1h-1zM58,15h1v1h-1zM58,16h1v1h-1zM58,17h1v1h-1z"/><path fill="#629d29" d="M59,12h1v1h-1zM59,13h1v1h-1zM59,14h1v1h-1zM59,15h1v1h-1zM59,16h1v1h-1zM59,17h1v1h-1z"/><path fill="#7bc241" d="M68,12h1v1h-1zM68,13h1v1h-1z"/><path fill="#72b036" d="M69,12h1v1h-1zM69,13h1v1h-1zM69,14h1v1h-1z"/><path fill="#96e04a" d="M73,12h1v1h-1zM73,13h1v1h-1z"/><path fill="#7bc241" d="M74,12h1v1h-1zM74,13h1v1h-1zM74,14h1v1h-1zM74,15h1v1h-1zM74,16h1v1h-1zM74,17h1v1h-1zM75,17h1v1h-1zM75,16h1v1h-1zM75,15h1v1h-1zM75,14h1v1h-1zM75,13h1v1h-1zM76,13h1v1h-1zM77,13h1v1h-1zM76,16h1v1h-1zM76,17h1v1h-1zM77,17h1v1h-1zM78,17h1v1h-1zM73,15h1v1h-1zM73,14h1v1h-1z"/><path fill="#629d29" d="M75,12h1v1h-1z"/><path fill="#000000" d="M76,12h1v1h-1zM77,12h1v1h-1zM78,12h1v1h-1z"/><path fill="#96e04a" d="M79,12h1v1h-1z"/><path fill="#629d29" d="M81,12h1v1h-1zM81,13h1v1h-1z"/><path fill="#72b036" d="M86,12h1v1h-1z"/><path fill="#629d29" d="M87,12h1v1h-1z"/><path fill="#8eb865" d="M94,12h1v1h-1z"/><path fill="#aec687" d="M100,12h1v1h-1zM100,13h1v1h-1zM100,14h1v1h-1z"/><path fill="#7dad4e" d="M101,12h1v1h-1zM101,13h1v1h-1zM101,14h1v1h-1z"/><path fill="#8eb865" d="M5,13h1v1h-1z"/><path fill="#ffffff" d="M9,13h1v1h-1z"/><path fill="#aec687" d="M11,13h1v1h-1z"/><path fill="#8eb865" d="M25,13h1v1h-1zM25,14h1v1h-1z"/><path fill="#ffffff" d="M29,13h1v1h-1z"/><path fill="#6ca147" d="M33,13h1v1h-1zM33,14h1v1h-1z"/><path fill="#629d29" d="M37,13h1v1h-1zM37,14h1v1h-1zM37,15h1v1h-1z"/><path fill="#298141" d="M38,13h1v1h-1zM38,14h1v1h-1zM38,15h1v1h-1z"/><path fill="#629d29" d="M52,13h1v1h-1zM52,14h1v1h-1zM52,15h1v1h-1z"/><path fill="#298141" d="M53,13h1v1h-1zM53,14h1v1h-1zM53,15h1v1h-1z"/><path fill="#000000" d="M54,13h1v1h-1zM54,14h1v1h-1zM54,15h1v1h-1zM54,16h1v1h-1zM55,16h1v1h-1zM55,13h1v1h-1zM56,13h1v1h-1zM56,14h1v1h-1zM56,15h1v1h-1z"/><path fill="#298141" d="M60,13h1v1h-1zM60,14h1v1h-1zM60,15h1v1h-1zM60,16h1v1h-1zM60,17h1v1h-1zM60,18h1v1h-1zM59,18h1v1h-1zM59,19h1v1h-1zM58,19h1v1h-1zM58,20h1v1h-1zM57,20h1v1h-1zM56,20h1v1h-1zM55,20h1v1h-1zM54,20h1v1h-1zM53,20h1v1h-1zM52,20h1v1h-1z"/><path fill="#96e04a" d="M78,13h1v1h-1z"/><path fill="#eef283" d="M79,13h1v1h-1z"/><path fill="#72b036" d="M80,13h1v1h-1z"/><path fill="#72b036" d="M85,13h1v1h-1zM85,14h1v1h-1zM85,15h1v1h-1zM85,16h1v1h-1zM85,17h1v1h-1zM85,18h1v1h-1zM84,18h1v1h-1z"/><path fill="#629d29" d="M86,13h1v1h-1zM86,14h1v1h-1zM86,15h1v1h-1zM86,16h1v1h-1zM86,17h1v1h-1zM86,18h1v1h-1zM86,19h1v1h-1zM85,19h1v1h-1zM84,19h1v1h-1z"/><path fill="#000000" d="M89,13h1v1h-1zM90,13h1v1h-1zM91,13h1v1h-1zM92,13h1v1h-1z"/><path fill="#8eb865" d="M93,13h1v1h-1zM93,14h1v1h-1z"/><path fill="#ffffff" d="M94,13h1v1h-1z"/><path fill="#aec687" d="M95,13h1v1h-1z"/><path fill="#8eb865" d="M99,13h1v1h-1zM99,14h1v1h-1z"/><path fill="#aec687" d="M0,14h1v1h-1zM0,15h1v1h-1zM0,16h1v1h-1z"/><path fill="#8eb865" d="M1,14h1v1h-1z"/><path fill="#8eb865" d="M6,14h1v1h-1zM6,15h1v1h-1z"/><path fill="#8eb865" d="M8,14h1v1h-1z"/><path fill="#aec687" d="M10,14h1v1h-1zM10,15h1v1h-1zM10,16h1v1h-1z"/><path fill="#8eb865" d="M14,14h1v1h-1zM14,15h1v1h-1z"/><path fill="#aec687" d="M17,14h1v1h-1z"/><path fill="#aec687" d="M26,14h1v1h-1z"/><path fill="#7bc241" d="M35,14h1v1h-1zM35,15h1v1h-1zM35,16h1v1h-1zM36,16h1v1h-1zM36,17h1v1h-1zM37,17h1v1h-1zM37,18h1v1h-1zM38,18h1v1h-1zM38,17h1v1h-1zM39,17h1v1h-1zM39,18h1v1h-1zM40,18h1v1h-1z"/><path fill="#72b036" d="M36,14h1v1h-1zM36,15h1v1h-1z"/><path fill="#7dad4e" d="M40,14h1v1h-1z"/><path fill="#8eb865" d="M41,14h1v1h-1z"/><path fill="#6ca147" d="M42,14h1v1h-1z"/><path fill="#8eb865" d="M43,14h1v1h-1zM43,15h1v1h-1z"/><path fill="#7bc241" d="M50,14h1v1h-1zM50,15h1v1h-1zM50,16h1v1h-1zM51,16h1v1h-1zM51,15h1v1h-1zM51,17h1v1h-1zM52,17h1v1h-1zM52,16h1v1h-1zM53,17h1v1h-1zM54,17h1v1h-1z"/><path fill="#72b036" d="M51,14h1v1h-1z"/><path fill="#8eb865" d="M55,14h1v1h-1zM55,15h1v1h-1z"/><path fill="#72b036" d="M62,14h1v1h-1z"/><path fill="#298141" d="M66,14h1v1h-1z"/><path fill="#96e04a" d="M68,14h1v1h-1zM68,15h1v1h-1z"/><path fill="#629d29" d="M76,14h1v1h-1zM77,14h1v1h-1zM78,14h1v1h-1zM79,14h1v1h-1zM80,14h1v1h-1z"/><path fill="#000000" d="M88,14h1v1h-1zM88,15h1v1h-1zM88,16h1v1h-1zM88,17h1v1h-1zM88,18h1v1h-1zM88,19h1v1h-1zM88,20h1v1h-1z"/><path fill="#8eb865" d="M90,14h1v1h-1zM90,15h1v1h-1zM90,16h1v1h-1z"/><path fill="#7dad4e" d="M91,14h1v1h-1z"/><path fill="#aec687" d="M92,14h1v1h-1z"/><path fill="#aec687" d="M96,14h1v1h-1zM96,15h1v1h-1z"/><path fill="#ddcf00" d="M1,15h1v1h-1z"/><path fill="#8eb865" d="M2,15h1v1h-1zM2,16h1v1h-1zM2,17h1v1h-1z"/><path fill="#8eb865" d="M4,15h1v1h-1zM4,16h1v1h-1z"/><path fill="#aec687" d="M16,15h1v1h-1zM16,16h1v1h-1z"/><path fill="#8eb865" d="M22,15h1v1h-1z"/><path fill="#aec687" d="M25,15h1v1h-1zM25,16h1v1h-1z"/><path fill="#8eb865" d="M29,15h1v1h-1zM29,16h1v1h-1z"/><path fill="#8eb865" d="M33,15h1v1h-1zM33,16h1v1h-1z"/><path fill="#8eb865" d="M40,15h1v1h-1z"/><path fill="#7dad4e" d="M41,15h1v1h-1zM42,15h1v1h-1z"/><path fill="#96e04a" d="M57,15h1v1h-1zM57,16h1v1h-1z"/><path fill="#96e04a" d="M66,15h1v1h-1z"/><path fill="#eef283" d="M67,15h1v1h-1z"/><path fill="#629d29" d="M69,15h1v1h-1zM69,16h1v1h-1zM69,17h1v1h-1z"/><path fill="#000000" d="M76,15h1v1h-1z"/><path fill="#aec687" d="M91,15h1v1h-1zM91,16h1v1h-1zM91,17h1v1h-1z"/><path fill="#8eb865" d="M101,15h1v1h-1zM101,16h1v1h-1zM101,17h1v1h-1z"/><path fill="#aec687" d="M5,16h1v1h-1z"/><path fill="#8eb865" d="M11,16h1v1h-1z"/><path fill="#6ca147" d="M14,16h1v1h-1zM14,17h1v1h-1z"/><path fill="#8eb865" d="M17,16h1v1h-1zM17,17h1v1h-1z"/><path fill="#aec687" d="M19,16h1v1h-1z"/><path fill="#8eb865" d="M21,16h1v1h-1zM21,17h1v1h-1zM21,18h1v1h-1z"/><path fill="#8eb865" d="M26,16h1v1h-1zM26,17h1v1h-1z"/><path fill="#6ca147" d="M30,16h1v1h-1z"/><path fill="#72b036" d="M37,16h1v1h-1z"/><path fill="#629d29" d="M38,16h1v1h-1z"/><path fill="#7dad4e" d="M43,16h1v1h-1z"/><path fill="#629d29" d="M53,16h1v1h-1z"/><path fill="#eef283" d="M56,16h1v1h-1z"/><path fill="#72b036" d="M63,16h1v1h-1z"/><path fill="#96e04a" d="M67,16h1v1h-1z"/><path fill="#7bc241" d="M68,16h1v1h-1z"/><path fill="#72b036" d="M73,16h1v1h-1zM73,17h1v1h-1z"/><path fill="#8eb865" d="M96,16h1v1h-1z"/><path fill="#f0abff" d="M100,16h1v1h-1z"/><path fill="#aec687" d="M4,17h1v1h-1zM4,18h1v1h-1z"/><path fill="#8eb865" d="M9,17h1v1h-1z"/><path fill="#ddcf00" d="M11,17h1v1h-1z"/><path fill="#8eb865" d="M12,17h1v1h-1zM12,18h1v1h-1z"/><path fill="#8eb865" d="M19,17h1v1h-1zM19,18h1v1h-1z"/><path fill="#aec687" d="M20,17h1v1h-1zM20,18h1v1h-1zM20,19h1v1h-1z"/><path fill="#6ca147" d="M29,17h1v1h-1zM29,18h1v1h-1z"/><path fill="#7dad4e" d="M30,17h1v1h-1z"/><path fill="#8eb865" d="M31,17h1v1h-1z"/><path fill="#72b036" d="M35,17h1v1h-1z"/><path fill="#96e04a" d="M40,17h1v1h-1zM41,17h1v1h-1zM42,17h1v1h-1z"/><path fill="#72b036" d="M50,17h1v1h-1z"/><path fill="#96e04a" d="M55,17h1v1h-1zM56,17h1v1h-1z"/><path fill="#7bc241" d="M57,17h1v1h-1z"/><path fill="#8eb865" d="M62,17h1v1h-1zM62,18h1v1h-1zM62,19h1v1h-1z"/><path fill="#000000" d="M63,17h1v1h-1zM63,18h1v1h-1z"/><path fill="#72b036" d="M68,17h1v1h-1z"/><path fill="#96e04a" d="M79,17h1v1h-1zM80,17h1v1h-1zM81,17h1v1h-1z"/><path fill="#298141" d="M82,17h1v1h-1zM82,18h1v1h-1zM82,19h1v1h-1zM81,19h1v1h-1zM81,20h1v1h-1zM80,20h1v1h-1zM79,20h1v1h-1zM78,20h1v1h-1zM77,20h1v1h-1zM76,20h1v1h-1zM75,20h1v1h-1z"/><path fill="#ddcf00" d="M94,17h1v1h-1z"/><path fill="#8eb865" d="M95,17h1v1h-1zM95,18h1v1h-1zM95,19h1v1h-1z"/><path fill="#8eb865" d="M98,17h1v1h-1zM98,18h1v1h-1z"/><path fill="#8eb865" d="M6,18h1v1h-1z"/><path fill="#8eb865" d="M8,18h1v1h-1zM8,19h1v1h-1z"/><path fill="#8eb865" d="M15,18h1v1h-1z"/><path fill="#6ca147" d="M22,18h1v1h-1z"/><path fill="#8eb865" d="M23,18h1v1h-1zM23,19h1v1h-1z"/><path fill="#8eb865" d="M28,18h1v1h-1z"/><path fill="#8eb865" d="M30,18h1v1h-1zM30,19h1v1h-1zM30,20h1v1h-1z"/><path fill="#000000" d="M35,18h1v1h-1zM35,19h1v1h-1z"/><path fill="#72b036" d="M36,18h1v1h-1z"/><path fill="#72b036" d="M41,18h1v1h-1z"/><path fill="#629d29" d="M42,18h1v1h-1zM42,19h1v1h-1zM41,19h1v1h-1zM40,19h1v1h-1zM39,19h1v1h-1zM38,19h1v1h-1zM37,19h1v1h-1zM36,19h1v1h-1z"/><path fill="#298141" d="M43,18h1v1h-1zM43,19h1v1h-1zM43,20h1v1h-1zM42,20h1v1h-1zM41,20h1v1h-1zM40,20h1v1h-1zM39,20h1v1h-1zM38,20h1v1h-1zM37,20h1v1h-1z"/><path fill="#72b036" d="M51,18h1v1h-1zM52,18h1v1h-1zM53,18h1v1h-1zM54,18h1v1h-1zM55,18h1v1h-1zM56,18h1v1h-1zM57,18h1v1h-1z"/><path fill="#629d29" d="M58,18h1v1h-1z"/><path fill="#72b036" d="M64,18h1v1h-1zM65,18h1v1h-1zM66,18h1v1h-1zM67,18h1v1h-1z"/><path fill="#629d29" d="M68,18h1v1h-1z"/><path fill="#7dad4e" d="M72,18h1v1h-1zM72,19h1v1h-1zM73,19h1v1h-1zM73,20h1v1h-1zM73,21h1v1h-1zM73,22h1v1h-1zM73,23h1v1h-1zM74,23h1v1h-1zM74,22h1v1h-1zM74,21h1v1h-1zM75,22h1v1h-1zM76,22h1v1h-1zM76,23h1v1h-1zM76,24h1v1h-1zM76,25h1v1h-1zM77,25h1v1h-1zM77,24h1v1h-1zM77,23h1v1h-1zM77,26h1v1h-1zM77,27h1v1h-1zM77,28h1v1h-1zM77,29h1v1h-1zM77,30h1v1h-1zM78,30h1v1h-1zM78,31h1v1h-1zM78,32h1v1h-1zM78,33h1v1h-1zM79,33h1v1h-1zM80,33h1v1h-1zM80,32h1v1h-1zM80,31h1v1h-1zM80,30h1v1h-1zM80,29h1v1h-1zM80,28h1v1h-1zM81,28h1v1h-1zM81,27h1v1h-1zM81,26h1v1h-1zM81,29h1v1h-1zM81,30h1v1h-1zM82,30h1v1h-1zM82,31h1v1h-1zM82,32h1v1h-1zM82,33h1v1h-1zM81,33h1v1h-1zM83,30h1v1h-1zM84,30h1v1h-1zM84,29h1v1h-1zM85,30h1v1h-1zM86,30h1v1h-1zM87,30h1v1h-1zM75,24h1v1h-1zM72,22h1v1h-1zM71,22h1v1h-1zM71,21h1v1h-1zM71,20h1v1h-1zM70,20h1v1h-1zM71,23h1v1h-1zM70,23h1v1h-1zM70,24h1v1h-1zM69,24h1v1h-1zM69,23h1v1h-1zM69,22h1v1h-1zM69,21h1v1h-1zM68,24h1v1h-1zM68,25h1v1h-1z"/><path fill="#000000" d="M73,18h1v1h-1z"/><path fill="#72b036" d="M74,18h1v1h-1zM75,18h1v1h-1zM76,18h1v1h-1zM77,18h1v1h-1zM78,18h1v1h-1zM79,18h1v1h-1zM80,18h1v1h-1z"/><path fill="#629d29" d="M81,18h1v1h-1z"/><path fill="#8eb865" d="M92,18h1v1h-1zM92,19h1v1h-1z"/><path fill="#6ca147" d="M96,18h1v1h-1zM96,19h1v1h-1z"/><path fill="#8eb865" d="M0,19h1v1h-1z"/><path fill="#8eb865" d="M3,19h1v1h-1zM3,20h1v1h-1z"/><path fill="#f0abff" d="M4,19h1v1h-1z"/><path fill="#8eb865" d="M5,19h1v1h-1zM5,20h1v1h-1zM5,21h1v1h-1z"/><path fill="#aec687" d="M10,19h1v1h-1z"/><path fill="#ffffff" d="M12,19h1v1h-1z"/><path fill="#8eb865" d="M16,19h1v1h-1zM16,20h1v1h-1z"/><path fill="#6ca147" d="M21,19h1v1h-1zM21,20h1v1h-1z"/><path fill="#8eb865" d="M27,19h1v1h-1zM27,20h1v1h-1zM27,21h1v1h-1z"/><path fill="#8eb865" d="M32,19h1v1h-1zM32,20h1v1h-1z"/><path fill="#298141" d="M51,19h1v1h-1z"/><path fill="#629d29" d="M52,19h1v1h-1zM53,19h1v1h-1zM54,19h1v1h-1zM55,19h1v1h-1zM56,19h1v1h-1zM57,19h1v1h-1z"/><path fill="#000000" d="M60,19h1v1h-1z"/><path fill="#7dad4e" d="M61,19h1v1h-1zM61,20h1v1h-1zM61,21h1v1h-1zM62,21h1v1h-1zM60,20h1v1h-1z"/><path fill="#7dad4e" d="M63,19h1v1h-1zM63,20h1v1h-1z"/><path fill="#000000" d="M64,19h1v1h-1zM64,20h1v1h-1z"/><path fill="#629d29" d="M65,19h1v1h-1zM66,19h1v1h-1zM67,19h1v1h-1z"/><path fill="#000000" d="M70,19h1v1h-1z"/><path fill="#8eb865" d="M71,19h1v1h-1z"/><path fill="#000000" d="M74,19h1v1h-1zM74,20h1v1h-1z"/><path fill="#629d29" d="M75,19h1v1h-1zM76,19h1v1h-1zM77,19h1v1h-1zM78,19h1v1h-1zM79,19h1v1h-1zM80,19h1v1h-1z"/><path fill="#6ca147" d="M0,20h1v1h-1zM0,21h1v1h-1z"/><path fill="#8eb865" d="M1,20h1v1h-1zM1,21h1v1h-1zM1,22h1v1h-1z"/><path fill="#8eb865" d="M10,20h1v1h-1zM10,21h1v1h-1zM10,22h1v1h-1z"/><path fill="#aec687" d="M11,20h1v1h-1zM11,21h1v1h-1z"/><path fill="#8eb865" d="M19,20h1v1h-1z"/><path fill="#7dad4e" d="M20,20h1v1h-1z"/><path fill="#8eb865" d="M25,20h1v1h-1zM25,21h1v1h-1z"/><path fill="#8eb865" d="M34,20h1v1h-1zM34,21h1v1h-1zM34,22h1v1h-1z"/><path fill="#000000" d="M36,20h1v1h-1z"/><path fill="#7dad4e" d="M50,20h1v1h-1zM50,21h1v1h-1z"/><path fill="#000000" d="M51,20h1v1h-1z"/><path fill="#000000" d="M59,20h1v1h-1z"/><path fill="#aec687" d="M62,20h1v1h-1z"/><path fill="#000000" d="M69,20h1v1h-1z"/><path fill="#8eb865" d="M72,20h1v1h-1zM72,21h1v1h-1z"/><path fill="#8eb865" d="M99,20h1v1h-1zM99,21h1v1h-1z"/><path fill="#aec687" d="M101,20h1v1h-1z"/><path fill="#8eb865" d="M8,21h1v1h-1z"/><path fill="#8eb865" d="M14,21h1v1h-1z"/><path fill="#aec687" d="M16,21h1v1h-1z"/><path fill="#8eb865" d="M20,21h1v1h-1zM20,22h1v1h-1zM20,23h1v1h-1z"/><path fill="#ffffff" d="M21,21h1v1h-1z"/><path fill="#6ca147" d="M26,21h1v1h-1zM26,22h1v1h-1z"/><path fill="#aec687" d="M32,21h1v1h-1z"/><path fill="#8eb865" d="M36,21h1v1h-1zM36,22h1v1h-1zM36,23h1v1h-1z"/><path fill="#000000" d="M37,21h1v1h-1zM38,21h1v1h-1zM39,21h1v1h-1zM40,21h1v1h-1zM41,21h1v1h-1zM42,21h1v1h-1zM43,21h1v1h-1z"/><path fill="#7dad4e" d="M44,21h1v1h-1z"/><path fill="#000000" d="M45,21h1v1h-1zM46,21h1v1h-1zM47,21h1v1h-1zM48,21h1v1h-1z"/><path fill="#aec687" d="M49,21h1v1h-1zM49,22h1v1h-1z"/><path fill="#8eb865" d="M51,21h1v1h-1z"/><path fill="#000000" d="M52,21h1v1h-1zM53,21h1v1h-1zM54,21h1v1h-1zM55,21h1v1h-1zM56,21h1v1h-1zM57,21h1v1h-1zM58,21h1v1h-1z"/><path fill="#7dad4e" d="M59,21h1v1h-1zM59,22h1v1h-1zM59,23h1v1h-1zM60,23h1v1h-1zM60,22h1v1h-1zM60,24h1v1h-1zM61,24h1v1h-1zM58,22h1v1h-1z"/><path fill="#8eb865" d="M60,21h1v1h-1z"/><path fill="#aec687" d="M63,21h1v1h-1zM63,22h1v1h-1z"/><path fill="#7dad4e" d="M64,21h1v1h-1zM64,22h1v1h-1z"/><path fill="#000000" d="M65,21h1v1h-1zM66,21h1v1h-1zM67,21h1v1h-1zM68,21h1v1h-1z"/><path fill="#8eb865" d="M70,21h1v1h-1zM70,22h1v1h-1z"/><path fill="#000000" d="M75,21h1v1h-1zM76,21h1v1h-1zM77,21h1v1h-1zM78,21h1v1h-1zM79,21h1v1h-1zM80,21h1v1h-1zM81,21h1v1h-1z"/><path fill="#7dad4e" d="M82,21h1v1h-1zM82,22h1v1h-1zM82,23h1v1h-1zM82,24h1v1h-1zM81,23h1v1h-1zM81,22h1v1h-1zM80,22h1v1h-1zM80,23h1v1h-1zM80,24h1v1h-1zM79,24h1v1h-1zM79,25h1v1h-1zM83,23h1v1h-1zM83,22h1v1h-1z"/><path fill="#8eb865" d="M83,21h1v1h-1z"/><path fill="#000000" d="M84,21h1v1h-1zM85,21h1v1h-1zM86,21h1v1h-1zM87,21h1v1h-1z"/><path fill="#7dad4e" d="M88,21h1v1h-1zM88,22h1v1h-1z"/><path fill="#6ca147" d="M89,21h1v1h-1zM89,22h1v1h-1zM89,23h1v1h-1z"/><path fill="#8eb865" d="M91,21h1v1h-1z"/><path fill="#aec687" d="M93,21h1v1h-1z"/><path fill="#8eb865" d="M96,21h1v1h-1z"/><path fill="#aec687" d="M100,21h1v1h-1zM100,22h1v1h-1z"/><path fill="#8eb865" d="M101,21h1v1h-1zM101,22h1v1h-1z"/><path fill="#8eb865" d="M3,22h1v1h-1z"/><path fill="#aec687" d="M5,22h1v1h-1z"/><path fill="#8eb865" d="M7,22h1v1h-1zM7,23h1v1h-1z"/><path fill="#8eb865" d="M13,22h1v1h-1zM13,23h1v1h-1z"/><path fill="#aec687" d="M17,22h1v1h-1zM17,23h1v1h-1z"/><path fill="#8eb865" d="M18,22h1v1h-1zM18,23h1v1h-1z"/><path fill="#8eb865" d="M22,22h1v1h-1zM22,23h1v1h-1z"/><path fill="#aec687" d="M24,22h1v1h-1z"/><path fill="#7dad4e" d="M25,22h1v1h-1z"/><path fill="#8eb865" d="M29,22h1v1h-1z"/><path fill="#aec687" d="M31,22h1v1h-1zM31,23h1v1h-1zM31,24h1v1h-1z"/><path fill="#8eb865" d="M32,22h1v1h-1zM32,23h1v1h-1z"/><path fill="#8eb865" d="M42,22h1v1h-1z"/><path fill="#7dad4e" d="M43,22h1v1h-1zM43,23h1v1h-1zM43,24h1v1h-1zM42,24h1v1h-1zM42,23h1v1h-1z"/><path fill="#aec687" d="M44,22h1v1h-1zM44,23h1v1h-1z"/><path fill="#8eb865" d="M45,22h1v1h-1z"/><path fill="#8eb865" d="M48,22h1v1h-1zM48,23h1v1h-1z"/><path fill="#8eb865" d="M50,22h1v1h-1zM50,23h1v1h-1zM50,24h1v1h-1z"/><path fill="#7dad4e" d="M51,22h1v1h-1zM51,23h1v1h-1zM51,24h1v1h-1zM51,25h1v1h-1zM52,24h1v1h-1zM52,23h1v1h-1zM52,22h1v1h-1zM53,23h1v1h-1z"/><path fill="#8eb865" d="M53,22h1v1h-1z"/><path fill="#8eb865" d="M57,22h1v1h-1z"/><path fill="#8eb865" d="M61,22h1v1h-1zM61,23h1v1h-1z"/><path fill="#000000" d="M62,22h1v1h-1zM62,23h1v1h-1zM62,24h1v1h-1zM62,25h1v1h-1zM62,26h1v1h-1zM62,27h1v1h-1zM62,28h1v1h-1zM61,25h1v1h-1zM60,25h1v1h-1zM59,25h1v1h-1z"/><path fill="#8eb865" d="M65,22h1v1h-1z"/><path fill="#7dad4e" d="M66,22h1v1h-1zM66,23h1v1h-1zM66,24h1v1h-1zM65,24h1v1h-1zM65,23h1v1h-1zM67,23h1v1h-1zM67,22h1v1h-1z"/><path fill="#8eb865" d="M68,22h1v1h-1zM68,23h1v1h-1z"/><path fill="#8eb865" d="M77,22h1v1h-1z"/><path fill="#7dad4e" d="M78,22h1v1h-1z"/><path fill="#6ca147" d="M79,22h1v1h-1zM79,23h1v1h-1z"/><path fill="#8eb865" d="M84,22h1v1h-1zM84,23h1v1h-1z"/><path fill="#aec687" d="M85,22h1v1h-1z"/><path fill="#7dad4e" d="M86,22h1v1h-1zM86,23h1v1h-1zM85,23h1v1h-1zM85,24h1v1h-1zM84,24h1v1h-1zM84,25h1v1h-1zM83,25h1v1h-1zM83,26h1v1h-1zM83,27h1v1h-1zM87,23h1v1h-1zM87,24h1v1h-1z"/><path fill="#8eb865" d="M87,22h1v1h-1z"/><path fill="#ffffff" d="M90,22h1v1h-1z"/><path fill="#8eb865" d="M93,22h1v1h-1zM93,23h1v1h-1z"/><path fill="#aec687" d="M94,22h1v1h-1zM94,23h1v1h-1z"/><path fill="#8eb865" d="M97,22h1v1h-1zM97,23h1v1h-1z"/><path fill="#6ca147" d="M99,22h1v1h-1z"/><path fill="#8eb865" d="M4,23h1v1h-1zM4,24h1v1h-1zM4,25h1v1h-1z"/><path fill="#7dad4e" d="M5,23h1v1h-1zM5,24h1v1h-1z"/><path fill="#aec687" d="M6,23h1v1h-1zM6,24h1v1h-1zM6,25h1v1h-1z"/><path fill="#8eb865" d="M16,23h1v1h-1zM16,24h1v1h-1z"/><path fill="#aec687" d="M23,23h1v1h-1zM23,24h1v1h-1zM23,25h1v1h-1z"/><path fill="#8eb865" d="M25,23h1v1h-1z"/><path fill="#7dad4e" d="M26,23h1v1h-1z"/><path fill="#f0abff" d="M27,23h1v1h-1z"/><path fill="#8eb865" d="M30,23h1v1h-1zM30,24h1v1h-1z"/><path fill="#8eb865" d="M38,23h1v1h-1zM38,24h1v1h-1z"/><path fill="#8eb865" d="M41,23h1v1h-1zM41,24h1v1h-1z"/><path fill="#8eb865" d="M46,23h1v1h-1zM46,24h1v1h-1zM46,25h1v1h-1z"/><path fill="#f0abff" d="M54,23h1v1h-1z"/><path fill="#8eb865" d="M55,23h1v1h-1zM55,24h1v1h-1z"/><path fill="#aec687" d="M58,23h1v1h-1z"/><path fill="#7dad4e" d="M63,23h1v1h-1zM63,24h1v1h-1zM63,25h1v1h-1zM63,26h1v1h-1zM63,27h1v1h-1zM63,28h1v1h-1zM64,27h1v1h-1zM64,26h1v1h-1zM64,25h1v1h-1zM65,26h1v1h-1z"/><path fill="#8eb865" d="M64,23h1v1h-1zM64,24h1v1h-1z"/><path fill="#6ca147" d="M72,23h1v1h-1z"/><path fill="#000000" d="M75,23h1v1h-1z"/><path fill="#8eb865" d="M78,23h1v1h-1zM78,24h1v1h-1z"/><path fill="#8eb865" d="M88,23h1v1h-1zM88,24h1v1h-1zM88,25h1v1h-1z"/><path fill="#8eb865" d="M90,23h1v1h-1zM90,24h1v1h-1z"/><path fill="#8eb865" d="M95,23h1v1h-1zM95,24h1v1h-1z"/><path fill="#6ca147" d="M98,23h1v1h-1zM98,24h1v1h-1z"/><path fill="#7dad4e" d="M99,23h1v1h-1zM100,23h1v1h-1zM100,24h1v1h-1zM100,25h1v1h-1zM100,26h1v1h-1zM99,26h1v1h-1zM99,25h1v1h-1zM99,27h1v1h-1zM99,28h1v1h-1zM100,28h1v1h-1zM100,29h1v1h-1zM100,30h1v1h-1zM99,30h1v1h-1zM101,30h1v1h-1zM101,31h1v1h-1zM101,24h1v1h-1zM101,23h1v1h-1z"/><path fill="#8eb865" d="M0,24h1v1h-1z"/><path fill="#6ca147" d="M9,24h1v1h-1z"/><path fill="#8eb865" d="M26,24h1v1h-1zM26,25h1v1h-1zM26,26h1v1h-1z"/><path fill="#8eb865" d="M28,24h1v1h-1zM28,25h1v1h-1z"/><path fill="#6ca147" d="M32,24h1v1h-1z"/><path fill="#aec687" d="M36,24h1v1h-1z"/><path fill="#8eb865" d="M44,24h1v1h-1z"/><path fill="#8eb865" d="M53,24h1v1h-1z"/><path fill="#aec687" d="M57,24h1v1h-1zM57,25h1v1h-1zM57,26h1v1h-1z"/><path fill="#7dad4e" d="M58,24h1v1h-1z"/><path fill="#8eb865" d="M59,24h1v1h-1z"/><path fill="#aec687" d="M67,24h1v1h-1z"/><path fill="#000000" d="M71,24h1v1h-1zM71,25h1v1h-1zM71,26h1v1h-1zM71,27h1v1h-1zM71,28h1v1h-1zM70,25h1v1h-1zM72,25h1v1h-1zM73,25h1v1h-1z"/><path fill="#8eb865" d="M72,24h1v1h-1z"/><path fill="#6ca147" d="M73,24h1v1h-1z"/><path fill="#8eb865" d="M74,24h1v1h-1zM74,25h1v1h-1z"/><path fill="#8eb865" d="M81,24h1v1h-1z"/><path fill="#f0abff" d="M83,24h1v1h-1z"/><path fill="#8eb865" d="M86,24h1v1h-1z"/><path fill="#7dad4e" d="M89,24h1v1h-1z"/><path fill="#8eb865" d="M99,24h1v1h-1z"/><path fill="#7dad4e" d="M0,25h1v1h-1zM0,26h1v1h-1zM0,27h1v1h-1zM0,28h1v1h-1zM1,27h1v1h-1z"/><path fill="#8eb865" d="M1,25h1v1h-1zM1,26h1v1h-1z"/><path fill="#aec687" d="M2,25h1v1h-1zM2,26h1v1h-1zM2,27h1v1h-1z"/><path fill="#6ca147" d="M5,25h1v1h-1z"/><path fill="#8eb865" d="M9,25h1v1h-1z"/><path fill="#6ca147" d="M10,25h1v1h-1zM10,26h1v1h-1z"/><path fill="#8eb865" d="M13,25h1v1h-1z"/><path fill="#ddcf00" d="M19,25h1v1h-1z"/><path fill="#8eb865" d="M21,25h1v1h-1zM21,26h1v1h-1z"/><path fill="#8eb865" d="M24,25h1v1h-1z"/><path fill="#6ca147" d="M31,25h1v1h-1zM31,26h1v1h-1zM31,27h1v1h-1z"/><path fill="#8eb865" d="M35,25h1v1h-1z"/><path fill="#7dad4e" d="M36,25h1v1h-1z"/><path fill="#aec687" d="M37,25h1v1h-1zM37,26h1v1h-1z"/><path fill="#aec687" d="M42,25h1v1h-1z"/><path fill="#8eb865" d="M43,25h1v1h-1z"/><path fill="#8eb865" d="M48,25h1v1h-1z"/><path fill="#aec687" d="M50,25h1v1h-1z"/><path fill="#8eb865" d="M52,25h1v1h-1zM52,26h1v1h-1z"/><path fill="#ddcf00" d="M55,25h1v1h-1z"/><path fill="#8eb865" d="M58,25h1v1h-1z"/><path fill="#000000" d="M65,25h1v1h-1zM66,25h1v1h-1zM67,25h1v1h-1z"/><path fill="#8eb865" d="M69,25h1v1h-1zM69,26h1v1h-1z"/><path fill="#000000" d="M75,25h1v1h-1zM75,26h1v1h-1zM75,27h1v1h-1zM75,28h1v1h-1z"/><path fill="#000000" d="M78,25h1v1h-1zM78,26h1v1h-1zM78,27h1v1h-1zM78,28h1v1h-1zM78,29h1v1h-1zM79,26h1v1h-1z"/><path fill="#000000" d="M80,25h1v1h-1zM81,25h1v1h-1z"/><path fill="#8eb865" d="M82,25h1v1h-1z"/><path fill="#000000" d="M85,25h1v1h-1zM86,25h1v1h-1zM87,25h1v1h-1z"/><path fill="#6ca147" d="M89,25h1v1h-1z"/><path fill="#6ca147" d="M93,25h1v1h-1z"/><path fill="#8eb865" d="M98,25h1v1h-1z"/><path fill="#aec687" d="M101,25h1v1h-1zM101,26h1v1h-1z"/><path fill="#6ca147" d="M4,26h1v1h-1zM4,27h1v1h-1z"/><path fill="#7dad4e" d="M5,26h1v1h-1z"/><path fill="#8eb865" d="M6,26h1v1h-1z"/><path fill="#8eb865" d="M8,26h1v1h-1zM8,27h1v1h-1zM8,28h1v1h-1z"/><path fill="#7dad4e" d="M9,26h1v1h-1zM9,27h1v1h-1zM9,28h1v1h-1zM9,29h1v1h-1zM10,29h1v1h-1z"/><path fill="#aec687" d="M12,26h1v1h-1z"/><path fill="#8eb865" d="M17,26h1v1h-1z"/><path fill="#8eb865" d="M23,26h1v1h-1zM23,27h1v1h-1zM23,28h1v1h-1z"/><path fill="#8eb865" d="M33,26h1v1h-1z"/><path fill="#8eb865" d="M36,26h1v1h-1zM36,27h1v1h-1zM36,28h1v1h-1z"/><path fill="#ddcf00" d="M39,26h1v1h-1z"/><path fill="#6ca147" d="M42,26h1v1h-1z"/><path fill="#aec687" d="M43,26h1v1h-1zM43,27h1v1h-1z"/><path fill="#8eb865" d="M49,26h1v1h-1zM49,27h1v1h-1z"/><path fill="#aec687" d="M51,26h1v1h-1zM51,27h1v1h-1zM51,28h1v1h-1z"/><path fill="#000000" d="M58,26h1v1h-1zM58,27h1v1h-1zM58,28h1v1h-1z"/><path fill="#7dad4e" d="M59,26h1v1h-1zM59,27h1v1h-1zM60,27h1v1h-1zM60,28h1v1h-1z"/><path fill="#aec687" d="M60,26h1v1h-1z"/><path fill="#7dad4e" d="M61,26h1v1h-1z"/><path fill="#aec687" d="M66,26h1v1h-1z"/><path fill="#8eb865" d="M67,26h1v1h-1z"/><path fill="#000000" d="M68,26h1v1h-1zM68,27h1v1h-1zM68,28h1v1h-1zM67,27h1v1h-1zM66,27h1v1h-1zM65,27h1v1h-1z"/><path fill="#7dad4e" d="M70,26h1v1h-1zM70,27h1v1h-1zM70,28h1v1h-1zM69,27h1v1h-1z"/><path fill="#7dad4e" d="M72,26h1v1h-1zM72,27h1v1h-1zM72,28h1v1h-1zM73,27h1v1h-1z"/><path fill="#6ca147" d="M73,26h1v1h-1z"/><path fill="#7dad4e" d="M74,26h1v1h-1z"/><path fill="#8eb865" d="M76,26h1v1h-1zM76,27h1v1h-1zM76,28h1v1h-1z"/><path fill="#aec687" d="M80,26h1v1h-1z"/><path fill="#000000" d="M82,26h1v1h-1zM82,27h1v1h-1zM82,28h1v1h-1zM82,29h1v1h-1z"/><path fill="#000000" d="M84,26h1v1h-1zM84,27h1v1h-1zM84,28h1v1h-1z"/><path fill="#6ca147" d="M85,26h1v1h-1z"/><path fill="#7dad4e" d="M86,26h1v1h-1zM86,27h1v1h-1zM86,28h1v1h-1zM85,28h1v1h-1zM85,27h1v1h-1zM87,26h1v1h-1z"/><path fill="#000000" d="M88,26h1v1h-1zM88,27h1v1h-1zM88,28h1v1h-1zM88,29h1v1h-1zM88,30h1v1h-1zM87,29h1v1h-1zM86,29h1v1h-1zM85,29h1v1h-1z"/><path fill="#8eb865" d="M90,26h1v1h-1zM90,27h1v1h-1z"/><path fill="#6ca147" d="M92,26h1v1h-1zM92,27h1v1h-1z"/><path fill="#8eb865" d="M94,26h1v1h-1zM94,27h1v1h-1z"/><path fill="#ddcf00" d="M98,26h1v1h-1z"/><path fill="#8eb865" d="M5,27h1v1h-1zM5,28h1v1h-1zM5,29h1v1h-1z"/><path fill="#8eb865" d="M10,27h1v1h-1zM10,28h1v1h-1z"/><path fill="#aec687" d="M11,27h1v1h-1zM11,28h1v1h-1zM11,29h1v1h-1z"/><path fill="#7dad4e" d="M12,27h1v1h-1z"/><path fill="#8eb865" d="M13,27h1v1h-1z"/><path fill="#8eb865" d="M16,27h1v1h-1zM16,28h1v1h-1z"/><path fill="#6ca147" d="M17,27h1v1h-1zM17,28h1v1h-1z"/><path fill="#8eb865" d="M19,27h1v1h-1zM19,28h1v1h-1zM19,29h1v1h-1z"/><path fill="#8eb865" d="M30,27h1v1h-1z"/><path fill="#8eb865" d="M32,27h1v1h-1zM32,28h1v1h-1z"/><path fill="#8eb865" d="M39,27h1v1h-1z"/><path fill="#6ca147" d="M41,27h1v1h-1zM41,28h1v1h-1z"/><path fill="#8eb865" d="M45,27h1v1h-1z"/><path fill="#aec687" d="M61,27h1v1h-1zM61,28h1v1h-1z"/><path fill="#8eb865" d="M74,27h1v1h-1z"/><path fill="#7dad4e" d="M79,27h1v1h-1z"/><path fill="#8eb865" d="M80,27h1v1h-1z"/><path fill="#8eb865" d="M87,27h1v1h-1zM87,28h1v1h-1z"/><path fill="#8eb865" d="M96,27h1v1h-1zM96,28h1v1h-1z"/><path fill="#8eb865" d="M98,27h1v1h-1z"/><path fill="#8eb865" d="M100,27h1v1h-1z"/><path fill="#7dad4e" d="M101,27h1v1h-1z"/><path fill="#6ca147" d="M1,28h1v1h-1z"/><path fill="#7dad4e" d="M2,28h1v1h-1z"/><path fill="#8eb865" d="M3,28h1v1h-1zM3,29h1v1h-1z"/><path fill="#8eb865" d="M12,28h1v1h-1zM12,29h1v1h-1zM12,30h1v1h-1z"/><path fill="#6ca147" d="M25,28h1v1h-1z"/><path fill="#8eb865" d="M27,28h1v1h-1zM27,29h1v1h-1z"/><path fill="#8eb865" d="M29,28h1v1h-1zM29,29h1v1h-1zM29,30h1v1h-1z"/><path fill="#7dad4e" d="M30,28h1v1h-1zM30,29h1v1h-1zM31,28h1v1h-1z"/><path fill="#8eb865" d="M40,28h1v1h-1zM40,29h1v1h-1z"/><path fill="#8eb865" d="M46,28h1v1h-1zM46,29h1v1h-1z"/><path fill="#8eb865" d="M56,28h1v1h-1zM56,29h1v1h-1z"/><path fill="#8eb865" d="M59,28h1v1h-1z"/><path fill="#000000" d="M64,28h1v1h-1z"/><path fill="#8eb865" d="M65,28h1v1h-1z"/><path fill="#ddcf00" d="M66,28h1v1h-1z"/><path fill="#8eb865" d="M67,28h1v1h-1z"/><path fill="#8eb865" d="M69,28h1v1h-1z"/><path fill="#8eb865" d="M73,28h1v1h-1z"/><path fill="#7dad4e" d="M74,28h1v1h-1zM74,29h1v1h-1zM74,30h1v1h-1zM74,31h1v1h-1zM73,31h1v1h-1zM73,30h1v1h-1zM72,30h1v1h-1zM73,32h1v1h-1zM73,33h1v1h-1zM72,33h1v1h-1zM72,32h1v1h-1zM75,31h1v1h-1zM75,30h1v1h-1zM75,29h1v1h-1zM75,32h1v1h-1zM75,33h1v1h-1zM76,33h1v1h-1zM76,32h1v1h-1zM76,31h1v1h-1z"/><path fill="#ddcf00" d="M79,28h1v1h-1z"/><path fill="#8eb865" d="M83,28h1v1h-1zM83,29h1v1h-1z"/><path fill="#8eb865" d="M92,28h1v1h-1z"/><path fill="#aec687" d="M98,28h1v1h-1zM98,29h1v1h-1z"/><path fill="#8eb865" d="M101,28h1v1h-1zM101,29h1v1h-1z"/><path fill="#8eb865" d="M0,29h1v1h-1z"/><path fill="#7dad4e" d="M1,29h1v1h-1z"/><path fill="#6ca147" d="M2,29h1v1h-1zM2,30h1v1h-1zM2,31h1v1h-1z"/><path fill="#6ca147" d="M8,29h1v1h-1z"/><path fill="#8eb865" d="M14,29h1v1h-1zM14,30h1v1h-1zM14,31h1v1h-1z"/><path fill="#aec687" d="M18,29h1v1h-1z"/><path fill="#8eb865" d="M25,29h1v1h-1zM25,30h1v1h-1zM25,31h1v1h-1z"/><path fill="#6ca147" d="M26,29h1v1h-1zM26,30h1v1h-1z"/><path fill="#aec687" d="M31,29h1v1h-1z"/><path fill="#8eb865" d="M34,29h1v1h-1zM34,30h1v1h-1zM34,31h1v1h-1z"/><path fill="#ffffff" d="M38,29h1v1h-1z"/><path fill="#8eb865" d="M43,29h1v1h-1zM43,30h1v1h-1z"/><path fill="#8eb865" d="M49,29h1v1h-1z"/><path fill="#000000" d="M59,29h1v1h-1zM60,29h1v1h-1zM61,29h1v1h-1z"/><path fill="#7dad4e" d="M62,29h1v1h-1zM62,30h1v1h-1zM62,31h1v1h-1zM61,31h1v1h-1zM61,30h1v1h-1zM61,32h1v1h-1zM61,33h1v1h-1zM60,33h1v1h-1zM60,32h1v1h-1zM59,33h1v1h-1zM58,33h1v1h-1zM58,32h1v1h-1zM63,30h1v1h-1z"/><path fill="#6ca147" d="M63,29h1v1h-1z"/><path fill="#7dad4e" d="M64,29h1v1h-1z"/><path fill="#000000" d="M65,29h1v1h-1zM66,29h1v1h-1zM67,29h1v1h-1z"/><path fill="#7dad4e" d="M68,29h1v1h-1zM68,30h1v1h-1zM69,30h1v1h-1zM69,31h1v1h-1zM69,32h1v1h-1zM69,33h1v1h-1zM68,33h1v1h-1zM67,33h1v1h-1zM67,32h1v1h-1zM67,31h1v1h-1zM66,31h1v1h-1zM66,30h1v1h-1zM65,30h1v1h-1zM66,32h1v1h-1zM66,33h1v1h-1z"/><path fill="#000000" d="M69,29h1v1h-1z"/><path fill="#8eb865" d="M70,29h1v1h-1zM70,30h1v1h-1z"/><path fill="#7dad4e" d="M71,29h1v1h-1z"/><path fill="#000000" d="M72,29h1v1h-1zM73,29h1v1h-1z"/><path fill="#000000" d="M76,29h1v1h-1z"/><path fill="#8eb865" d="M79,29h1v1h-1z"/><path fill="#8eb865" d="M89,29h1v1h-1z"/><path fill="#8eb865" d="M91,29h1v1h-1zM91,30h1v1h-1zM91,31h1v1h-1z"/><path fill="#8eb865" d="M99,29h1v1h-1z"/><path fill="#7dad4e" d="M0,30h1v1h-1z"/><path fill="#8eb865" d="M1,30h1v1h-1zM1,31h1v1h-1z"/><path fill="#8eb865" d="M7,30h1v1h-1z"/><path fill="#7dad4e" d="M8,30h1v1h-1z"/><path fill="#6ca147" d="M9,30h1v1h-1zM9,31h1v1h-1zM9,32h1v1h-1z"/><path fill="#8eb865" d="M10,30h1v1h-1zM10,31h1v1h-1z"/><path fill="#6ca147" d="M13,30h1v1h-1zM13,31h1v1h-1z"/><path fill="#8eb865" d="M16,30h1v1h-1z"/><path fill="#aec687" d="M19,30h1v1h-1zM19,31h1v1h-1z"/><path fill="#8eb865" d="M21,30h1v1h-1z"/><path fill="#aec687" d="M30,30h1v1h-1zM30,31h1v1h-1z"/><path fill="#7dad4e" d="M31,30h1v1h-1z"/><path fill="#8eb865" d="M32,30h1v1h-1z"/><path fill="#ddcf00" d="M33,30h1v1h-1z"/><path fill="#8eb865" d="M38,30h1v1h-1z"/><path fill="#aec687" d="M46,30h1v1h-1zM46,31h1v1h-1z"/><path fill="#8eb865" d="M48,30h1v1h-1zM48,31h1v1h-1z"/><path fill="#8eb865" d="M52,30h1v1h-1z"/><path fill="#ddcf00" d="M53,30h1v1h-1z"/><path fill="#aec687" d="M56,30h1v1h-1zM56,31h1v1h-1z"/><path fill="#aec687" d="M58,30h1v1h-1z"/><path fill="#7dad4e" d="M59,30h1v1h-1z"/><path fill="#8eb865" d="M60,30h1v1h-1zM60,31h1v1h-1z"/><path fill="#aec687" d="M64,30h1v1h-1z"/><path fill="#8eb865" d="M67,30h1v1h-1z"/><path fill="#6ca147" d="M71,30h1v1h-1z"/><path fill="#8eb865" d="M76,30h1v1h-1z"/><path fill="#6ca147" d="M79,30h1v1h-1zM79,31h1v1h-1zM79,32h1v1h-1z"/><path fill="#7dad4e" d="M89,30h1v1h-1z"/><path fill="#aec687" d="M90,30h1v1h-1z"/><path fill="#8eb865" d="M93,30h1v1h-1zM93,31h1v1h-1z"/><path fill="#8eb865" d="M96,30h1v1h-1z"/><path fill="#6ca147" d="M98,30h1v1h-1z"/><path fill="#aec687" d="M0,31h1v1h-1z"/><path fill="#8eb865" d="M3,31h1v1h-1z"/><path fill="#ddcf00" d="M6,31h1v1h-1z"/><path fill="#7dad4e" d="M7,31h1v1h-1zM7,32h1v1h-1zM7,33h1v1h-1zM8,33h1v1h-1zM9,33h1v1h-1z"/><path fill="#8eb865" d="M8,31h1v1h-1zM8,32h1v1h-1z"/><path fill="#8eb865" d="M17,31h1v1h-1zM17,32h1v1h-1z"/><path fill="#8eb865" d="M20,31h1v1h-1zM20,32h1v1h-1zM20,33h1v1h-1z"/><path fill="#8eb865" d="M27,31h1v1h-1z"/><path fill="#8eb865" d="M31,31h1v1h-1zM31,32h1v1h-1z"/><path fill="#6ca147" d="M36,31h1v1h-1z"/><path fill="#8eb865" d="M37,31h1v1h-1zM37,32h1v1h-1z"/><path fill="#aec687" d="M41,31h1v1h-1z"/><path fill="#f0abff" d="M44,31h1v1h-1z"/><path fill="#8eb865" d="M45,31h1v1h-1zM45,32h1v1h-1z"/><path fill="#aec687" d="M50,31h1v1h-1z"/><path fill="#8eb865" d="M53,31h1v1h-1zM53,32h1v1h-1zM53,33h1v1h-1z"/><path fill="#ffffff" d="M55,31h1v1h-1z"/><path fill="#8eb865" d="M58,31h1v1h-1z"/><path fill="#aec687" d="M59,31h1v1h-1zM59,32h1v1h-1z"/><path fill="#8eb865" d="M63,31h1v1h-1z"/><path fill="#7dad4e" d="M64,31h1v1h-1zM64,32h1v1h-1zM64,33h1v1h-1zM63,33h1v1h-1zM63,32h1v1h-1z"/><path fill="#aec687" d="M65,31h1v1h-1zM65,32h1v1h-1z"/><path fill="#8eb865" d="M68,31h1v1h-1zM68,32h1v1h-1z"/><path fill="#ddcf00" d="M70,31h1v1h-1z"/><path fill="#7dad4e" d="M71,31h1v1h-1z"/><path fill="#8eb865" d="M72,31h1v1h-1z"/><path fill="#8eb865" d="M77,31h1v1h-1z"/><path fill="#8eb865" d="M81,31h1v1h-1zM81,32h1v1h-1z"/><path fill="#ffffff" d="M83,31h1v1h-1z"/><path fill="#8eb865" d="M84,31h1v1h-1z"/><path fill="#000000" d="M85,31h1v1h-1zM86,31h1v1h-1zM87,31h1v1h-1z"/><path fill="#8eb865" d="M88,31h1v1h-1zM88,32h1v1h-1z"/><path fill="#aec687" d="M89,31h1v1h-1zM89,32h1v1h-1z"/><path fill="#f0abff" d="M94,31h1v1h-1z"/><path fill="#8eb865" d="M95,31h1v1h-1zM95,32h1v1h-1zM95,33h1v1h-1z"/><path fill="#6ca147" d="M99,31h1v1h-1zM99,32h1v1h-1zM99,33h1v1h-1z"/><path fill="#aec687" d="M100,31h1v1h-1z"/><path fill="#7dad4e" d="M0,32h1v1h-1zM0,33h1v1h-1z"/><path fill="#aec687" d="M1,32h1v1h-1zM1,33h1v1h-1z"/><path fill="#7dad4e" d="M2,32h1v1h-1zM2,33h1v1h-1zM3,33h1v1h-1zM3,32h1v1h-1z"/><path fill="#8eb865" d="M4,32h1v1h-1zM4,33h1v1h-1z"/><path fill="#8eb865" d="M6,32h1v1h-1zM6,33h1v1h-1z"/><path fill="#f0abff" d="M21,32h1v1h-1z"/><path fill="#8eb865" d="M23,32h1v1h-1zM23,33h1v1h-1z"/><path fill="#8eb865" d="M28,32h1v1h-1zM28,33h1v1h-1z"/><path fill="#6ca147" d="M35,32h1v1h-1zM35,33h1v1h-1z"/><path fill="#8eb865" d="M41,32h1v1h-1zM41,33h1v1h-1z"/><path fill="#aec687" d="M42,32h1v1h-1zM42,33h1v1h-1z"/><path fill="#aec687" d="M49,32h1v1h-1zM49,33h1v1h-1z"/><path fill="#8eb865" d="M50,32h1v1h-1zM50,33h1v1h-1z"/><path fill="#aec687" d="M54,32h1v1h-1zM54,33h1v1h-1z"/><path fill="#7dad4e" d="M55,32h1v1h-1zM55,33h1v1h-1zM56,33h1v1h-1zM56,32h1v1h-1z"/><path fill="#8eb865" d="M57,32h1v1h-1zM57,33h1v1h-1z"/><path fill="#8eb865" d="M62,32h1v1h-1zM62,33h1v1h-1z"/><path fill="#6ca147" d="M70,32h1v1h-1zM70,33h1v1h-1z"/><path fill="#8eb865" d="M71,32h1v1h-1zM71,33h1v1h-1z"/><path fill="#8eb865" d="M74,32h1v1h-1zM74,33h1v1h-1z"/><path fill="#f0abff" d="M77,32h1v1h-1z"/><path fill="#8eb865" d="M83,32h1v1h-1zM83,33h1v1h-1z"/><path fill="#7dad4e" d="M84,32h1v1h-1zM84,33h1v1h-1zM85,33h1v1h-1zM85,32h1v1h-1zM86,33h1v1h-1zM87,33h1v1h-1zM87,32h1v1h-1zM88,33h1v1h-1zM89,33h1v1h-1z"/><path fill="#8eb865" d="M86,32h1v1h-1z"/><path fill="#6ca147" d="M93,32h1v1h-1zM93,33h1v1h-1z"/><path fill="#7dad4e" d="M94,32h1v1h-1zM94,33h1v1h-1z"/><path fill="#8eb865" d="M97,32h1v1h-1zM97,33h1v1h-1z"/><path fill="#8eb865" d="M100,32h1v1h-1zM100,33h1v1h-1z"/><path fill="#aec687" d="M101,32h1v1h-1zM101,33h1v1h-1z"/><path fill="#8eb865" d="M10,33h1v1h-1z"/><path fill="#8eb865" d="M13,33h1v1h-1z"/><path fill="#8eb865" d="M15,33h1v1h-1z"/><path fill="#8eb865" d="M65,33h1v1h-1z"/><path fill="#8eb865" d="M77,33h1v1h-1z"/><path fill="#8eb865" d="M90,33h1v1h-1z"/>
</svg>