<svg xmlns="http://www.w3.org/2000/svg" viewBox="0 0 31 40" shape-rendering="crispEdges">
<path fill="#000000" d="M8,0h1v1h-1zM9,0h1v1h-1zM10,0h1v1h-1zM11,0h1v1h-1z"/><path fill="#000000" d="M19,0h1v1h-1zM20,0h1v1h-1zM21,0h1v1h-1zM22,0h1v1h-1z"/><path fill="#000000" d="M7,1h1v1h-1z"/><path fill="#eef283" d="M8,1h1v1h-1zM9,1h1v1h-1zM10,1h1v1h-1z"/><path fill="#96e04a" d="M11,1h1v1h-1z"/><path fill="#000000" d="M12,1h1v1h-1z"/><path fill="#000000" d="M18,1h1v1h-1z"/><path fill="#eef283" d="M19,1h1v1h-1zM20,1h1v1h-1zM21,1h1v1h-1z"/><path fill="#96e04a" d="M22,1h1v1h-1z"/><path fill="#000000" d="M23,1h1v1h-1z"/><path fill="#000000" d="M6,2h1v1h-1z"/><path fill="#eef283" d="M7,2h1v1h-1z"/><path fill="#96e04a" d="M8,2h1v1h-1zM9,2h1v1h-1zM10,2h1v1h-1z"/><path fill="#7bc241" d="M11,2h1v1h-1zM11,3h1v1h-1zM11,4h1v1h-1zM11,5h1v1h-1zM11,6h1v1h-1zM11,7h1v1h-1zM10,7h1v1h-1zM10,6h1v1h-1zM10,5h1v1h-1zM10,4h1v1h-1zM10,3h1v1h-1zM9,3h1v1h-1zM9,4h1v1h-1zM9,5h1v1h-1zM9,6h1v1h-1zM9,7h1v1h-1zM9,8h1v1h-1zM10,8h1v1h-1zM10,9h1v1h-1zM8,6h1v1h-1zM8,5h1v1h-1zM8,4h1v1h-1zM8,3h1v1h-1zM7,4h1v1h-1zM7,5h1v1h-1zM12,2h1v1h-1z"/><path fill="#000000" d="M13,2h1v1h-1z"/><path fill="#000000" d="M17,2h1v1h-1z"/><path fill="#eef283" d="M18,2h1v1h-1z"/><path fill="#96e04a" d="M19,2h1v1h-1zM20,2h1v1h-1zM21,2h1v1h-1z"/><path fill="#7bc241" d="M22,2h1v1h-1zM22,3h1v1h-1zM21,3h1v1h-1zM21,4h1v1h-1zM20,4h1v1h-1zM20,3h1v1h-1zM19,3h1v1h-1zM19,4h1v1h-1zM19,5h1v1h-1zM19,6h1v1h-1zM19,7h1v1h-1zM18,7h1v1h-1zM18,6h1v1h-1zM18,5h1v1h-1zM17,6h1v1h-1zM17,7h1v1h-1zM17,8h1v1h-1zM17,9h1v1h-1zM16,9h1v1h-1zM16,8h1v1h-1zM16,7h1v1h-1zM16,10h1v1h-1zM18,8h1v1h-1zM20,5h1v1h-1zM23,2h1v1h-1z"/><path fill="#000000" d="M24,2h1v1h-1z"/><path fill="#000000" d="M5,3h1v1h-1zM5,4h1v1h-1zM5,5h1v1h-1zM4,5h1v1h-1zM3,5h1v1h-1z"/><path fill="#eef283" d="M6,3h1v1h-1z"/><path fill="#96e04a" d="M7,3h1v1h-1z"/><path fill="#72b036" d="M12,3h1v1h-1zM12,4h1v1h-1zM12,5h1v1h-1zM12,6h1v1h-1zM12,7h1v1h-1z"/><path fill="#629d29" d="M13,3h1v1h-1zM13,4h1v1h-1zM13,5h1v1h-1zM13,6h1v1h-1zM13,7h1v1h-1zM13,8h1v1h-1zM13,9h1v1h-1zM13,10h1v1h-1zM13,11h1v1h-1zM12,11h1v1h-1zM12,10h1v1h-1zM12,9h1v1h-1zM12,8h1v1h-1zM11,10h1v1h-1zM14,6h1v1h-1zM14,5h1v1h-1z"/><path fill="#000000" d="M14,3h1v1h-1zM14,4h1v1h-1z"/><path fill="#000000" d="M16,3h1v1h-1zM16,4h1v1h-1z"/><path fill="#eef283" d="M17,3h1v1h-1zM17,4h1v1h-1z"/><path fill="#96e04a" d="M18,3h1v1h-1zM18,4h1v1h-1z"/><path fill="#72b036" d="M23,3h1v1h-1z"/><path fill="#629d29" d="M24,3h1v1h-1zM24,4h1v1h-1zM24,5h1v1h-1zM23,5h1v1h-1zM23,4h1v1h-1zM23,6h1v1h-1zM22,6h1v1h-1zM22,5h1v1h-1zM22,7h1v1h-1zM21,7h1v1h-1zM21,6h1v1h-1zM21,8h1v1h-1zM20,8h1v1h-1zM20,9h1v1h-1zM19,9h1v1h-1zM19,10h1v1h-1zM18,10h1v1h-1zM18,11h1v1h-1zM17,11h1v1h-1z"/><path fill="#000000" d="M25,3h1v1h-1zM25,4h1v1h-1zM25,5h1v1h-1zM26,5h1v1h-1zM27,5h1v1h-1z"/><path fill="#96e04a" d="M6,4h1v1h-1zM6,5h1v1h-1z"/><path fill="#72b036" d="M22,4h1v1h-1z"/><path fill="#000000" d="M15,5h1v1h-1zM15,6h1v1h-1zM15,7h1v1h-1zM15,8h1v1h-1zM15,9h1v1h-1zM15,10h1v1h-1zM15,11h1v1h-1zM15,12h1v1h-1zM15,13h1v1h-1zM15,14h1v1h-1zM15,15h1v1h-1zM15,16h1v1h-1zM15,17h1v1h-1zM15,18h1v1h-1zM15,19h1v1h-1zM15,20h1v1h-1zM15,21h1v1h-1zM15,22h1v1h-1zM15,23h1v1h-1zM15,24h1v1h-1zM15,25h1v1h-1zM14,16h1v1h-1zM14,15h1v1h-1zM14,14h1v1h-1zM13,15h1v1h-1zM12,15h1v1h-1zM11,15h1v1h-1zM10,15h1v1h-1zM9,15h1v1h-1zM8,15h1v1h-1zM8,14h1v1h-1zM7,15h1v1h-1zM6,15h1v1h-1zM5,15h1v1h-1zM16,16h1v1h-1zM16,15h1v1h-1zM16,14h1v1h-1zM17,15h1v1h-1zM18,15h1v1h-1zM19,15h1v1h-1zM20,15h1v1h-1zM21,15h1v1h-1zM22,15h1v1h-1zM22,14h1v1h-1zM23,15h1v1h-1zM24,15h1v1h-1zM25,15h1v1h-1z"/><path fill="#eef283" d="M16,5h1v1h-1z"/><path fill="#96e04a" d="M17,5h1v1h-1z"/><path fill="#72b036" d="M21,5h1v1h-1z"/><path fill="#000000" d="M2,6h1v1h-1z"/><path fill="#eef283" d="M3,6h1v1h-1zM4,6h1v1h-1zM5,6h1v1h-1z"/><path fill="#000000" d="M6,6h1v1h-1z"/><path fill="#96e04a" d="M7,6h1v1h-1z"/><path fill="#96e04a" d="M16,6h1v1h-1z"/><path fill="#72b036" d="M20,6h1v1h-1zM20,7h1v1h-1z"/><path fill="#000000" d="M24,6h1v1h-1z"/><path fill="#eef283" d="M25,6h1v1h-1zM26,6h1v1h-1z"/><path fill="#96e04a" d="M27,6h1v1h-1z"/><path fill="#000000" d="M28,6h1v1h-1z"/><path fill="#000000" d="M1,7h1v1h-1z"/><path fill="#eef283" d="M2,7h1v1h-1z"/><path fill="#96e04a" d="M3,7h1v1h-1zM4,7h1v1h-1zM5,7h1v1h-1z"/><path fill="#eef283" d="M6,7h1v1h-1z"/><path fill="#000000" d="M7,7h1v1h-1z"/><path fill="#96e04a" d="M8,7h1v1h-1z"/><path fill="#298141" d="M14,7h1v1h-1zM14,8h1v1h-1zM14,9h1v1h-1zM14,10h1v1h-1zM14,11h1v1h-1zM14,12h1v1h-1zM14,13h1v1h-1zM13,12h1v1h-1z"/><path fill="#000000" d="M23,7h1v1h-1z"/><path fill="#eef283" d="M24,7h1v1h-1z"/><path fill="#96e04a" d="M25,7h1v1h-1zM26,7h1v1h-1z"/><path fill="#7bc241" d="M27,7h1v1h-1zM27,8h1v1h-1zM27,9h1v1h-1zM26,9h1v1h-1zM26,8h1v1h-1zM25,8h1v1h-1zM25,9h1v1h-1zM25,10h1v1h-1zM24,10h1v1h-1zM24,9h1v1h-1zM23,10h1v1h-1zM23,11h1v1h-1zM22,11h1v1h-1zM21,11h1v1h-1zM21,12h1v1h-1zM20,12h1v1h-1zM19,12h1v1h-1zM28,8h1v1h-1zM29,8h1v1h-1z"/><path fill="#96e04a" d="M28,7h1v1h-1z"/><path fill="#000000" d="M29,7h1v1h-1z"/><path fill="#000000" d="M0,8h1v1h-1zM0,9h1v1h-1zM0,10h1v1h-1zM0,11h1v1h-1z"/><path fill="#eef283" d="M1,8h1v1h-1zM1,9h1v1h-1zM1,10h1v1h-1z"/><path fill="#96e04a" d="M2,8h1v1h-1zM2,9h1v1h-1zM2,10h1v1h-1z"/><path fill="#7bc241" d="M3,8h1v1h-1zM3,9h1v1h-1zM3,10h1v1h-1zM3,11h1v1h-1zM3,12h1v1h-1zM3,13h1v1h-1zM4,13h1v1h-1zM4,12h1v1h-1zM4,11h1v1h-1zM4,10h1v1h-1zM4,9h1v1h-1zM4,8h1v1h-1zM5,8h1v1h-1zM5,9h1v1h-1zM5,10h1v1h-1zM5,11h1v1h-1zM5,12h1v1h-1zM6,11h1v1h-1zM6,10h1v1h-1zM6,9h1v1h-1zM7,9h1v1h-1zM7,10h1v1h-1zM7,11h1v1h-1zM8,11h1v1h-1zM8,10h1v1h-1zM9,10h1v1h-1zM2,11h1v1h-1z"/><path fill="#96e04a" d="M6,8h1v1h-1zM7,8h1v1h-1z"/><path fill="#000000" d="M8,8h1v1h-1z"/><path fill="#72b036" d="M11,8h1v1h-1zM11,9h1v1h-1z"/><path fill="#72b036" d="M19,8h1v1h-1z"/><path fill="#000000" d="M22,8h1v1h-1z"/><path fill="#eef283" d="M23,8h1v1h-1z"/><path fill="#96e04a" d="M24,8h1v1h-1z"/><path fill="#000000" d="M30,8h1v1h-1zM30,9h1v1h-1zM30,10h1v1h-1zM30,11h1v1h-1z"/><path fill="#96e04a" d="M8,9h1v1h-1z"/><path fill="#000000" d="M9,9h1v1h-1z"/><path fill="#72b036" d="M18,9h1v1h-1z"/><path fill="#000000" d="M21,9h1v1h-1z"/><path fill="#eef283" d="M22,9h1v1h-1z"/><path fill="#96e04a" d="M23,9h1v1h-1z"/><path fill="#72b036" d="M28,9h1v1h-1zM29,9h1v1h-1z"/><path fill="#000000" d="M10,10h1v1h-1z"/><path fill="#72b036" d="M17,10h1v1h-1z"/><path fill="#000000" d="M20,10h1v1h-1z"/><path fill="#96e04a" d="M21,10h1v1h-1zM22,10h1v1h-1z"/><path fill="#72b036" d="M26,10h1v1h-1zM27,10h1v1h-1z"/><path fill="#629d29" d="M28,10h1v1h-1zM28,11h1v1h-1zM27,11h1v1h-1zM27,12h1v1h-1zM26,12h1v1h-1zM26,11h1v1h-1zM25,12h1v1h-1zM25,13h1v1h-1zM24,13h1v1h-1zM24,12h1v1h-1zM23,13h1v1h-1zM23,14h1v1h-1zM22,13h1v1h-1zM29,10h1v1h-1z"/><path fill="#96e04a" d="M1,11h1v1h-1z"/><path fill="#72b036" d="M9,11h1v1h-1z"/><path fill="#629d29" d="M10,11h1v1h-1zM10,12h1v1h-1zM10,13h1v1h-1zM9,13h1v1h-1zM9,12h1v1h-1zM8,13h1v1h-1zM7,13h1v1h-1zM6,13h1v1h-1zM6,14h1v1h-1zM5,14h1v1h-1zM11,12h1v1h-1z"/><path fill="#000000" d="M11,11h1v1h-1z"/><path fill="#298141" d="M16,11h1v1h-1zM16,12h1v1h-1zM16,13h1v1h-1zM17,12h1v1h-1z"/><path fill="#000000" d="M19,11h1v1h-1z"/><path fill="#96e04a" d="M20,11h1v1h-1z"/><path fill="#72b036" d="M24,11h1v1h-1zM25,11h1v1h-1z"/><path fill="#298141" d="M29,11h1v1h-1z"/><path fill="#000000" d="M1,12h1v1h-1z"/><path fill="#96e04a" d="M2,12h1v1h-1z"/><path fill="#72b036" d="M6,12h1v1h-1zM7,12h1v1h-1zM8,12h1v1h-1z"/><path fill="#000000" d="M12,12h1v1h-1z"/><path fill="#000000" d="M18,12h1v1h-1z"/><path fill="#72b036" d="M22,12h1v1h-1zM23,12h1v1h-1z"/><path fill="#298141" d="M28,12h1v1h-1z"/><path fill="#000000" d="M29,12h1v1h-1z"/><path fill="#000000" d="M2,13h1v1h-1z"/><path fill="#72b036" d="M5,13h1v1h-1z"/><path fill="#298141" d="M11,13h1v1h-1zM11,14h1v1h-1zM10,14h1v1h-1zM9,14h1v1h-1zM12,14h1v1h-1zM12,13h1v1h-1zM13,14h1v1h-1z"/><path fill="#000000" d="M13,13h1v1h-1z"/><path fill="#000000" d="M17,13h1v1h-1z"/><path fill="#298141" d="M18,13h1v1h-1zM18,14h1v1h-1zM17,14h1v1h-1zM19,14h1v1h-1z"/><path fill="#72b036" d="M19,13h1v1h-1zM20,13h1v1h-1zM21,13h1v1h-1z"/><path fill="#298141" d="M26,13h1v1h-1zM27,13h1v1h-1z"/><path fill="#000000" d="M28,13h1v1h-1z"/><path fill="#000000" d="M3,14h1v1h-1zM4,14h1v1h-1z"/><path fill="#298141" d="M7,14h1v1h-1z"/><path fill="#629d29" d="M20,14h1v1h-1zM21,14h1v1h-1z"/><path fill="#298141" d="M24,14h1v1h-1zM25,14h1v1h-1z"/><path fill="#000000" d="M26,14h1v1h-1zM27,14h1v1h-1z"/><path fill="#000000" d="M3,16h1v1h-1zM4,16h1v1h-1z"/><path fill="#eef283" d="M5,16h1v1h-1zM6,16h1v1h-1z"/><path fill="#96e04a" d="M7,16h1v1h-1z"/><path fill="#7bc241" d="M8,16h1v1h-1zM8,17h1v1h-1zM7,17h1v1h-1zM7,18h1v1h-1zM6,18h1v1h-1zM6,19h1v1h-1zM5,19h1v1h-1zM5,18h1v1h-1zM5,20h1v1h-1zM4,20h1v1h-1zM4,19h1v1h-1zM3,19h1v1h-1zM3,20h1v1h-1zM3,21h1v1h-1zM3,22h1v1h-1zM2,22h1v1h-1zM2,23h1v1h-1zM4,21h1v1h-1zM9,16h1v1h-1z"/><path fill="#72b036" d="M10,16h1v1h-1z"/><path fill="#629d29" d="M11,16h1v1h-1zM11,17h1v1h-1zM10,17h1v1h-1zM10,18h1v1h-1zM10,19h1v1h-1zM9,19h1v1h-1zM9,18h1v1h-1zM9,20h1v1h-1zM8,20h1v1h-1zM8,19h1v1h-1zM8,21h1v1h-1zM7,21h1v1h-1zM7,22h1v1h-1zM6,22h1v1h-1zM6,23h1v1h-1zM5,23h1v1h-1zM5,24h1v1h-1zM4,24h1v1h-1zM3,24h1v1h-1z"/><path fill="#298141" d="M12,16h1v1h-1zM12,17h1v1h-1zM13,16h1v1h-1z"/><path fill="#298141" d="M17,16h1v1h-1z"/><path fill="#7bc241" d="M18,16h1v1h-1zM18,17h1v1h-1zM19,17h1v1h-1zM19,16h1v1h-1zM19,18h1v1h-1zM20,18h1v1h-1zM20,17h1v1h-1zM21,17h1v1h-1zM21,18h1v1h-1zM21,19h1v1h-1zM21,20h1v1h-1zM22,20h1v1h-1zM22,19h1v1h-1zM22,18h1v1h-1zM23,18h1v1h-1zM23,19h1v1h-1zM23,20h1v1h-1zM24,20h1v1h-1zM24,19h1v1h-1zM24,18h1v1h-1zM25,18h1v1h-1zM25,19h1v1h-1zM26,19h1v1h-1zM20,19h1v1h-1z"/><path fill="#96e04a" d="M20,16h1v1h-1zM21,16h1v1h-1z"/><path fill="#eef283" d="M22,16h1v1h-1zM23,16h1v1h-1zM24,16h1v1h-1zM25,16h1v1h-1z"/><path fill="#000000" d="M26,16h1v1h-1zM27,16h1v1h-1z"/><path fill="#000000" d="M2,17h1v1h-1z"/><path fill="#eef283" d="M3,17h1v1h-1zM4,17h1v1h-1z"/><path fill="#96e04a" d="M5,17h1v1h-1zM6,17h1v1h-1z"/><path fill="#72b036" d="M9,17h1v1h-1z"/><path fill="#000000" d="M13,17h1v1h-1z"/><path fill="#298141" d="M14,17h1v1h-1zM14,18h1v1h-1zM14,19h1v1h-1zM14,20h1v1h-1zM14,21h1v1h-1zM14,22h1v1h-1zM14,23h1v1h-1zM14,24h1v1h-1zM14,25h1v1h-1zM13,25h1v1h-1zM13,26h1v1h-1zM13,27h1v1h-1zM12,27h1v1h-1zM12,28h1v1h-1zM11,28h1v1h-1zM11,29h1v1h-1zM10,29h1v1h-1z"/><path fill="#298141" d="M16,17h1v1h-1zM16,18h1v1h-1z"/><path fill="#000000" d="M17,17h1v1h-1z"/><path fill="#96e04a" d="M22,17h1v1h-1zM23,17h1v1h-1zM24,17h1v1h-1zM25,17h1v1h-1z"/><path fill="#eef283" d="M26,17h1v1h-1zM27,17h1v1h-1z"/><path fill="#000000" d="M28,17h1v1h-1z"/><path fill="#000000" d="M1,18h1v1h-1z"/><path fill="#eef283" d="M2,18h1v1h-1z"/><path fill="#96e04a" d="M3,18h1v1h-1zM4,18h1v1h-1z"/><path fill="#72b036" d="M8,18h1v1h-1z"/><path fill="#298141" d="M11,18h1v1h-1z"/><path fill="#000000" d="M12,18h1v1h-1z"/><path fill="#7bc241" d="M13,18h1v1h-1zM13,19h1v1h-1zM13,20h1v1h-1zM13,21h1v1h-1zM12,21h1v1h-1zM12,22h1v1h-1zM12,23h1v1h-1zM12,24h1v1h-1zM11,24h1v1h-1zM11,23h1v1h-1zM11,22h1v1h-1zM10,23h1v1h-1zM10,24h1v1h-1zM10,25h1v1h-1zM10,26h1v1h-1zM9,26h1v1h-1zM9,25h1v1h-1zM9,24h1v1h-1zM8,25h1v1h-1zM8,26h1v1h-1zM11,25h1v1h-1z"/><path fill="#7bc241" d="M17,18h1v1h-1zM17,19h1v1h-1zM17,20h1v1h-1zM18,20h1v1h-1zM18,19h1v1h-1zM18,21h1v1h-1zM18,22h1v1h-1zM18,23h1v1h-1zM18,24h1v1h-1zM18,25h1v1h-1zM19,25h1v1h-1zM19,24h1v1h-1zM19,23h1v1h-1zM19,22h1v1h-1zM19,21h1v1h-1zM19,20h1v1h-1zM20,21h1v1h-1zM20,22h1v1h-1zM20,23h1v1h-1zM20,24h1v1h-1zM20,25h1v1h-1zM20,26h1v1h-1zM19,26h1v1h-1zM21,26h1v1h-1zM21,25h1v1h-1zM21,24h1v1h-1zM21,23h1v1h-1zM21,22h1v1h-1zM22,23h1v1h-1zM22,24h1v1h-1zM22,25h1v1h-1zM16,19h1v1h-1z"/><path fill="#000000" d="M18,18h1v1h-1z"/><path fill="#96e04a" d="M26,18h1v1h-1zM27,18h1v1h-1z"/><path fill="#72b036" d="M28,18h1v1h-1z"/><path fill="#000000" d="M29,18h1v1h-1z"/><path fill="#000000" d="M0,19h1v1h-1zM0,20h1v1h-1zM0,21h1v1h-1zM0,22h1v1h-1z"/><path fill="#eef283" d="M1,19h1v1h-1zM1,20h1v1h-1zM1,21h1v1h-1z"/><path fill="#96e04a" d="M2,19h1v1h-1zM2,20h1v1h-1zM2,21h1v1h-1z"/><path fill="#72b036" d="M7,19h1v1h-1zM7,20h1v1h-1zM6,20h1v1h-1zM6,21h1v1h-1zM5,21h1v1h-1zM5,22h1v1h-1zM4,22h1v1h-1zM4,23h1v1h-1zM3,23h1v1h-1z"/><path fill="#000000" d="M11,19h1v1h-1z"/><path fill="#96e04a" d="M12,19h1v1h-1zM12,20h1v1h-1z"/><path fill="#000000" d="M19,19h1v1h-1z"/><path fill="#72b036" d="M27,19h1v1h-1z"/><path fill="#629d29" d="M28,19h1v1h-1zM28,20h1v1h-1zM28,21h1v1h-1zM28,22h1v1h-1zM27,22h1v1h-1zM27,21h1v1h-1zM27,20h1v1h-1zM26,21h1v1h-1zM26,22h1v1h-1zM26,23h1v1h-1zM25,23h1v1h-1zM25,22h1v1h-1zM25,24h1v1h-1zM24,23h1v1h-1zM27,23h1v1h-1zM29,19h1v1h-1z"/><path fill="#000000" d="M30,19h1v1h-1zM30,20h1v1h-1zM30,21h1v1h-1zM30,22h1v1h-1z"/><path fill="#000000" d="M10,20h1v1h-1z"/><path fill="#eef283" d="M11,20h1v1h-1z"/><path fill="#96e04a" d="M16,20h1v1h-1z"/><path fill="#000000" d="M20,20h1v1h-1z"/><path fill="#72b036" d="M25,20h1v1h-1zM25,21h1v1h-1zM24,21h1v1h-1zM24,22h1v1h-1zM23,22h1v1h-1zM23,21h1v1h-1zM22,21h1v1h-1zM26,20h1v1h-1z"/><path fill="#298141" d="M29,20h1v1h-1zM29,21h1v1h-1zM29,22h1v1h-1z"/><path fill="#000000" d="M9,21h1v1h-1z"/><path fill="#eef283" d="M10,21h1v1h-1z"/><path fill="#96e04a" d="M11,21h1v1h-1z"/><path fill="#eef283" d="M16,21h1v1h-1zM16,22h1v1h-1zM16,23h1v1h-1zM16,24h1v1h-1z"/><path fill="#96e04a" d="M17,21h1v1h-1zM17,22h1v1h-1zM17,23h1v1h-1zM17,24h1v1h-1z"/><path fill="#000000" d="M21,21h1v1h-1z"/><path fill="#96e04a" d="M1,22h1v1h-1z"/><path fill="#000000" d="M8,22h1v1h-1z"/><path fill="#eef283" d="M9,22h1v1h-1z"/><path fill="#96e04a" d="M10,22h1v1h-1z"/><path fill="#72b036" d="M13,22h1v1h-1zM13,23h1v1h-1zM13,24h1v1h-1z"/><path fill="#000000" d="M22,22h1v1h-1z"/><path fill="#000000" d="M1,23h1v1h-1z"/><path fill="#000000" d="M7,23h1v1h-1z"/><path fill="#eef283" d="M8,23h1v1h-1z"/><path fill="#96e04a" d="M9,23h1v1h-1z"/><path fill="#000000" d="M23,23h1v1h-1z"/><path fill="#298141" d="M28,23h1v1h-1z"/><path fill="#000000" d="M29,23h1v1h-1z"/><path fill="#000000" d="M2,24h1v1h-1z"/><path fill="#000000" d="M6,24h1v1h-1z"/><path fill="#eef283" d="M7,24h1v1h-1z"/><path fill="#96e04a" d="M8,24h1v1h-1z"/><path fill="#72b036" d="M23,24h1v1h-1zM23,25h1v1h-1z"/><path fill="#000000" d="M24,24h1v1h-1z"/><path fill="#298141" d="M26,24h1v1h-1zM27,24h1v1h-1z"/><path fill="#000000" d="M28,24h1v1h-1z"/><path fill="#000000" d="M3,25h1v1h-1zM4,25h1v1h-1zM5,25h1v1h-1zM5,26h1v1h-1zM5,27h1v1h-1z"/><path fill="#eef283" d="M6,25h1v1h-1z"/><path fill="#96e04a" d="M7,25h1v1h-1zM7,26h1v1h-1z"/><path fill="#72b036" d="M12,25h1v1h-1z"/><path fill="#629d29" d="M16,25h1v1h-1z"/><path fill="#72b036" d="M17,25h1v1h-1z"/><path fill="#629d29" d="M24,25h1v1h-1z"/><path fill="#000000" d="M25,25h1v1h-1zM25,26h1v1h-1zM25,27h1v1h-1zM26,25h1v1h-1zM27,25h1v1h-1z"/><path fill="#629d29" d="M6,26h1v1h-1zM6,27h1v1h-1z"/><path fill="#72b036" d="M11,26h1v1h-1z"/><path fill="#629d29" d="M12,26h1v1h-1z"/><path fill="#000000" d="M14,26h1v1h-1zM14,27h1v1h-1zM14,28h1v1h-1zM14,29h1v1h-1zM14,30h1v1h-1zM13,28h1v1h-1z"/><path fill="#629d29" d="M15,26h1v1h-1zM15,27h1v1h-1zM15,28h1v1h-1zM15,29h1v1h-1zM15,30h1v1h-1z"/><path fill="#000000" d="M16,26h1v1h-1zM16,27h1v1h-1zM16,28h1v1h-1zM16,29h1v1h-1zM16,30h1v1h-1zM16,31h1v1h-1zM16,32h1v1h-1zM17,28h1v1h-1z"/><path fill="#629d29" d="M17,26h1v1h-1zM17,27h1v1h-1zM18,27h1v1h-1zM18,28h1v1h-1zM19,28h1v1h-1zM19,29h1v1h-1zM20,28h1v1h-1zM21,28h1v1h-1zM22,28h1v1h-1zM22,27h1v1h-1zM23,27h1v1h-1zM23,26h1v1h-1z"/><path fill="#72b036" d="M18,26h1v1h-1z"/><path fill="#72b036" d="M22,26h1v1h-1z"/><path fill="#298141" d="M24,26h1v1h-1zM24,27h1v1h-1z"/><path fill="#72b036" d="M7,27h1v1h-1zM8,27h1v1h-1zM9,27h1v1h-1zM10,27h1v1h-1z"/><path fill="#629d29" d="M11,27h1v1h-1z"/><path fill="#72b036" d="M19,27h1v1h-1zM20,27h1v1h-1zM21,27h1v1h-1z"/><path fill="#000000" d="M6,28h1v1h-1z"/><path fill="#629d29" d="M7,28h1v1h-1zM8,28h1v1h-1zM8,29h1v1h-1zM9,29h1v1h-1zM9,28h1v1h-1zM10,28h1v1h-1z"/><path fill="#298141" d="M23,28h1v1h-1z"/><path fill="#000000" d="M24,28h1v1h-1z"/><path fill="#000000" d="M7,29h1v1h-1z"/><path fill="#000000" d="M12,29h1v1h-1z"/><path fill="#000000" d="M18,29h1v1h-1z"/><path fill="#298141" d="M20,29h1v1h-1zM21,29h1v1h-1zM22,29h1v1h-1z"/><path fill="#000000" d="M23,29h1v1h-1z"/><path fill="#000000" d="M8,30h1v1h-1zM9,30h1v1h-1zM10,30h1v1h-1zM11,30h1v1h-1z"/><path fill="#000000" d="M19,30h1v1h-1zM20,30h1v1h-1zM21,30h1v1h-1zM22,30h1v1h-1z"/><path fill="#000000" d="M13,31h1v1h-1z"/><path fill="#7bc241" d="M14,31h1v1h-1z"/><path fill="#298141" d="M15,31h1v1h-1zM15,32h1v1h-1z"/><path fill="#000000" d="M12,32h1v1h-1zM12,33h1v1h-1z"/><path fill="#7bc241" d="M13,32h1v1h-1zM13,33h1v1h-1z"/><path fill="#72b036" d="M14,32h1v1h-1z"/><path fill="#629d29" d="M14,33h1v1h-1zM14,34h1v1h-1z"/><path fill="#000000" d="M15,33h1v1h-1zM15,34h1v1h-1zM15,35h1v1h-1z"/><path fill="#000000" d="M11,34h1v1h-1z"/><path fill="#7bc241" d="M12,34h1v1h-1zM12,35h1v1h-1z"/><path fill="#72b036" d="M13,34h1v1h-1z"/><path fill="#000000" d="M10,35h1v1h-1z"/><path fill="#eef283" d="M11,35h1v1h-1z"/><path fill="#629d29" d="M13,35h1v1h-1zM13,36h1v1h-1z"/><path fill="#298141" d="M14,35h1v1h-1z"/><path fill="#000000" d="M9,36h1v1h-1zM9,37h1v1h-1z"/><path fill="#eef283" d="M10,36h1v1h-1z"/><path fill="#7bc241" d="M11,36h1v1h-1z"/><path fill="#72b036" d="M12,36h1v1h-1z"/><path fill="#000000" d="M14,36h1v1h-1zM14,37h1v1h-1z"/><path fill="#7bc241" d="M10,37h1v1h-1z"/><path fill="#72b036" d="M11,37h1v1h-1z"/><path fill="#629d29" d="M12,37h1v1h-1z"/><path fill="#298141" d="M13,37h1v1h-1z"/><path fill="#000000" d="M10,38h1v1h-1z"/><path fill="#629d29" d="M11,38h1v1h-1z"/><path fill="#298141" d="M12,38h1v1h-1z"/><path fill="#000000" d="M13,38h1v1h-1z"/><path fill="#000000" d="M11,39h1v1h-1zM12,39h1v1h-1z"/>
</svg>