<svg xmlns="http://www.w3.org/2000/svg" viewBox="0 0 60 18" shape-rendering="crispEdges">
<path fill="#000000" d="M11,0h1v1h-1zM12,0h1v1h-1zM13,0h1v1h-1zM14,0h1v1h-1z"/><path fill="#000000" d="M10,1h1v1h-1zM10,2h1v1h-1zM10,3h1v1h-1zM10,4h1v1h-1zM10,5h1v1h-1zM10,6h1v1h-1zM10,7h1v1h-1zM10,8h1v1h-1zM10,9h1v1h-1zM10,10h1v1h-1zM10,11h1v1h-1zM10,12h1v1h-1zM10,13h1v1h-1zM10,14h1v1h-1zM10,15h1v1h-1zM10,16h1v1h-1zM9,13h1v1h-1zM9,9h1v1h-1zM8,9h1v1h-1zM7,9h1v1h-1zM6,9h1v1h-1zM5,9h1v1h-1zM5,10h1v1h-1zM5,11h1v1h-1zM5,12h1v1h-1zM6,12h1v1h-1zM7,12h1v1h-1zM8,12h1v1h-1zM9,5h1v1h-1z"/><path fill="#eef283" d="M11,1h1v1h-1z"/><path fill="#96e04a" d="M12,1h1v1h-1z"/><path fill="#7bc241" d="M13,1h1v1h-1z"/><path fill="#298141" d="M14,1h1v1h-1zM14,2h1v1h-1zM14,3h1v1h-1zM14,4h1v1h-1zM14,5h1v1h-1zM14,6h1v1h-1zM14,7h1v1h-1zM14,8h1v1h-1zM14,9h1v1h-1zM14,10h1v1h-1zM14,11h1v1h-1zM14,12h1v1h-1zM14,13h1v1h-1zM14,14h1v1h-1zM14,15h1v1h-1zM14,16h1v1h-1zM13,16h1v1h-1zM12,16h1v1h-1zM11,16h1v1h-1z"/><path fill="#000000" d="M15,1h1v1h-1zM15,2h1v1h-1zM15,3h1v1h-1zM15,4h1v1h-1zM15,5h1v1h-1zM15,6h1v1h-1zM15,7h1v1h-1zM15,8h1v1h-1zM15,9h1v1h-1zM15,10h1v1h-1zM15,11h1v1h-1zM15,12h1v1h-1zM15,13h1v1h-1zM15,14h1v1h-1zM15,15h1v1h-1zM15,16h1v1h-1zM16,15h1v1h-1zM16,14h1v1h-1zM16,6h1v1h-1z"/><path fill="#96e04a" d="M11,2h1v1h-1zM11,3h1v1h-1z"/><path fill="#7bc241" d="M12,2h1v1h-1zM12,3h1v1h-1z"/><path fill="#629d29" d="M13,2h1v1h-1zM13,3h1v1h-1zM13,4h1v1h-1zM13,5h1v1h-1zM13,6h1v1h-1zM13,7h1v1h-1zM13,8h1v1h-1zM13,9h1v1h-1zM13,10h1v1h-1zM13,11h1v1h-1zM13,12h1v1h-1zM13,13h1v1h-1zM13,14h1v1h-1zM13,15h1v1h-1zM12,15h1v1h-1zM11,15h1v1h-1z"/><path fill="#000000" d="M3,4h1v1h-1zM4,4h1v1h-1zM5,4h1v1h-1zM6,4h1v1h-1zM7,4h1v1h-1zM8,4h1v1h-1z"/><path fill="#7bc241" d="M11,4h1v1h-1zM11,5h1v1h-1zM11,6h1v1h-1zM11,7h1v1h-1zM11,8h1v1h-1zM11,9h1v1h-1zM11,10h1v1h-1zM11,11h1v1h-1zM11,12h1v1h-1zM11,13h1v1h-1z"/><path fill="#72b036" d="M12,4h1v1h-1zM12,5h1v1h-1zM12,6h1v1h-1zM12,7h1v1h-1zM12,8h1v1h-1zM12,9h1v1h-1zM12,10h1v1h-1zM12,11h1v1h-1zM12,12h1v1h-1zM12,13h1v1h-1zM12,14h1v1h-1zM11,14h1v1h-1z"/><path fill="#000000" d="M18,4h1v1h-1zM19,4h1v1h-1zM20,4h1v1h-1zM21,4h1v1h-1zM22,4h1v1h-1zM23,4h1v1h-1z"/><path fill="#000000" d="M28,4h1v1h-1zM29,4h1v1h-1zM30,4h1v1h-1zM31,4h1v1h-1z"/><path fill="#000000" d="M34,4h1v1h-1zM35,4h1v1h-1zM36,4h1v1h-1zM37,4h1v1h-1z"/><path fill="#000000" d="M41,4h1v1h-1zM42,4h1v1h-1zM43,4h1v1h-1zM44,4h1v1h-1zM45,4h1v1h-1zM46,4h1v1h-1z"/><path fill="#000000" d="M50,4h1v1h-1zM51,4h1v1h-1zM52,4h1v1h-1z"/><path fill="#000000" d="M54,4h1v1h-1zM55,4h1v1h-1zM56,4h1v1h-1zM57,4h1v1h-1z"/><path fill="#000000" d="M2,5h1v1h-1z"/><path fill="#eef283" d="M3,5h1v1h-1z"/><path fill="#96e04a" d="M4,5h1v1h-1zM5,5h1v1h-1z"/><path fill="#7bc241" d="M6,5h1v1h-1zM7,5h1v1h-1z"/><path fill="#72b036" d="M8,5h1v1h-1z"/><path fill="#000000" d="M17,5h1v1h-1z"/><path fill="#eef283" d="M18,5h1v1h-1z"/><path fill="#96e04a" d="M19,5h1v1h-1zM20,5h1v1h-1z"/><path fill="#7bc241" d="M21,5h1v1h-1zM21,6h1v1h-1zM22,6h1v1h-1zM22,5h1v1h-1zM22,7h1v1h-1zM23,7h1v1h-1zM23,6h1v1h-1zM23,8h1v1h-1zM23,9h1v1h-1zM23,10h1v1h-1zM24,7h1v1h-1z"/><path fill="#72b036" d="M23,5h1v1h-1z"/><path fill="#000000" d="M24,5h1v1h-1z"/><path fill="#000000" d="M27,5h1v1h-1zM27,6h1v1h-1zM27,7h1v1h-1zM27,8h1v1h-1zM27,9h1v1h-1zM27,10h1v1h-1zM27,11h1v1h-1zM27,12h1v1h-1zM27,13h1v1h-1zM27,14h1v1h-1zM28,12h1v1h-1zM28,11h1v1h-1zM26,8h1v1h-1zM26,7h1v1h-1z"/><path fill="#eef283" d="M28,5h1v1h-1z"/><path fill="#96e04a" d="M29,5h1v1h-1z"/><path fill="#7bc241" d="M30,5h1v1h-1zM30,6h1v1h-1zM30,7h1v1h-1zM30,8h1v1h-1zM30,9h1v1h-1zM30,10h1v1h-1zM30,11h1v1h-1zM30,12h1v1h-1zM30,13h1v1h-1zM31,13h1v1h-1zM31,12h1v1h-1zM31,11h1v1h-1zM31,10h1v1h-1zM32,12h1v1h-1zM32,13h1v1h-1zM33,13h1v1h-1zM29,11h1v1h-1zM29,10h1v1h-1zM29,9h1v1h-1zM29,8h1v1h-1zM29,7h1v1h-1zM29,6h1v1h-1zM28,8h1v1h-1zM28,9h1v1h-1z"/><path fill="#298141" d="M31,5h1v1h-1zM31,6h1v1h-1zM31,7h1v1h-1zM31,8h1v1h-1zM31,9h1v1h-1z"/><path fill="#000000" d="M32,5h1v1h-1zM32,6h1v1h-1zM32,7h1v1h-1zM32,8h1v1h-1zM32,9h1v1h-1zM33,9h1v1h-1zM33,8h1v1h-1zM33,7h1v1h-1zM33,6h1v1h-1zM33,5h1v1h-1zM33,10h1v1h-1z"/><path fill="#eef283" d="M34,5h1v1h-1z"/><path fill="#96e04a" d="M35,5h1v1h-1z"/><path fill="#7bc241" d="M36,5h1v1h-1z"/><path fill="#298141" d="M37,5h1v1h-1zM37,6h1v1h-1zM37,7h1v1h-1zM37,8h1v1h-1zM37,9h1v1h-1zM37,10h1v1h-1zM37,11h1v1h-1zM36,11h1v1h-1zM36,12h1v1h-1zM36,13h1v1h-1zM36,14h1v1h-1zM35,14h1v1h-1zM35,15h1v1h-1zM34,15h1v1h-1zM34,16h1v1h-1zM33,16h1v1h-1zM32,16h1v1h-1zM31,16h1v1h-1z"/><path fill="#000000" d="M38,5h1v1h-1zM38,6h1v1h-1zM38,7h1v1h-1zM38,8h1v1h-1zM38,9h1v1h-1zM38,10h1v1h-1zM38,11h1v1h-1zM38,12h1v1h-1zM38,13h1v1h-1zM37,13h1v1h-1zM37,12h1v1h-1zM37,14h1v1h-1zM39,6h1v1h-1z"/><path fill="#000000" d="M40,5h1v1h-1z"/><path fill="#eef283" d="M41,5h1v1h-1z"/><path fill="#96e04a" d="M42,5h1v1h-1zM43,5h1v1h-1z"/><path fill="#7bc241" d="M44,5h1v1h-1zM44,6h1v1h-1zM44,7h1v1h-1zM45,7h1v1h-1zM45,6h1v1h-1zM46,7h1v1h-1zM46,8h1v1h-1zM43,6h1v1h-1zM42,6h1v1h-1z"/><path fill="#72b036" d="M45,5h1v1h-1z"/><path fill="#629d29" d="M46,5h1v1h-1z"/><path fill="#000000" d="M47,5h1v1h-1z"/><path fill="#000000" d="M49,5h1v1h-1zM49,6h1v1h-1zM49,7h1v1h-1zM49,8h1v1h-1zM49,9h1v1h-1zM49,10h1v1h-1zM49,11h1v1h-1zM49,12h1v1h-1zM49,13h1v1h-1zM49,14h1v1h-1zM49,15h1v1h-1zM49,16h1v1h-1zM48,16h1v1h-1zM48,12h1v1h-1zM48,11h1v1h-1zM47,12h1v1h-1zM46,12h1v1h-1zM45,12h1v1h-1zM44,12h1v1h-1zM43,12h1v1h-1zM48,6h1v1h-1z"/><path fill="#eef283" d="M50,5h1v1h-1z"/><path fill="#96e04a" d="M51,5h1v1h-1z"/><path fill="#72b036" d="M52,5h1v1h-1z"/><path fill="#000000" d="M53,5h1v1h-1z"/><path fill="#eef283" d="M54,5h1v1h-1z"/><path fill="#96e04a" d="M55,5h1v1h-1z"/><path fill="#7bc241" d="M56,5h1v1h-1z"/><path fill="#629d29" d="M57,5h1v1h-1zM57,6h1v1h-1zM57,7h1v1h-1zM56,7h1v1h-1z"/><path fill="#000000" d="M58,5h1v1h-1z"/><path fill="#000000" d="M1,6h1v1h-1z"/><path fill="#eef283" d="M2,6h1v1h-1z"/><path fill="#96e04a" d="M3,6h1v1h-1z"/><path fill="#7bc241" d="M4,6h1v1h-1zM5,6h1v1h-1z"/><path fill="#72b036" d="M6,6h1v1h-1zM7,6h1v1h-1z"/><path fill="#629d29" d="M8,6h1v1h-1zM8,7h1v1h-1zM7,7h1v1h-1zM6,7h1v1h-1zM5,7h1v1h-1z"/><path fill="#298141" d="M9,6h1v1h-1zM9,7h1v1h-1zM9,8h1v1h-1zM8,8h1v1h-1zM7,8h1v1h-1zM6,8h1v1h-1zM5,8h1v1h-1z"/><path fill="#eef283" d="M17,6h1v1h-1z"/><path fill="#96e04a" d="M18,6h1v1h-1z"/><path fill="#7bc241" d="M19,6h1v1h-1z"/><path fill="#72b036" d="M20,6h1v1h-1z"/><path fill="#72b036" d="M24,6h1v1h-1z"/><path fill="#000000" d="M25,6h1v1h-1z"/><path fill="#96e04a" d="M28,6h1v1h-1zM28,7h1v1h-1z"/><path fill="#96e04a" d="M34,6h1v1h-1zM34,7h1v1h-1z"/><path fill="#7bc241" d="M35,6h1v1h-1zM35,7h1v1h-1z"/><path fill="#629d29" d="M36,6h1v1h-1zM36,7h1v1h-1zM36,8h1v1h-1zM36,9h1v1h-1zM36,10h1v1h-1z"/><path fill="#eef283" d="M40,6h1v1h-1z"/><path fill="#96e04a" d="M41,6h1v1h-1z"/><path fill="#72b036" d="M46,6h1v1h-1z"/><path fill="#298141" d="M47,6h1v1h-1z"/><path fill="#96e04a" d="M50,6h1v1h-1zM50,7h1v1h-1z"/><path fill="#7bc241" d="M51,6h1v1h-1zM51,7h1v1h-1zM51,8h1v1h-1zM50,8h1v1h-1zM50,9h1v1h-1zM50,10h1v1h-1zM50,11h1v1h-1zM50,12h1v1h-1zM50,13h1v1h-1zM52,7h1v1h-1zM52,6h1v1h-1z"/><path fill="#96e04a" d="M53,6h1v1h-1zM54,6h1v1h-1z"/><path fill="#7bc241" d="M55,6h1v1h-1z"/><path fill="#72b036" d="M56,6h1v1h-1z"/><path fill="#298141" d="M58,6h1v1h-1zM58,7h1v1h-1zM58,8h1v1h-1zM57,8h1v1h-1zM56,8h1v1h-1zM55,8h1v1h-1zM55,7h1v1h-1zM54,8h1v1h-1zM54,9h1v1h-1zM53,9h1v1h-1zM53,10h1v1h-1zM53,11h1v1h-1zM53,12h1v1h-1zM53,13h1v1h-1zM53,14h1v1h-1zM53,15h1v1h-1zM53,16h1v1h-1zM52,16h1v1h-1zM51,16h1v1h-1zM50,16h1v1h-1z"/><path fill="#000000" d="M59,6h1v1h-1zM59,7h1v1h-1zM59,8h1v1h-1z"/><path fill="#000000" d="M0,7h1v1h-1zM0,8h1v1h-1zM0,9h1v1h-1zM0,10h1v1h-1zM0,11h1v1h-1zM0,12h1v1h-1zM0,13h1v1h-1z"/><path fill="#eef283" d="M1,7h1v1h-1z"/><path fill="#96e04a" d="M2,7h1v1h-1z"/><path fill="#7bc241" d="M3,7h1v1h-1z"/><path fill="#72b036" d="M4,7h1v1h-1z"/><path fill="#eef283" d="M16,7h1v1h-1z"/><path fill="#96e04a" d="M17,7h1v1h-1z"/><path fill="#7bc241" d="M18,7h1v1h-1z"/><path fill="#72b036" d="M19,7h1v1h-1z"/><path fill="#629d29" d="M20,7h1v1h-1zM21,7h1v1h-1z"/><path fill="#72b036" d="M25,7h1v1h-1z"/><path fill="#eef283" d="M39,7h1v1h-1z"/><path fill="#96e04a" d="M40,7h1v1h-1z"/><path fill="#7bc241" d="M41,7h1v1h-1z"/><path fill="#629d29" d="M42,7h1v1h-1zM43,7h1v1h-1z"/><path fill="#72b036" d="M47,7h1v1h-1z"/><path fill="#298141" d="M48,7h1v1h-1zM48,8h1v1h-1zM48,9h1v1h-1zM48,10h1v1h-1zM47,10h1v1h-1zM47,11h1v1h-1zM46,11h1v1h-1zM45,11h1v1h-1zM44,11h1v1h-1zM43,11h1v1h-1z"/><path fill="#72b036" d="M53,7h1v1h-1z"/><path fill="#629d29" d="M54,7h1v1h-1z"/><path fill="#96e04a" d="M1,8h1v1h-1zM1,9h1v1h-1z"/><path fill="#7bc241" d="M2,8h1v1h-1zM2,9h1v1h-1z"/><path fill="#72b036" d="M3,8h1v1h-1z"/><path fill="#629d29" d="M4,8h1v1h-1z"/><path fill="#96e04a" d="M16,8h1v1h-1zM16,9h1v1h-1z"/><path fill="#7bc241" d="M17,8h1v1h-1zM17,9h1v1h-1z"/><path fill="#72b036" d="M18,8h1v1h-1z"/><path fill="#629d29" d="M19,8h1v1h-1z"/><path fill="#298141" d="M20,8h1v1h-1zM21,8h1v1h-1zM22,8h1v1h-1z"/><path fill="#72b036" d="M24,8h1v1h-1zM24,9h1v1h-1zM24,10h1v1h-1zM24,11h1v1h-1zM24,12h1v1h-1zM24,13h1v1h-1z"/><path fill="#629d29" d="M25,8h1v1h-1zM25,9h1v1h-1zM25,10h1v1h-1zM25,11h1v1h-1zM25,12h1v1h-1zM25,13h1v1h-1z"/><path fill="#7bc241" d="M34,8h1v1h-1zM34,9h1v1h-1z"/><path fill="#72b036" d="M35,8h1v1h-1zM35,9h1v1h-1zM35,10h1v1h-1z"/><path fill="#96e04a" d="M39,8h1v1h-1zM39,9h1v1h-1z"/><path fill="#7bc241" d="M40,8h1v1h-1zM40,9h1v1h-1zM40,10h1v1h-1zM40,11h1v1h-1zM40,12h1v1h-1zM40,13h1v1h-1zM41,13h1v1h-1zM41,12h1v1h-1zM41,11h1v1h-1zM41,10h1v1h-1zM41,9h1v1h-1zM42,9h1v1h-1zM43,9h1v1h-1zM42,12h1v1h-1zM42,13h1v1h-1zM43,13h1v1h-1zM44,13h1v1h-1zM39,11h1v1h-1zM39,10h1v1h-1z"/><path fill="#629d29" d="M41,8h1v1h-1z"/><path fill="#000000" d="M42,8h1v1h-1zM43,8h1v1h-1zM44,8h1v1h-1z"/><path fill="#96e04a" d="M45,8h1v1h-1z"/><path fill="#629d29" d="M47,8h1v1h-1zM47,9h1v1h-1z"/><path fill="#72b036" d="M52,8h1v1h-1z"/><path fill="#629d29" d="M53,8h1v1h-1z"/><path fill="#629d29" d="M3,9h1v1h-1zM3,10h1v1h-1zM3,11h1v1h-1z"/><path fill="#298141" d="M4,9h1v1h-1zM4,10h1v1h-1zM4,11h1v1h-1z"/><path fill="#629d29" d="M18,9h1v1h-1zM18,10h1v1h-1zM18,11h1v1h-1z"/><path fill="#298141" d="M19,9h1v1h-1zM19,10h1v1h-1zM19,11h1v1h-1z"/><path fill="#000000" d="M20,9h1v1h-1zM20,10h1v1h-1zM20,11h1v1h-1zM20,12h1v1h-1zM21,12h1v1h-1zM21,9h1v1h-1zM22,9h1v1h-1zM22,10h1v1h-1zM22,11h1v1h-1z"/><path fill="#298141" d="M26,9h1v1h-1zM26,10h1v1h-1zM26,11h1v1h-1zM26,12h1v1h-1zM26,13h1v1h-1zM26,14h1v1h-1zM25,14h1v1h-1zM25,15h1v1h-1zM24,15h1v1h-1zM24,16h1v1h-1zM23,16h1v1h-1zM22,16h1v1h-1zM21,16h1v1h-1zM20,16h1v1h-1zM19,16h1v1h-1zM18,16h1v1h-1z"/><path fill="#96e04a" d="M44,9h1v1h-1z"/><path fill="#eef283" d="M45,9h1v1h-1z"/><path fill="#72b036" d="M46,9h1v1h-1z"/><path fill="#72b036" d="M51,9h1v1h-1zM51,10h1v1h-1zM51,11h1v1h-1zM51,12h1v1h-1zM51,13h1v1h-1zM51,14h1v1h-1zM50,14h1v1h-1z"/><path fill="#629d29" d="M52,9h1v1h-1zM52,10h1v1h-1zM52,11h1v1h-1zM52,12h1v1h-1zM52,13h1v1h-1zM52,14h1v1h-1zM52,15h1v1h-1zM51,15h1v1h-1zM50,15h1v1h-1z"/><path fill="#000000" d="M55,9h1v1h-1zM56,9h1v1h-1zM57,9h1v1h-1zM58,9h1v1h-1z"/><path fill="#7bc241" d="M1,10h1v1h-1zM1,11h1v1h-1zM1,12h1v1h-1zM2,12h1v1h-1zM2,13h1v1h-1zM3,13h1v1h-1zM3,14h1v1h-1zM4,14h1v1h-1zM4,13h1v1h-1zM5,13h1v1h-1zM5,14h1v1h-1zM6,14h1v1h-1z"/><path fill="#72b036" d="M2,10h1v1h-1zM2,11h1v1h-1z"/><path fill="#7bc241" d="M16,10h1v1h-1zM16,11h1v1h-1zM16,12h1v1h-1zM17,12h1v1h-1zM17,11h1v1h-1zM17,13h1v1h-1zM18,13h1v1h-1zM18,12h1v1h-1zM19,13h1v1h-1zM20,13h1v1h-1z"/><path fill="#72b036" d="M17,10h1v1h-1z"/><path fill="#72b036" d="M28,10h1v1h-1z"/><path fill="#298141" d="M32,10h1v1h-1z"/><path fill="#96e04a" d="M34,10h1v1h-1zM34,11h1v1h-1z"/><path fill="#629d29" d="M42,10h1v1h-1zM43,10h1v1h-1zM44,10h1v1h-1zM45,10h1v1h-1zM46,10h1v1h-1z"/><path fill="#000000" d="M54,10h1v1h-1zM54,11h1v1h-1zM54,12h1v1h-1zM54,13h1v1h-1zM54,14h1v1h-1zM54,15h1v1h-1zM54,16h1v1h-1z"/><path fill="#96e04a" d="M23,11h1v1h-1zM23,12h1v1h-1z"/><path fill="#96e04a" d="M32,11h1v1h-1z"/><path fill="#eef283" d="M33,11h1v1h-1z"/><path fill="#629d29" d="M35,11h1v1h-1zM35,12h1v1h-1zM35,13h1v1h-1z"/><path fill="#000000" d="M42,11h1v1h-1z"/><path fill="#72b036" d="M3,12h1v1h-1z"/><path fill="#629d29" d="M4,12h1v1h-1z"/><path fill="#629d29" d="M19,12h1v1h-1z"/><path fill="#eef283" d="M22,12h1v1h-1z"/><path fill="#72b036" d="M29,12h1v1h-1z"/><path fill="#96e04a" d="M33,12h1v1h-1z"/><path fill="#7bc241" d="M34,12h1v1h-1z"/><path fill="#72b036" d="M39,12h1v1h-1zM39,13h1v1h-1z"/><path fill="#72b036" d="M1,13h1v1h-1z"/><path fill="#96e04a" d="M6,13h1v1h-1zM7,13h1v1h-1zM8,13h1v1h-1z"/><path fill="#72b036" d="M16,13h1v1h-1z"/><path fill="#96e04a" d="M21,13h1v1h-1zM22,13h1v1h-1z"/><path fill="#7bc241" d="M23,13h1v1h-1z"/><path fill="#000000" d="M29,13h1v1h-1zM29,14h1v1h-1z"/><path fill="#72b036" d="M34,13h1v1h-1z"/><path fill="#96e04a" d="M45,13h1v1h-1zM46,13h1v1h-1zM47,13h1v1h-1z"/><path fill="#298141" d="M48,13h1v1h-1zM48,14h1v1h-1zM48,15h1v1h-1zM47,15h1v1h-1zM47,16h1v1h-1zM46,16h1v1h-1zM45,16h1v1h-1zM44,16h1v1h-1zM43,16h1v1h-1zM42,16h1v1h-1zM41,16h1v1h-1z"/><path fill="#000000" d="M1,14h1v1h-1zM1,15h1v1h-1z"/><path fill="#72b036" d="M2,14h1v1h-1z"/><path fill="#72b036" d="M7,14h1v1h-1z"/><path fill="#629d29" d="M8,14h1v1h-1zM8,15h1v1h-1zM7,15h1v1h-1zM6,15h1v1h-1zM5,15h1v1h-1zM4,15h1v1h-1zM3,15h1v1h-1zM2,15h1v1h-1z"/><path fill="#298141" d="M9,14h1v1h-1zM9,15h1v1h-1zM9,16h1v1h-1zM8,16h1v1h-1zM7,16h1v1h-1zM6,16h1v1h-1zM5,16h1v1h-1zM4,16h1v1h-1zM3,16h1v1h-1z"/><path fill="#72b036" d="M17,14h1v1h-1zM18,14h1v1h-1zM19,14h1v1h-1zM20,14h1v1h-1zM21,14h1v1h-1zM22,14h1v1h-1zM23,14h1v1h-1z"/><path fill="#629d29" d="M24,14h1v1h-1z"/><path fill="#72b036" d="M30,14h1v1h-1zM31,14h1v1h-1zM32,14h1v1h-1zM33,14h1v1h-1z"/><path fill="#629d29" d="M34,14h1v1h-1z"/><path fill="#000000" d="M39,14h1v1h-1z"/><path fill="#72b036" d="M40,14h1v1h-1zM41,14h1v1h-1zM42,14h1v1h-1zM43,14h1v1h-1zM44,14h1v1h-1zM45,14h1v1h-1zM46,14h1v1h-1z"/><path fill="#629d29" d="M47,14h1v1h-1z"/><path fill="#298141" d="M17,15h1v1h-1z"/><path fill="#629d29" d="M18,15h1v1h-1zM19,15h1v1h-1zM20,15h1v1h-1zM21,15h1v1h-1zM22,15h1v1h-1zM23,15h1v1h-1z"/><path fill="#000000" d="M26,15h1v1h-1z"/><path fill="#000000" d="M30,15h1v1h-1zM30,16h1v1h-1z"/><path fill="#629d29" d="M31,15h1v1h-1zM32,15h1v1h-1zM33,15h1v1h-1z"/><path fill="#000000" d="M36,15h1v1h-1z"/><path fill="#000000" d="M40,15h1v1h-1zM40,16h1v1h-1z"/><path fill="#629d29" d="M41,15h1v1h-1zM42,15h1v1h-1zM43,15h1v1h-1zM44,15h1v1h-1zM45,15h1v1h-1zM46,15h1v1h-1z"/><path fill="#000000" d="M2,16h1v1h-1z"/><path fill="#000000" d="M17,16h1v1h-1z"/><path fill="#000000" d="M25,16h1v1h-1z"/><path fill="#000000" d="M35,16h1v1h-1z"/><path fill="#000000" d="M3,17h1v1h-1zM4,17h1v1h-1zM5,17h1v1h-1zM6,17h1v1h-1zM7,17h1v1h-1zM8,17h1v1h-1zM9,17h1v1h-1z"/><path fill="#000000" d="M11,17h1v1h-1zM12,17h1v1h-1zM13,17h1v1h-1zM14,17h1v1h-1z"/><path fill="#000000" d="M18,17h1v1h-1zM19,17h1v1h-1zM20,17h1v1h-1zM21,17h1v1h-1zM22,17h1v1h-1zM23,17h1v1h-1zM24,17h1v1h-1z"/><path fill="#000000" d="M31,17h1v1h-1zM32,17h1v1h-1zM33,17h1v1h-1zM34,17h1v1h-1z"/><path fill="#000000" d="M41,17h1v1h-1zM42,17h1v1h-1zM43,17h1v1h-1zM44,17h1v1h-1zM45,17h1v1h-1zM46,17h1v1h-1zM47,17h1v1h-1z"/><path fill="#000000" d="M50,17h1v1h-1zM51,17h1v1h-1zM52,17h1v1h-1zM53,17h1v1h-1z"/>
</svg>